<?xml version="1.0" encoding="UTF-8"?>
<svg version="1.1" xmlns="http://www.w3.org/2000/svg" width="512" height="512">
<path d="M0 0 C14.4039543 12.72607432 24.07924331 27.50738906 26.1796875 46.92578125 C26.58882469 56.17418479 26.32487346 64.88535472 24.1796875 73.92578125 C25.0253125 74.14492187 25.8709375 74.3640625 26.7421875 74.58984375 C37.70392573 77.65414785 44.40782542 81.54310648 50.69921875 91.16015625 C55.73529469 100.56791817 56.12942603 110.38162252 53.4921875 120.5859375 C50.29832445 129.81106871 44.56976171 136.00037739 35.9296875 140.42578125 C31.14447326 142.65722831 27.21761671 144.0764134 21.9296875 143.98828125 C20.0734375 143.95734375 20.0734375 143.95734375 18.1796875 143.92578125 C18.1796875 147.55578125 18.1796875 151.18578125 18.1796875 154.92578125 C19.8296875 154.82265625 21.4796875 154.71953125 23.1796875 154.61328125 C29.14137512 154.61328125 32.69071329 156.07354097 37.1796875 159.92578125 C42.09460359 164.84069734 43.2590336 170.27045191 43.5546875 177.05078125 C43.32108678 188.37262931 39.11959401 199.41350408 30.9296875 207.30078125 C27.07741587 210.43022045 23.0223949 211.28887189 18.1796875 211.92578125 C18.20289063 212.48523438 18.22609375 213.0446875 18.25 213.62109375 C18.7866099 237.46190523 10.05661163 260.18550632 -6.33203125 277.43554688 C-12.38663025 283.49809154 -19.05591691 289.21237466 -26.8203125 292.92578125 C-27.4803125 292.92578125 -28.1403125 292.92578125 -28.8203125 292.92578125 C-28.8203125 298.86578125 -28.8203125 304.80578125 -28.8203125 310.92578125 C-25.076875 310.83296875 -25.076875 310.83296875 -21.2578125 310.73828125 C3.38314701 310.57453029 22.34218255 320.61861883 40.49609375 336.48193359 C42.18733818 337.93234246 43.90944059 339.33389953 45.6484375 340.7265625 C57.00618927 349.8808846 64.43228171 359.07768254 66.1796875 373.92578125 C66.27696981 376.45784834 66.32752929 378.99197857 66.34082031 381.52587891 C66.34578522 382.25038742 66.35075012 382.97489594 66.35586548 383.72135925 C66.37035326 386.09419738 66.3772635 388.46696886 66.3828125 390.83984375 C66.38563988 391.65462566 66.38846725 392.46940758 66.39138031 393.30887985 C66.40631199 397.61347523 66.41558175 401.91803756 66.41992188 406.22265625 C66.42542403 410.66238817 66.44950563 415.10181613 66.47789383 419.54145241 C66.49652181 422.96441539 66.5017257 426.38730478 66.50325775 429.81031418 C66.50628014 431.44735771 66.51429472 433.08440007 66.52744293 434.72139359 C66.544521 437.00932349 66.54262024 439.29650467 66.53613281 441.58447266 C66.53977844 442.88462311 66.54342407 444.18477356 66.54718018 445.52432251 C66.15169553 449.18487088 65.4075855 451.02766837 63.1796875 453.92578125 C59.66144239 456.27127799 58.32193056 456.50569528 54.1796875 455.92578125 C50.77318929 453.27866057 49.33684262 451.79551494 48.56063843 447.49981689 C48.56302521 446.18793396 48.56541199 444.87605103 48.56787109 443.52441406 C48.56220627 442.7968692 48.55654144 442.06932434 48.55070496 441.31973267 C48.53723708 438.92226109 48.5581294 436.52631117 48.578125 434.12890625 C48.57262116 432.45366384 48.56449325 430.77842818 48.55386353 429.10321045 C48.53098415 424.69409835 48.5351907 420.285482 48.54766846 415.87634277 C48.56597126 408.83437977 48.55584721 401.79271052 48.52180862 394.75081635 C48.51574373 392.30184896 48.52891867 389.85351932 48.54379272 387.40460205 C48.55248144 376.8900817 48.11201141 368.16913763 40.57421875 360.21875 C21.52273347 341.97532119 1.37833374 328.32157681 -25.90841675 327.83358765 C-40.18599458 328.33506682 -52.59502101 335.91298797 -64.921875 342.48291016 C-67.64316897 343.91907567 -70.38681358 345.30914037 -73.13224983 346.69845009 C-76.43611529 348.37327461 -79.72622519 350.07433423 -83.015625 351.77734375 C-83.63182835 352.09354298 -84.24803169 352.4097422 -84.88290787 352.73552322 C-93.2703584 357.06824014 -99.80634797 360.5220469 -102.8203125 369.92578125 C-103.0101008 372.60738336 -103.10088537 375.18535666 -103.09155273 377.86547852 C-103.09677948 378.64982269 -103.10200623 379.43416687 -103.10739136 380.24227905 C-103.11760484 381.93917918 -103.12340712 383.6361104 -103.12527275 385.33304024 C-103.12894273 388.01888225 -103.14568494 390.70435714 -103.16603088 393.39012146 C-103.22139415 401.02392766 -103.2521703 408.65778678 -103.27661133 416.29174805 C-103.29247715 420.96603927 -103.32268064 425.64006733 -103.36137581 430.31422234 C-103.37302912 432.09439237 -103.37895619 433.87460941 -103.37905693 435.65481758 C-103.37924878 438.14198478 -103.39749847 440.62842424 -103.41967773 443.11547852 C-103.41510056 443.85065201 -103.41052338 444.5858255 -103.4058075 445.34327698 C-103.46432573 449.4666747 -103.81975913 451.98730373 -106.8203125 454.92578125 C-109.46870393 455.98957028 -111.98421649 456.1745616 -114.8203125 455.92578125 C-117.68024728 454.16114064 -119.31814099 452.93012428 -120.8203125 449.92578125 C-120.93402522 447.43156435 -120.98812124 444.96461323 -120.99731445 442.46948242 C-121.00388565 441.70003296 -121.01045685 440.9305835 -121.01722717 440.13781738 C-121.03699351 437.58146059 -121.04863714 435.02516296 -121.05859375 432.46875 C-121.06266928 431.59317255 -121.0667448 430.7175951 -121.07094383 429.815485 C-121.09183001 425.17101908 -121.10611428 420.52658284 -121.11547852 415.88208008 C-121.12648015 411.11221654 -121.16079942 406.34282765 -121.20065022 401.57313061 C-121.22697646 397.88476272 -121.23518499 394.19650446 -121.23875999 390.50805092 C-121.24359369 388.7520055 -121.25511434 386.99596389 -121.27379799 385.24001122 C-121.4048947 372.08955385 -120.85398631 359.38387495 -111.88671875 348.8671875 C-107.34969587 344.60461591 -101.97149054 341.1701575 -95.8203125 339.92578125 C-97.08469572 338.20622007 -98.44004383 336.55379045 -99.8203125 334.92578125 C-100.22362793 334.40653076 -100.62694336 333.88728027 -101.04248047 333.35229492 C-104.96131347 329.12822619 -108.31602678 328.46993422 -114.01171875 328.234375 C-116.09372281 328.2260583 -118.16992731 328.25309403 -120.2512207 328.30834961 C-122.35416445 328.36254298 -124.45307617 328.3698814 -126.55664062 328.36914062 C-139.62882787 328.46865381 -151.58692852 331.06892005 -163.7578125 335.86328125 C-164.74998779 336.24226563 -165.74216309 336.62125 -166.7644043 337.01171875 C-172.1294874 339.0688611 -177.47147771 341.18168346 -182.80461121 343.31996155 C-185.56533562 344.42467859 -188.3300834 345.51913977 -191.09500122 346.61331177 C-193.08436855 347.40646679 -195.06635858 348.21629572 -197.04858398 349.02709961 C-206.92062588 352.9904132 -216.06052647 355.67481351 -226.41015625 351.984375 C-237.84881853 346.96026239 -242.84026026 338.61250381 -247.79296875 327.41796875 C-252.54312616 315.68487014 -252.54312616 315.68487014 -261.61181641 307.69189453 C-268.04067146 306.39736117 -274.38716595 306.83436587 -280.8203125 307.92578125 C-280.14995972 309.49199219 -280.14995972 309.49199219 -279.46606445 311.08984375 C-277.74033151 315.1241621 -276.01809024 319.15996333 -274.29705811 323.19628906 C-273.52188423 325.01362987 -272.74604761 326.83068813 -271.96954346 328.64746094 C-267.88881656 338.19959274 -263.84233741 347.75771874 -260.04296875 357.42578125 C-259.75434464 358.15587402 -259.46572052 358.8859668 -259.16835022 359.63818359 C-257.82383138 363.04174319 -256.49581592 366.45001261 -255.1965332 369.87109375 C-251.95010383 378.12935258 -248.78597191 385.11832548 -240.84204102 389.60961914 C-235.70524164 391.66178394 -230.35243962 391.3277021 -224.90234375 391.296875 C-222.57356615 391.31424538 -220.24479014 391.33182987 -217.91601562 391.34960938 C-214.26209716 391.35971056 -210.6082776 391.36326985 -206.9543457 391.36157227 C-203.41587916 391.36513233 -199.87817507 391.39242498 -196.33984375 391.421875 C-195.24501175 391.41369247 -194.15017975 391.40550995 -193.02217102 391.39707947 C-192.00398788 391.40711502 -190.98580475 391.41715057 -189.93676758 391.42749023 C-189.04298904 391.42732407 -188.14921051 391.4271579 -187.22834778 391.42698669 C-183.95910567 392.10416953 -182.79466808 393.26248699 -180.8203125 395.92578125 C-180.31910706 398.46789551 -180.31910706 398.46789551 -180.31860352 401.36523438 C-180.30922256 402.45316284 -180.29984161 403.54109131 -180.29017639 404.6619873 C-180.30141037 405.83185181 -180.31264435 407.00171631 -180.32421875 408.20703125 C-180.32276352 409.41266724 -180.32130829 410.61830322 -180.31980896 411.86047363 C-180.32146872 414.40912289 -180.33303841 416.95778209 -180.35375977 419.50634766 C-180.3827023 423.41091418 -180.37437144 427.31412248 -180.36132812 431.21875 C-180.36756575 433.69401703 -180.37595688 436.16927976 -180.38671875 438.64453125 C-180.38378311 439.81439575 -180.38084747 440.98426025 -180.37782288 442.1895752 C-180.39050705 443.27750366 -180.40319122 444.36543213 -180.41625977 445.48632812 C-180.42166275 446.44244995 -180.42706573 447.39857178 -180.43263245 448.38366699 C-180.88713406 451.36394676 -181.78082459 452.73832356 -183.8203125 454.92578125 C-186.46870393 455.98957028 -188.98421649 456.1745616 -191.8203125 455.92578125 C-194.68024728 454.16114064 -196.31814099 452.93012428 -197.8203125 449.92578125 C-197.90743025 446.86335804 -197.9357971 443.8239166 -197.91796875 440.76171875 C-197.91584633 439.40090683 -197.91584633 439.40090683 -197.91368103 438.01260376 C-197.90807346 435.1086297 -197.89551968 432.2047321 -197.8828125 429.30078125 C-197.87779848 427.33463653 -197.8732354 425.3684906 -197.86914062 423.40234375 C-197.85810156 418.57679335 -197.84083185 413.75130028 -197.8203125 408.92578125 C-199.03501221 408.94672852 -200.24971191 408.96767578 -201.5012207 408.98925781 C-206.05415832 409.06224555 -210.60704537 409.10779262 -215.16040039 409.14550781 C-217.12240324 409.16549043 -219.08434755 409.19268609 -221.04614258 409.22753906 C-235.16237697 409.47185159 -246.11553204 409.11288242 -257.65234375 400.09765625 C-263.42661549 394.31298042 -267.02699198 387.98748157 -270.1328125 380.48828125 C-270.53669189 379.53743652 -270.94057129 378.5865918 -271.35668945 377.60693359 C-272.56701254 374.74385562 -273.76487983 371.87590221 -274.95666504 369.00506592 C-275.91007028 366.70968385 -276.8665108 364.41557967 -277.82324219 362.12158203 C-285.20652238 344.41067605 -292.51896014 326.6705852 -299.8203125 308.92578125 C-300.88991211 308.92167236 -301.95951172 308.91756348 -303.06152344 308.91333008 C-307.0353189 308.89153487 -311.00812471 308.8372425 -314.98144531 308.77319336 C-316.70009872 308.7500165 -318.4188941 308.73561834 -320.13769531 308.73022461 C-322.61092559 308.72093213 -325.08192422 308.6799407 -327.5546875 308.6328125 C-328.70490387 308.63871147 -328.70490387 308.63871147 -329.87835693 308.64472961 C-333.73489738 308.53958015 -335.46260459 308.26497128 -338.30566406 305.5690918 C-340.17318522 302.30996034 -340.43722673 300.62726662 -339.8203125 296.92578125 C-336.80905398 292.15934046 -336.80905398 292.15934046 -333.16847992 291.29936886 C-331.64425289 291.29848939 -331.64425289 291.29848939 -330.0892334 291.29759216 C-328.33530525 291.27861122 -328.33530525 291.27861122 -326.54594421 291.25924683 C-325.26685684 291.27093903 -323.98776947 291.28263123 -322.66992188 291.29467773 C-321.30637176 291.28953848 -319.94282827 291.28225714 -318.57929993 291.272995 C-314.87872302 291.25447286 -311.17886614 291.26742388 -307.47831917 291.28708529 C-303.60577679 291.30346682 -299.7332802 291.29465961 -295.86071777 291.28956604 C-289.3573862 291.2850445 -282.8543422 291.30091842 -276.35107422 291.32885742 C-268.83236894 291.36090983 -261.31418231 291.36089394 -253.7954402 291.34364265 C-246.56268275 291.32777881 -239.33011546 291.33451013 -232.09736633 291.35157967 C-229.01926105 291.3584523 -225.9413081 291.35741562 -222.86320496 291.35003471 C-219.23836313 291.34237336 -215.61411152 291.35449204 -211.98937035 291.38188362 C-210.0244977 291.3920555 -208.05955419 291.38258334 -206.09468079 291.37255859 C-204.92539536 291.38528305 -203.75610992 291.39800751 -202.5513916 291.41111755 C-201.53524025 291.41392447 -200.5190889 291.4167314 -199.47214508 291.41962337 C-196.11614954 292.06018552 -194.92734844 293.29315599 -192.8203125 295.92578125 C-192.2890625 297.92578125 -192.2890625 297.92578125 -192.3203125 299.92578125 C-192.31 300.58578125 -192.2996875 301.24578125 -192.2890625 301.92578125 C-193.10400623 304.99380471 -194.26847273 306.01263387 -196.8203125 307.92578125 C-199.9326263 308.5468781 -203.01359276 308.53071654 -206.1796875 308.53515625 C-207.08406555 308.5516925 -207.9884436 308.56822876 -208.92022705 308.58526611 C-211.80365771 308.63378104 -214.68656084 308.65512469 -217.5703125 308.67578125 C-219.52737034 308.70393803 -221.48440357 308.73386504 -223.44140625 308.765625 C-228.23433158 308.83954094 -233.02696346 308.88909423 -237.8203125 308.92578125 C-235.94258792 312.51888594 -234.04006931 316.09827727 -232.1328125 319.67578125 C-231.60236328 320.6915625 -231.07191406 321.70734375 -230.52539062 322.75390625 C-230.00009766 323.73359375 -229.47480469 324.71328125 -228.93359375 325.72265625 C-228.45704346 326.62338867 -227.98049316 327.52412109 -227.48950195 328.45214844 C-224.92050971 332.25923187 -222.3856744 334.42608566 -217.98901367 335.82958984 C-213.98157352 335.95124262 -210.80166363 334.88349578 -207.12109375 333.46484375 C-206.38425858 333.19282135 -205.6474234 332.92079895 -204.88825989 332.64053345 C-195.38421768 329.09151569 -185.98949758 325.22051234 -176.63061523 321.30664062 C-159.80097482 314.28895568 -143.40246037 310.12729351 -125.0703125 310.67578125 C-123.87277344 310.69382812 -122.67523438 310.711875 -121.44140625 310.73046875 C-118.56733881 310.77645383 -115.69369854 310.84812217 -112.8203125 310.92578125 C-112.8203125 304.98578125 -112.8203125 299.04578125 -112.8203125 292.92578125 C-114.4703125 292.26578125 -116.1203125 291.60578125 -117.8203125 290.92578125 C-136.9463946 279.20947268 -151.04894184 260.91628113 -157.078125 239.25390625 C-159.09246052 230.22120169 -160.14485457 221.17523015 -159.8203125 211.92578125 C-160.655625 211.83103516 -160.655625 211.83103516 -161.5078125 211.734375 C-168.23172713 210.65536843 -172.48167822 208.19608015 -176.8203125 202.92578125 C-183.08076006 192.80634384 -186.95422582 181.6117472 -184.3203125 169.65625 C-182.35676987 163.82140458 -179.24119903 159.65498592 -174.1953125 156.05078125 C-169.29774264 154.41825796 -164.9712003 154.73733414 -159.8203125 154.92578125 C-159.8203125 150.96578125 -159.8203125 147.00578125 -159.8203125 142.92578125 C-160.6040625 142.71953125 -161.3878125 142.51328125 -162.1953125 142.30078125 C-174.09524558 137.78701353 -184.97961007 129.37639847 -190.8203125 117.92578125 C-195.85000021 106.4405442 -196.84640383 93.46824636 -193.1953125 81.42578125 C-188.7573018 70.10653445 -181.38691118 61.3441753 -170.3203125 56.05078125 C-160.8072939 52.14294373 -152.11926105 51.33766068 -141.8203125 51.92578125 C-141.1603125 52.25578125 -140.5003125 52.58578125 -139.8203125 52.92578125 C-139.86671875 52.07757813 -139.913125 51.229375 -139.9609375 50.35546875 C-140.49281732 33.06937466 -134.6065068 18.73608176 -123.421875 5.625 C-91.76927707 -27.21575852 -34.89696835 -28.82515152 0 0 Z M-113.8203125 20.92578125 C-122.32767082 31.67420838 -124.07237462 44.41702555 -123.09082031 57.72558594 C-122.00739967 66.53766793 -117.0469875 74.7138614 -110.8203125 80.92578125 C-109.3353125 81.42078125 -109.3353125 81.42078125 -107.8203125 81.92578125 C-106.62276433 85.51842577 -106.48936292 88.15295599 -106.8203125 91.92578125 C-108.3828125 94.36328125 -108.3828125 94.36328125 -110.8203125 95.92578125 C-114.4366366 96.69077289 -116.65572497 96.6511143 -119.83984375 94.66796875 C-125.61698818 89.91811769 -129.75997922 84.10512818 -133.0546875 77.421875 C-135.47593127 72.4053169 -135.47593127 72.4053169 -140.0078125 69.36328125 C-150.27445692 68.18514173 -159.48288869 68.59118223 -168.1953125 74.73828125 C-173.34195743 78.94068285 -176.00494775 83.57586711 -177.8203125 89.92578125 C-178.66770447 98.79588424 -178.33640796 106.18572851 -172.96875 113.421875 C-165.93874402 121.78087505 -158.0281553 126.39510378 -147.8515625 130.06640625 C-145.8203125 130.92578125 -145.8203125 130.92578125 -143.8203125 132.92578125 C-143.3253125 143.32078125 -143.3253125 143.32078125 -142.8203125 153.92578125 C-95.3003125 153.92578125 -47.7803125 153.92578125 1.1796875 153.92578125 C1.5096875 146.66578125 1.8396875 139.40578125 2.1796875 131.92578125 C6.67393369 127.43153506 6.67393369 127.43153506 10.296875 127.421875 C11.06902344 127.40318359 11.84117187 127.38449219 12.63671875 127.36523438 C13.43464844 127.36458984 14.23257813 127.36394531 15.0546875 127.36328125 C21.74539051 127.32507985 26.73484949 126.96577719 32.0078125 122.3125 C36.05625857 117.47438451 38.53644257 113.43565103 38.0546875 106.92578125 C37.17885108 101.58928956 34.57617833 98.15602317 30.5546875 94.61328125 C27.33434983 92.32514659 25.81692269 91.81031347 21.93359375 91.93359375 C21.09634766 91.95035156 20.25910156 91.96710938 19.39648438 91.984375 C17.6306439 92.0285535 15.8649824 92.08060493 14.09960938 92.140625 C13.26107422 92.15480469 12.42253906 92.16898437 11.55859375 92.18359375 C10.7910376 92.20566895 10.02348145 92.22774414 9.23266602 92.25048828 C6.62374989 91.83785201 5.79505131 90.97112733 4.1796875 88.92578125 C2.32924072 84.14401926 4.03854509 80.12945125 5.5546875 75.48828125 C10.45235997 60.08214119 11.02326117 45.15444821 3.6171875 30.36328125 C-5.46109161 14.93686564 -19.79327411 4.8993148 -36.8203125 -0.07421875 C-64.8320655 -7.04189548 -94.31661904 -1.69062288 -113.8203125 20.92578125 Z M-142.8203125 170.92578125 C-144.92592654 223.92771577 -144.92592654 223.92771577 -121.6328125 266.67578125 C-107.34647038 280.16843769 -88.40743786 287.71674088 -68.6640625 287.171875 C-46.59312781 285.26189027 -28.45608112 277.06567639 -13.8203125 259.92578125 C5.84556285 233.11808801 1.1796875 204.21022456 1.1796875 170.92578125 C-46.3403125 170.92578125 -93.8603125 170.92578125 -142.8203125 170.92578125 Z M-165.8203125 171.92578125 C-168.13525171 173.81960516 -168.13525171 173.81960516 -168.1328125 176.98828125 C-167.65753495 182.97677833 -166.21397084 189.53212291 -161.8203125 193.92578125 C-161.1603125 193.92578125 -160.5003125 193.92578125 -159.8203125 193.92578125 C-159.73320961 190.82179147 -159.67988941 187.71811577 -159.6328125 184.61328125 C-159.60767578 183.73220703 -159.58253906 182.85113281 -159.55664062 181.94335938 C-159.54697266 181.09580078 -159.53730469 180.24824219 -159.52734375 179.375 C-159.5116333 178.59471436 -159.49592285 177.81442871 -159.47973633 177.01049805 C-159.9107644 174.37211189 -160.68172656 173.491325 -162.8203125 171.92578125 C-163.8103125 171.92578125 -164.8003125 171.92578125 -165.8203125 171.92578125 Z M19.44799805 173.1340332 C17.81577091 175.43988786 17.8330649 176.78586506 17.88671875 179.59375 C17.89638672 180.48642578 17.90605469 181.37910156 17.91601562 182.29882812 C17.94115234 183.22759766 17.96628906 184.15636719 17.9921875 185.11328125 C18.00572266 186.05365234 18.01925781 186.99402344 18.03320312 187.96289062 C18.06855654 190.28443163 18.11790076 192.60481778 18.1796875 194.92578125 C23.96984213 189.524164 25.93128987 184.8380439 26.4296875 176.98828125 C26.37839025 174.01238798 26.37839025 174.01238798 25.1796875 171.92578125 C21.37450038 171.54430636 21.37450038 171.54430636 19.44799805 173.1340332 Z M-95.8203125 299.92578125 C-97.49009011 309.29747303 -97.49009011 309.29747303 -94.41259766 317.94335938 C-90.07130164 322.55798311 -83.47157464 329.45916827 -76.8203125 329.92578125 C-74.38962135 328.97581324 -72.20330231 327.97845083 -69.90234375 326.77734375 C-69.24449387 326.4453598 -68.58664398 326.11337585 -67.90885925 325.77133179 C-65.81097659 324.70892622 -63.72213116 323.62991422 -61.6328125 322.55078125 C-60.21472726 321.83097717 -58.79611287 321.11221453 -57.37695312 320.39453125 C-51.21630229 317.68473706 -51.21630229 317.68473706 -45.8203125 313.92578125 C-45.74772304 311.73938672 -45.73657467 309.55077736 -45.7578125 307.36328125 C-45.76683594 306.16574219 -45.77585937 304.96820313 -45.78515625 303.734375 C-45.79675781 302.80753906 -45.80835938 301.88070313 -45.8203125 300.92578125 C-46.65054932 301.01666016 -46.65054932 301.01666016 -47.49755859 301.109375 C-50.06291572 301.3869995 -52.62907536 301.65641735 -55.1953125 301.92578125 C-56.06542969 302.02117187 -56.93554688 302.1165625 -57.83203125 302.21484375 C-66.56221023 303.12019564 -74.93912771 303.23543813 -83.6328125 301.98828125 C-84.87675781 301.81425781 -86.12070312 301.64023437 -87.40234375 301.4609375 C-90.22905315 301.01835557 -93.02171574 300.51748457 -95.8203125 299.92578125 Z " fill="#221E1F" transform="translate(412.8203125,38.07421875)"/>
<path d="M0 0 C7.53148794 4.56494862 12.36707832 10.38352951 16.171875 18.31640625 C16.49681588 19.75114522 16.81042829 21.18852666 17.109375 22.62890625 C17.68894123 24.66926875 17.68894123 24.66926875 19.171875 26.31640625 C21.99605335 27.56403524 24.81695151 28.47454738 27.78369141 29.3203125 C40.13720121 32.89748212 51.73646665 39.60679855 61.171875 48.31640625 C62.13480469 49.1878125 63.09773437 50.05921875 64.08984375 50.95703125 C82.18159572 67.8503487 94.40134869 92.11089442 96.32421875 116.8984375 C96.15283904 119.61854109 95.72800116 121.08159579 94.171875 123.31640625 C90.3777813 126.00332253 86.13129517 125.60087072 81.67616272 125.58383179 C80.37775826 125.59062846 80.37775826 125.59062846 79.05312341 125.59756243 C76.14742217 125.61024094 73.24190752 125.60858385 70.33618164 125.60693359 C68.25505837 125.61291663 66.17393733 125.61972165 64.09281921 125.62728882 C58.43586414 125.64497743 52.77896954 125.64964536 47.12198949 125.65092039 C42.4026152 125.65281797 37.68325505 125.66017376 32.9638862 125.66726458 C21.83211804 125.68355649 10.70038223 125.68843274 -0.43139648 125.68701172 C-11.92285203 125.68580959 -23.41411996 125.70692383 -34.90552801 125.73849905 C-44.76548681 125.76462823 -54.6253842 125.77538045 -64.48537737 125.7741009 C-70.377052 125.77359034 -76.2685599 125.77932545 -82.16020012 125.800457 C-87.69978992 125.81978316 -93.23905295 125.82000235 -98.7786541 125.80542374 C-100.813222 125.80332765 -102.84781006 125.80808386 -104.88234329 125.82014465 C-107.6570924 125.83552984 -110.43070528 125.82633373 -113.20542908 125.81088257 C-114.01301743 125.82116969 -114.82060578 125.83145682 -115.65266651 125.84205568 C-119.39398424 125.79592622 -121.60635118 125.45478937 -124.81015873 123.4556675 C-127.4521528 120.65486968 -127.7228911 119.1551558 -127.828125 115.31640625 C-127.50754001 112.45004206 -126.9250213 109.685034 -126.265625 106.87890625 C-126.08362549 106.0897583 -125.90162598 105.30061035 -125.71411133 104.48754883 C-119.6747192 79.58663201 -105.27476623 55.30478363 -83.6171875 41.00390625 C-60.99479167 27.31640625 -60.99479167 27.31640625 -50.828125 27.31640625 C-50.71726562 26.43855469 -50.60640625 25.56070313 -50.4921875 24.65625 C-48.83582445 16.32571819 -43.61546209 8.40690907 -36.828125 3.31640625 C-25.67709421 -3.21102641 -12.11063621 -5.83179965 0 0 Z M-27.828125 18.31640625 C-29.313125 20.79140625 -29.313125 20.79140625 -30.828125 23.31640625 C-20.928125 23.31640625 -11.028125 23.31640625 -0.828125 23.31640625 C-4.76442289 17.01933453 -4.76442289 17.01933453 -10.828125 14.31640625 C-17.65440042 13.40247516 -22.31540149 14.15373747 -27.828125 18.31640625 Z M-64.828125 50.31640625 C-65.80394531 50.81914062 -66.77976563 51.321875 -67.78515625 51.83984375 C-90.3180999 64.16209535 -101.50021091 84.50068546 -108.828125 108.31640625 C-47.448125 108.31640625 13.931875 108.31640625 77.171875 108.31640625 C75.61990854 101.33255716 74.15890701 96.29808407 71.171875 90.06640625 C70.58237061 88.83132324 70.58237061 88.83132324 69.98095703 87.57128906 C66.24143833 80.00970808 61.73204382 73.65760213 56.171875 67.31640625 C55.26308594 66.27613281 55.26308594 66.27613281 54.3359375 65.21484375 C37.2206767 46.97463623 12.25307682 40.55176202 -11.828125 39.31640625 C-30.08561979 38.84669442 -48.55445608 41.81133548 -64.828125 50.31640625 Z " fill="#221E1F" transform="translate(160.828125,192.68359375)"/>
<path d="M0 0 C0.7528125 -0.01289063 1.505625 -0.02578125 2.28125 -0.0390625 C5.66045328 0.97231876 6.70062687 2.64478825 8.5 5.625 C9.03125 9 9.03125 9 9 12.625 C9.0103125 13.82125 9.020625 15.0175 9.03125 16.25 C8.40809043 20.20889609 7.38990454 21.88290363 4.5 24.625 C-0.24872357 25.37876565 -2.29691034 25.27667357 -6.5 23 C-9.68967867 17.61741725 -9.52309877 11.72125751 -8.5 5.625 C-6.16696606 1.76951851 -4.60854599 -0.07891346 0 0 Z " fill="#221E1F" transform="translate(329.5,411.375)"/>
<path d="M0 0 C2.9375 1.625 2.9375 1.625 5 5 C5.80625395 10.9266738 6.42221504 16.64970254 3.24609375 21.8984375 C0.75673592 24.22761056 -0.15121836 24.68234215 -3.5 24.625 C-4.2528125 24.63789063 -5.005625 24.65078125 -5.78125 24.6640625 C-9.15927143 23.65303496 -10.19828681 21.9774414 -12 19 C-13.02682994 12.88150987 -13.21435589 6.98712782 -9.9375 1.625 C-6.20282869 -0.44098839 -4.20689051 -0.75123045 0 0 Z " fill="#221E1F" transform="translate(333,456)"/>
</svg>
