<?xml version="1.0" encoding="UTF-8"?>
<svg version="1.1" xmlns="http://www.w3.org/2000/svg" width="512" height="512">
<path d="M0 0 C0.67836914 0.00054382 1.35673828 0.00108765 2.05566406 0.00164795 C34.14977003 0.11953004 62.36838271 12.83126378 85.1875 35.1875 C91.3198022 41.38754858 96.45642751 47.86723819 100.9375 55.375 C101.31745117 56.00744629 101.69740234 56.63989258 102.08886719 57.29150391 C112.81356355 75.48281698 118.17755413 94.73677844 118.28125 115.8671875 C118.2958728 117.01559113 118.31049561 118.16399475 118.32556152 119.34719849 C118.37160079 122.98143099 118.40604812 126.61561388 118.4375 130.25 C118.68083715 158.28618362 119.73887084 181.36015869 137.5 204.375 C148.05022188 218.19632986 152.47205064 232.98923882 150.9375 250.375 C148.60738197 266.39456146 141.39247077 281.77978231 128.18505859 291.68994141 C122.99233577 295.31299309 117.62086977 298.57787249 111.9375 301.375 C113.00073486 301.8282666 114.06396973 302.2815332 115.15942383 302.74853516 C119.1557784 304.45395003 123.14899024 306.16662162 127.14135742 307.88134766 C128.85992758 308.61831429 130.57931081 309.35338821 132.29956055 310.08642578 C155.86724959 320.13301844 176.10199233 331.52276006 187.01124573 356.03312683 C192.74378872 370.52686687 192.47616679 384.51257743 192.34307575 399.93511653 C192.31777233 403.3703315 192.31569764 406.80556619 192.31097412 410.24085999 C192.29862812 416.72161444 192.26592243 423.20209333 192.22557616 429.6827274 C192.18059464 437.07104546 192.15880568 444.4593779 192.13879442 451.84779918 C192.09718037 467.02368531 192.0269948 482.19931487 191.9375 497.375 C192.76894531 497.34019531 193.60039062 497.30539062 194.45703125 497.26953125 C195.54371094 497.24246094 196.63039063 497.21539062 197.75 497.1875 C198.82894531 497.15269531 199.90789062 497.11789062 201.01953125 497.08203125 C203.9375 497.375 203.9375 497.375 205.79931641 498.75195312 C207.29561376 500.8856693 207.33839449 502.28555144 207.3125 504.875 C207.32023438 505.6484375 207.32796875 506.421875 207.3359375 507.21875 C206.81183015 510.05509566 206.31724947 510.71545079 203.9375 512.375 C201.1100094 512.66923894 198.50291222 512.77726182 195.67434692 512.75252342 C194.38902718 512.75906391 194.38902718 512.75906391 193.07774138 512.76573652 C190.18073934 512.77676271 187.28420631 512.76623662 184.38720703 512.75595093 C182.29960446 512.75940458 180.21200372 512.76416717 178.12440681 512.77013266 C172.36773118 512.78271248 166.6112038 512.77644066 160.85452747 512.76717401 C154.65404544 512.76041232 148.45358968 512.77085038 142.25311279 512.77911377 C130.80172231 512.79171056 119.35039828 512.7905798 107.8990081 512.78237936 C97.32119642 512.77484143 86.74340218 512.77285851 76.16558838 512.7764473 C75.4647385 512.77667645 74.76388862 512.77690561 74.04180087 512.77714171 C71.19703319 512.77807568 68.35226552 512.77903087 65.50749785 512.780021 C38.80536072 512.78920407 12.10325387 512.78086799 -14.59887859 512.76473031 C-38.33741967 512.75049282 -62.07591247 512.75176667 -85.81445312 512.76611328 C-112.46683303 512.78216694 -139.11918614 512.78855289 -165.77157021 512.77927649 C-168.61124292 512.7783143 -171.45091565 512.77737578 -174.29058838 512.7764473 C-174.98982075 512.77621006 -175.68905313 512.77597283 -176.40947436 512.77572841 C-186.98227979 512.77231176 -197.5550659 512.77631469 -208.12786865 512.78388596 C-220.14608627 512.79244923 -232.16423439 512.79006042 -244.18244982 512.77404372 C-250.31943278 512.7661357 -256.45631753 512.76311233 -262.59329987 512.77299118 C-268.20388844 512.78188638 -273.81428715 512.77709123 -279.42485833 512.76105852 C-281.46181876 512.75768865 -283.49879501 512.75945377 -285.53574538 512.76668589 C-288.29051194 512.77572138 -291.04461584 512.76654116 -293.79934692 512.75252342 C-294.60240713 512.75954692 -295.40546734 512.76657042 -296.23286271 512.77380675 C-301.56921264 512.71900035 -301.56921264 512.71900035 -304.05404472 510.98617041 C-305.38781895 508.85525035 -305.46253148 507.37814753 -305.4375 504.875 C-305.44523437 504.1015625 -305.45296875 503.328125 -305.4609375 502.53125 C-304.94526397 499.74054619 -304.36279433 499.04178541 -302.0625 497.375 C-298.94469929 497.00585651 -298.94469929 497.00585651 -295.02009583 497.01423645 C-293.93819309 497.01039154 -293.93819309 497.01039154 -292.83443373 497.00646895 C-290.41128822 497.00151725 -287.98876219 497.01804628 -285.56567383 497.03442383 C-283.83126337 497.0352698 -282.09685184 497.03479554 -280.36244202 497.03309631 C-275.64780034 497.03223378 -270.93338653 497.04990126 -266.21879792 497.07081819 C-261.29404489 497.08954202 -256.36928692 497.09133203 -251.44450378 497.09489441 C-242.11598739 497.10422752 -232.78757618 497.12885841 -223.45910615 497.15894288 C-212.84014823 497.19244753 -202.22118535 497.20896299 -191.60218775 497.22402918 C-169.75556641 497.25540687 -147.90903982 497.30819194 -126.0625 497.375 C-126.12434479 496.80276797 -126.18618958 496.23053595 -126.24990845 495.64096355 C-127.75875074 481.6763004 -129.26109043 467.71095028 -130.75631714 453.7448225 C-131.47957057 446.99075197 -132.20497177 440.23692539 -132.93554688 433.48364258 C-133.64112171 426.96139927 -134.34055573 420.43851412 -135.03631592 413.91521645 C-135.30220933 411.43164717 -135.5701296 408.94829399 -135.84014893 406.46516991 C-136.21918025 402.97627967 -136.59087317 399.48667738 -136.9609375 395.99682617 C-137.07314636 394.97974075 -137.18535522 393.96265533 -137.30096436 392.91474915 C-139.44911302 372.3646411 -139.44911302 372.3646411 -134.0625 364.375 C-129.16907049 358.92975822 -124.38206744 355.68540007 -116.90283203 355.14794922 C-115.80310059 355.15842285 -114.70336914 355.16889648 -113.5703125 355.1796875 C-112.4889502 355.18468262 -111.40758789 355.18967773 -110.29345703 355.19482422 C-108.2610083 355.22213623 -108.2610083 355.22213623 -106.1875 355.25 C-101.85625 355.29125 -97.525 355.3325 -93.0625 355.375 C-93.0625 341.185 -93.0625 326.995 -93.0625 312.375 C-106.0338989 317.91068439 -106.0338989 317.91068439 -118.9921875 323.4765625 C-124.11250058 325.68336162 -129.2383164 327.87342151 -134.3828125 330.0234375 C-151.13656657 337.11806824 -163.87713418 345.88911828 -171.6875 362.91796875 C-174.97711953 371.18874513 -176.20998643 378.12049126 -176.22021484 386.95117188 C-176.22529556 387.90947403 -176.23037628 388.86777618 -176.23561096 389.8551178 C-176.24629388 391.93180942 -176.25492217 394.0085124 -176.26173019 396.08522034 C-176.27353877 399.37193788 -176.29299512 402.6585252 -176.31484985 405.94519043 C-176.37641224 415.2884489 -176.43056396 424.63169225 -176.46386719 433.97509766 C-176.48479642 439.69328697 -176.52008065 445.41123574 -176.56462479 451.12928772 C-176.57879311 453.30775627 -176.58750909 455.48626734 -176.59067917 457.66477966 C-176.59558069 460.70971934 -176.61871787 463.75401836 -176.64599609 466.79882812 C-176.64148689 468.14866539 -176.64148689 468.14866539 -176.6368866 469.52577209 C-176.70653616 474.75372549 -177.1778281 478.4903281 -181.0625 482.375 C-188.19957962 482.96000653 -188.19957962 482.96000653 -191.16174316 480.95184326 C-194.04070615 477.0488525 -193.6215762 473.45337185 -193.58007812 468.71972656 C-193.5870874 467.74022537 -193.59409668 466.76072418 -193.60131836 465.75154114 C-193.61895047 462.50594879 -193.60724584 459.26122664 -193.59375 456.015625 C-193.596446 453.75038486 -193.60032932 451.48514585 -193.60534668 449.21990967 C-193.61125096 444.46176178 -193.60265821 439.70391382 -193.58398438 434.94580078 C-193.56135053 428.8871034 -193.5742129 422.82912092 -193.59827423 416.77045059 C-193.61284073 412.0842568 -193.60807419 407.39822771 -193.59776306 402.7120285 C-193.59511748 400.48121809 -193.59828803 398.25039212 -193.60768127 396.01959991 C-193.68712902 371.81804511 -189.38042082 351.37094709 -172.0625 333.375 C-166.66643334 328.18223884 -160.89435672 324.06655431 -154.27734375 320.57421875 C-153.63255569 320.23253662 -152.98776764 319.89085449 -152.32344055 319.53881836 C-145.35851623 315.91327415 -138.18466611 312.81210526 -130.94165039 309.79003906 C-128.7029365 308.85535045 -126.46945169 307.90889543 -124.23632812 306.9609375 C-122.8075753 306.35870166 -121.3785495 305.75711291 -119.94921875 305.15625 C-119.28476242 304.87511353 -118.62030609 304.59397705 -117.93571472 304.30432129 C-113.29478382 302.375 -113.29478382 302.375 -111.0625 302.375 C-111.0625 301.715 -111.0625 301.055 -111.0625 300.375 C-111.77921875 300.26285156 -112.4959375 300.15070313 -113.234375 300.03515625 C-126.24614305 296.9978789 -136.06682023 286.6342976 -143.05078125 275.8125 C-151.93151411 260.63765551 -154.25451931 244.13887615 -150.2265625 227.0859375 C-146.84529396 216.30672572 -141.2348916 207.27605336 -134.30078125 198.42578125 C-122.78922665 182.73551224 -118.96107627 165.7180665 -118.88671875 146.484375 C-118.86349487 144.14061627 -118.83937655 141.79686627 -118.81445312 139.453125 C-118.77962133 135.80723429 -118.75013639 132.16166048 -118.73657227 128.515625 C-118.56904581 90.74227507 -109.14217872 60.25733984 -82.75 32.625 C-69.7661655 20.08316837 -54.40485751 11.27378516 -37.375 5.5 C-36.11127563 5.07037964 -36.11127563 5.07037964 -34.82202148 4.63208008 C-23.30968433 0.92543526 -12.05392528 -0.01639382 0 0 Z M-76.18359375 49.48828125 C-81.81969778 55.49792824 -85.99362113 62.2369237 -90.0625 69.375 C-90.536875 70.19742188 -91.01125 71.01984375 -91.5 71.8671875 C-98.07214676 84.06673493 -102.21032178 98.86252442 -102.10546875 112.703125 C-102.09926514 113.76950195 -102.09306152 114.83587891 -102.08666992 115.93457031 C-102.07869385 116.73991211 -102.07071777 117.54525391 -102.0625 118.375 C-84.2529977 118.98594451 -68.23259931 118.49320762 -51.0625 113.375 C-50.28938477 113.15569824 -49.51626953 112.93639648 -48.71972656 112.71044922 C-29.34978741 107.15895313 -11.47206082 97.98955928 4.9375 86.375 C5.5140332 85.96813965 6.09056641 85.5612793 6.68457031 85.14208984 C23.84866404 72.85975798 38.30444622 57.71003872 50.6875 40.6875 C51.11844971 40.09904297 51.54939941 39.51058594 51.9934082 38.90429688 C54.43488147 35.48699602 54.43488147 35.48699602 54.9375 31.375 C8.81209086 6.94853498 -38.8180202 12.26033412 -76.18359375 49.48828125 Z M67.9375 42.375 C67.09937531 43.47074499 66.30600511 44.60075656 65.53125 45.7421875 C64.79297974 46.81641968 64.79297974 46.81641968 64.03979492 47.91235352 C63.5110376 48.68377686 62.98228027 49.4552002 62.4375 50.25 C57.68636226 57.08696858 52.6587424 63.31787253 46.9375 69.375 C45.84993658 70.66310702 44.76648087 71.95469534 43.6875 73.25 C17.26588808 103.35975455 -21.45587286 122.94264471 -60.234375 131.078125 C-61.80711182 131.41384521 -61.80711182 131.41384521 -63.41162109 131.75634766 C-65.96108118 132.29996115 -68.51133704 132.83944593 -71.0625 133.375 C-71.15602498 141.44317307 -71.22667604 149.51111199 -71.26974869 157.57969666 C-71.29044279 161.32806829 -71.31841766 165.07606361 -71.36425781 168.82421875 C-71.40837766 172.45528751 -71.43177288 176.08599913 -71.44200897 179.71731567 C-71.45277472 181.7464783 -71.48388881 183.77550132 -71.51568604 185.80444336 C-71.51988293 203.58694711 -66.83759439 219.01708044 -54.40234375 232.09375 C-42.70666523 243.49654843 -28.76865443 249.64294901 -12.4375 249.74609375 C-11.53233643 249.75512222 -10.62717285 249.7641507 -9.69458008 249.77345276 C-7.7851895 249.78789141 -5.87575016 249.79682601 -3.96630859 249.80053711 C-1.09774342 249.81235481 1.76861124 249.86153635 4.63671875 249.91210938 C23.64765589 250.07968774 39.09215055 245.98405714 53.25 232.5625 C57.69705748 227.91106111 61.01840604 223.09496916 63.9375 217.375 C64.57365234 216.14330078 64.57365234 216.14330078 65.22265625 214.88671875 C67.77965874 209.81255073 67.77965874 209.81255073 66.9375 204.375 C66.21046875 204.94347656 65.4834375 205.51195312 64.734375 206.09765625 C59.44246206 210.16157401 54.34968022 213.79210363 48.4375 216.9375 C43.73734522 219.56836586 41.71023733 221.5388377 39.78125 226.515625 C37.90440225 230.65164134 34.27909789 232.84145387 30.1418457 234.48681641 C24.54226702 236.03891296 18.90113032 235.74401747 13.125 235.75 C11.27551758 235.78673828 11.27551758 235.78673828 9.38867188 235.82421875 C1.53999568 235.84936133 -5.50467069 235.35428132 -11.63964844 229.99804688 C-16.74622899 224.37457626 -17.50403806 218.43990295 -17.39453125 211.1328125 C-16.97073489 207.61280979 -15.82528906 205.05971841 -14.03515625 202.03125 C-12.89683654 200.22422294 -12.89683654 200.22422294 -12.0625 197.375 C-10.5 196.375 -10.5 196.375 -8.0625 195.375 C-6.96035156 194.86710938 -5.85820312 194.35921875 -4.72265625 193.8359375 C1.04446104 191.68741644 6.85679642 191.937952 12.9375 192 C14.07445312 191.98839844 15.21140625 191.97679687 16.3828125 191.96484375 C24.32614682 191.99248877 30.66019506 192.45392386 36.8125 197.9375 C37.51375 198.741875 38.215 199.54625 38.9375 200.375 C39.5975 201.035 40.2575 201.695 40.9375 202.375 C48.69400572 201.85878204 55.68450235 195.02285827 60.75 189.5625 C61.82707828 188.17788477 62.88780223 186.78048622 63.9375 185.375 C64.46899658 184.69179687 65.00049316 184.00859375 65.5480957 183.3046875 C71.72754527 173.95888451 70.6061289 163.93080911 70.3125 153.1875 C70.28235211 151.26241166 70.25498486 149.33727767 70.23046875 147.41210938 C70.16487932 142.73193043 70.06162769 138.05397735 69.9375 133.375 C69.04528244 133.0835334 69.04528244 133.0835334 68.13504028 132.78617859 C56.55497148 128.99308105 46.31343045 124.78626384 35.9375 118.375 C35.17179687 118.04886719 34.40609375 117.72273438 33.6171875 117.38671875 C33.06289063 117.05285156 32.50859375 116.71898438 31.9375 116.375 C31.0450213 112.42259431 30.47074795 109.77525614 31.75 105.9375 C33.56218276 103.553049 34.91792598 103.37833175 37.875 102.875 C42.77348092 102.92570891 46.13869426 105.85761159 50.0703125 108.5 C66.04421624 118.94614958 83.43796127 120.02601016 101.9375 119.375 C103.03322274 93.03707188 93.5200973 68.87627071 75.9375 49.375 C72.55505729 45.75498253 72.55505729 45.75498253 68.9375 42.375 C68.6075 42.375 68.2775 42.375 67.9375 42.375 Z M-102.0625 134.375 C-102.11148438 136.01726562 -102.16046875 137.65953125 -102.2109375 139.3515625 C-103.17223745 168.86819861 -108.13480107 191.08593037 -126.18383789 214.89111328 C-133.37127833 224.57505651 -137.08182313 235.2728545 -136.0625 247.375 C-133.75152038 260.85874725 -128.39508332 271.87630387 -117.3125 280.0625 C-105.85271646 287.75420992 -92.70426577 290.37380345 -79.0625 288.375 C-68.29775192 285.3744429 -58.42261423 279.48364193 -52.51953125 269.859375 C-50.11123401 265.35309332 -48.76259254 261.45988265 -48.0625 256.375 C-48.89652344 255.82972656 -49.73054688 255.28445312 -50.58984375 254.72265625 C-64.70734566 245.33553805 -75.28875662 234.41489274 -81.4375 218.3125 C-81.67621826 217.68851318 -81.91493652 217.06452637 -82.16088867 216.42163086 C-85.9254579 205.8576914 -86.38403702 195.20330837 -86.4765625 184.08203125 C-86.49531773 182.64042609 -86.51489421 181.1988314 -86.5352478 179.75724792 C-86.58611596 176.00094845 -86.62598102 172.24461356 -86.66339111 168.48815918 C-86.70371846 164.63980681 -86.7546782 160.79159595 -86.8046875 156.94335938 C-86.90090866 149.42066364 -86.98449637 141.89791074 -87.0625 134.375 C-92.0125 134.375 -96.9625 134.375 -102.0625 134.375 Z M85.9375 135.375 C85.92291748 137.27072754 85.90833496 139.16645508 85.89331055 141.11962891 C85.84131248 147.4380658 85.77593746 153.75625817 85.70178509 160.07447243 C85.65737596 163.89891002 85.6180585 167.72324826 85.59106445 171.54785156 C85.56473298 175.25040804 85.52413009 178.9525759 85.47431374 182.65488815 C85.45784378 184.05555702 85.44620759 185.45629279 85.43988609 186.85704422 C85.32691886 209.62366878 78.90355549 228.02125856 63.125 244.625 C58.22656661 249.39392582 52.85044487 252.98011531 46.9375 256.375 C49.67846781 267.8918735 54.75397787 276.08517751 64.9375 282.375 C77.24100919 289.39669969 89.18945634 290.51318446 102.8125 286.8125 C115.34239889 282.34872352 124.06857702 275.14654162 130.25 263.4375 C135.46565628 252.32467501 136.98552704 240.52472871 132.89453125 228.71875 C130.38673738 222.577214 127.01271619 217.420663 123.01196289 212.16040039 C105.37917035 188.92027885 102.87870158 163.71012113 101.9375 135.375 C96.6575 135.375 91.3775 135.375 85.9375 135.375 Z M-2.0625 211.375 C-2.2341367 215.00739813 -2.2341367 215.00739813 -1.0625 218.375 C3.39809158 221.34872772 7.62836981 220.70430535 12.875 220.6875 C14.37836914 220.71166992 14.37836914 220.71166992 15.91210938 220.73632812 C16.87826172 220.73697266 17.84441406 220.73761719 18.83984375 220.73828125 C20.16230103 220.74275269 20.16230103 220.74275269 21.51147461 220.74731445 C24.44776794 220.29669079 25.82278359 219.44005101 27.9375 217.375 C28.44770728 213.29334173 28.25111802 211.84542703 25.9375 208.375 C21.65718182 206.94822727 17.54707758 207.110344 13.0625 207.0625 C12.16402344 207.03349609 11.26554687 207.00449219 10.33984375 206.97460938 C5.02332964 206.92356456 1.59587892 207.0507655 -2.0625 211.375 Z M-33.0625 263.375 C-33.35382813 264.13683594 -33.64515625 264.89867187 -33.9453125 265.68359375 C-36.35034557 271.74155441 -38.92572825 277.13696442 -42.73046875 282.4375 C-44.12484617 284.33408624 -44.12484617 284.33408624 -44.98828125 286.5 C-46.34727264 288.8720577 -47.58805657 289.29875509 -50.0625 290.375 C-51.27871658 291.23900907 -52.48633217 292.11518913 -53.6875 293 C-60.86985739 297.89320807 -69.09655466 300.9892584 -77.0625 304.375 C-77.0625 309.985 -77.0625 315.595 -77.0625 321.375 C-70.00041204 323.91675884 -62.99448706 325.5477752 -55.625 326.9375 C-54.57634766 327.14568359 -53.52769531 327.35386719 -52.44726562 327.56835938 C-36.1470823 330.68759062 -20.07200549 331.75796225 -3.5 331.6875 C-2.58185516 331.68534485 -1.66371033 331.6831897 -0.71774292 331.68096924 C25.33052607 331.58321654 51.09788454 328.65487182 75.9375 320.375 C75.9375 315.095 75.9375 309.815 75.9375 304.375 C74.205 303.50875 72.4725 302.6425 70.6875 301.75 C69.04587891 300.92242187 69.04587891 300.92242187 67.37109375 300.078125 C65.19024276 298.99638321 62.99596838 297.94098542 60.78515625 296.921875 C46.45671649 290.20945277 38.07277738 280.20032945 32.64892578 265.35864258 C32.29677002 264.3767395 32.29677002 264.3767395 31.9375 263.375 C31.03686829 263.48097 31.03686829 263.48097 30.11804199 263.58908081 C23.87968335 264.27463709 17.74146239 264.52189982 11.46875 264.5078125 C10.50779419 264.50876923 9.54683838 264.50972595 8.5567627 264.51071167 C6.53995701 264.51138735 4.52314907 264.50957613 2.50634766 264.50537109 C-0.55441238 264.50001415 -3.6150257 264.50533706 -6.67578125 264.51171875 C-8.64843782 264.51105786 -10.6210943 264.50977647 -12.59375 264.5078125 C-13.49508667 264.50983673 -14.39642334 264.51186096 -15.32507324 264.51394653 C-21.29097593 264.49227877 -27.1379354 264.07209528 -33.0625 263.375 Z M91.9375 311.375 C91.9375 325.895 91.9375 340.415 91.9375 355.375 C103.00541487 355.50566396 103.00541487 355.50566396 114.07373047 355.58276367 C123.9340826 355.72320707 131.81050734 356.64239139 139.375 363.625 C147.92126121 378.66641972 142.20672552 399.1576826 140.43359375 415.6171875 C140.18806774 417.92119872 139.94288019 420.22524603 139.69801331 422.52932739 C139.05820782 428.54237445 138.41445957 434.55499228 137.76965332 440.56750488 C136.73322833 450.23834705 135.70298793 459.90985015 134.67256355 469.58133316 C134.31254739 472.95513691 133.9508964 476.32876233 133.588974 479.70236206 C133.3697522 481.75323173 133.15055814 483.80410437 132.93139648 485.85498047 C132.83010941 486.79513 132.72882233 487.73527954 132.62446594 488.70391846 C132.53335541 489.55861725 132.44224487 490.41331604 132.34837341 491.29391479 C132.26855445 492.03822187 132.18873549 492.78252895 132.10649776 493.54939079 C131.9067745 495.40134512 131.9067745 495.40134512 131.9375 497.375 C146.7875 497.375 161.6375 497.375 176.9375 497.375 C176.98281225 483.01380598 177.01945149 468.65265999 177.04112434 454.29141045 C177.05152993 447.62181433 177.06562986 440.95228377 177.08837891 434.28271484 C177.1102227 427.83769349 177.12209285 421.3927217 177.12725449 414.94766617 C177.13092961 412.4974909 177.13810582 410.04731813 177.14896011 407.59716415 C177.24912773 384.03388672 176.69459004 361.80239045 159.4296875 343.70825195 C148.63976226 333.60643813 134.47484911 328.34532924 121.05615234 322.72387695 C117.64763345 321.29579696 114.24719092 319.84971209 110.84765625 318.40039062 C108.68533178 317.4833464 106.52258678 316.56729296 104.359375 315.65234375 C103.34180115 315.22122787 102.32422729 314.790112 101.27581787 314.34593201 C100.34013977 313.95454544 99.40446167 313.56315887 98.44042969 313.15991211 C97.61661804 312.81399521 96.7928064 312.46807831 95.94403076 312.11167908 C93.98083746 311.26011771 93.98083746 311.26011771 91.9375 311.375 Z M67.4375 338.36328125 C66.56013184 338.5737207 65.68276367 338.78416016 64.77880859 339.00097656 C63.84117676 339.2275293 62.90354492 339.45408203 61.9375 339.6875 C54.42941714 341.44664319 46.94135177 342.99176068 39.3125 344.125 C38.54550781 344.24012939 37.77851563 344.35525879 36.98828125 344.47387695 C23.75700419 346.35048282 10.59055379 346.6165257 -2.75 346.625 C-4.18520996 346.62601212 -4.18520996 346.62601212 -5.64941406 346.62704468 C-20.67197108 346.6102504 -35.23412639 345.96669004 -50.0625 343.375 C-51.26535645 343.16617187 -52.46821289 342.95734375 -53.70751953 342.7421875 C-61.5091268 341.36804637 -69.28965295 339.90299557 -77.0625 338.375 C-77.0625 343.985 -77.0625 349.595 -77.0625 355.375 C-26.5725 355.375 23.9175 355.375 75.9375 355.375 C75.9375 349.435 75.9375 343.495 75.9375 337.375 C72.68770441 337.375 70.51356476 337.60612073 67.4375 338.36328125 Z M-122.0625 376.375 C-122.5437559 379.59648879 -122.5437559 379.59648879 -122.02929688 383.17016602 C-121.96393486 383.85732224 -121.89857285 384.54447847 -121.83123016 385.25245762 C-121.68116961 386.78998075 -121.51830432 388.32629082 -121.34481812 389.8613472 C-121.04725526 392.51073336 -120.78725692 395.16196566 -120.53344727 397.81588745 C-119.92426028 404.09874502 -119.26043698 410.37536765 -118.59375 416.65234375 C-118.35078224 418.95876812 -118.1079874 421.26521071 -117.86535645 423.57167053 C-117.35994361 428.36825541 -116.85199455 433.16456322 -116.34228516 437.96069336 C-115.68791848 444.12060316 -115.04074246 450.28124502 -114.39548492 456.44211483 C-113.89760779 461.18714714 -113.39564098 465.93173991 -112.8924408 470.6762104 C-112.65185765 472.94997446 -112.4126482 475.22388429 -112.17481995 477.49793816 C-111.84407325 480.65525899 -111.50775658 483.81193672 -111.16992188 486.96850586 C-111.07223007 487.91225067 -110.97453827 488.85599548 -110.87388611 489.82833862 C-110.7993812 493.93684551 -110.7993812 493.93684551 -109.0625 497.375 C-106.16731411 497.47295178 -103.29597921 497.50492093 -100.40037537 497.49525452 C-99.48072166 497.49610894 -98.56106795 497.49696337 -97.61354595 497.49784368 C-94.50723723 497.4995013 -91.40098155 497.49397252 -88.29467773 497.48852539 C-86.07780966 497.48824355 -83.8609415 497.48840118 -81.64407349 497.4889679 C-75.60506099 497.48925601 -69.56606817 497.4833571 -63.52706027 497.47639394 C-57.22361267 497.47016264 -50.92016468 497.46955678 -44.61671448 497.46836853 C-34.03003605 497.46560883 -23.44336411 497.45935332 -12.85668945 497.45043945 C-1.95043982 497.44126603 8.95580784 497.43418486 19.86206055 497.42993164 C20.86977747 497.42953756 20.86977747 497.42953756 21.89785231 497.42913551 C25.26799769 497.42783051 28.63814309 497.42656679 32.0082885 497.42532361 C59.98469739 497.41485771 87.96109819 497.39725698 115.9375 497.375 C117.21102745 489.41398487 118.33942304 481.46452889 119.19018555 473.44750977 C119.29937317 472.44087784 119.40856079 471.43424591 119.52105713 470.39710999 C119.87541583 467.1205546 120.22519963 463.84353443 120.57421875 460.56640625 C120.82034615 458.26765094 121.06650658 455.96889917 121.31269836 453.67015076 C121.82510526 448.87710362 122.33480894 444.08377718 122.84301758 439.2902832 C123.49449662 433.15067033 124.15633117 427.0122201 124.82059002 420.87397861 C125.33131455 416.13822926 125.83478862 411.40172948 126.33625221 406.66499138 C126.57721114 404.40050881 126.8208397 402.13630863 127.06720543 399.87240791 C127.41011395 396.71460493 127.74280463 393.55588281 128.07299805 390.39672852 C128.17630936 389.46624695 128.27962067 388.53576538 128.38606262 387.5770874 C129.0889152 380.91810282 129.0889152 380.91810282 127.9375 374.375 C126.15123527 372.36095369 124.66890889 371.47880278 121.99181408 371.09886497 C119.43705448 370.9798507 116.89838202 370.96582214 114.34083557 370.98059082 C113.35680958 370.97449972 112.37278359 370.96840861 111.35893863 370.96213293 C108.05240847 370.94544671 104.74626103 370.95028682 101.43969727 370.95507812 C99.07286171 370.9477411 96.70602975 370.93915595 94.33920288 370.92941284 C88.57217007 370.90946392 82.80525601 370.90381832 77.03819127 370.90560073 C72.35105508 370.90690799 67.66395027 370.90310605 62.97681999 370.89567566 C61.62706516 370.89357648 60.27731033 370.89147888 58.9275555 370.88938284 C57.91986422 370.88781755 57.91986422 370.88781755 56.89181554 370.88622063 C44.18481577 370.86731594 31.47787373 370.86836922 18.77086573 370.87518996 C7.14435943 370.88076623 -4.48192657 370.85993695 -16.10838138 370.82682949 C-28.04487215 370.79310282 -39.98125736 370.77792283 -51.91779667 370.78254652 C-58.61991034 370.78479218 -65.32182037 370.77953411 -72.02389336 370.75465393 C-78.32521061 370.73245132 -84.6260682 370.73421097 -90.92738724 370.75458145 C-93.24253888 370.7580029 -95.55772107 370.75285395 -97.87283134 370.73859787 C-101.02871304 370.72050254 -104.18301915 370.73308312 -107.33885193 370.75354004 C-108.25927778 370.74102219 -109.17970363 370.72850434 -110.12802118 370.71560717 C-115.78259708 370.79442089 -118.56300117 371.51824766 -122.0625 376.375 Z " fill="#000000" transform="translate(305.0625,-0.375)"/>
<path d="M0 0 C1.05960937 0.36222656 2.11921875 0.72445313 3.2109375 1.09765625 C23.62107957 8.8367204 41.8828796 26.10183756 50.90039062 45.98535156 C59.64761502 66.7476686 61.63005357 90.53601753 54 112 C53.57589844 113.19496094 53.15179688 114.38992187 52.71484375 115.62109375 C48.46463872 126.43011099 42.41170339 135.94309605 34 144 C34.60328125 144.38671875 35.2065625 144.7734375 35.828125 145.171875 C45.85167464 151.70334928 45.85167464 151.70334928 48 156 C48.54724071 161.69130337 47.59333707 164.56117185 44 169 C40.93752155 170.53123922 37.72544175 170.17373537 34.36352539 170.19287109 C33.17991676 170.20513733 33.17991676 170.20513733 31.97239685 170.21765137 C29.34749093 170.24255355 26.72264005 170.25905063 24.09765625 170.2734375 C23.19647001 170.27876118 22.29528378 170.28408485 21.36678886 170.28956985 C16.57925136 170.31634638 11.7917401 170.33569037 7.00415039 170.35009766 C3.07324401 170.36333167 -0.8571302 170.3909791 -4.7878418 170.43212891 C-9.55594332 170.48203811 -14.32356939 170.5062916 -19.09192085 170.51332474 C-20.8932673 170.51995396 -22.6946067 170.53495189 -24.49580193 170.55921555 C-40.18830841 170.75821524 -56.16945693 168.76669768 -70 160.75 C-71.0374939 160.17258057 -71.0374939 160.17258057 -72.09594727 159.58349609 C-93.03487262 147.5856358 -107.4555293 127.8185081 -114.375 104.875 C-118.44100652 88.76059326 -117.90372186 69.53103301 -112 54 C-111.62617187 52.95199219 -111.25234375 51.90398438 -110.8671875 50.82421875 C-106.39261741 39.16366688 -99.57089969 29.97241932 -91 21 C-90.45988281 20.38511719 -89.91976562 19.77023438 -89.36328125 19.13671875 C-67.77217088 -4.52104702 -29.245659 -10.2527885 0 0 Z M-80.25 32.6875 C-94.66876845 47.34530485 -100.3125 64.85155132 -100.3125 84.99609375 C-100.05452332 103.73458146 -92.98927241 120.11989483 -79.7734375 133.3515625 C-64.51790516 147.91952155 -47.51050453 154.56937127 -26.359375 154.29296875 C-25.11117981 154.28872391 -23.86298462 154.28447906 -22.57696533 154.28010559 C-18.63441354 154.26346429 -14.69239435 154.22583888 -10.75 154.1875 C-8.05860676 154.17071983 -5.36719926 154.15854278 -2.67578125 154.14648438 C3.88299076 154.11360852 10.44145731 154.06355624 17 154 C16.67773438 153.24589844 16.35546875 152.49179688 16.0234375 151.71484375 C14.70430008 148.21560516 14.60844098 145.7198107 15 142 C17.00826708 138.06714364 19.6585972 135.32554889 22.8125 132.3125 C35.17724284 120.22355068 41.888799 103.15349568 42.4050293 86.07177734 C42.62847839 66.22344934 37.09625167 48.56576155 23.19995117 34.07666016 C-6.02085159 4.82085044 -50.40789498 3.75026949 -80.25 32.6875 Z " fill="#000000" transform="translate(116,4)"/>
<path d="M0 0 C6.2851101 4.7274485 10.30149502 10.28241799 12 18 C13.14870812 28.5178587 11.73075787 36.31778714 5.375 44.75 C-0.24447425 50.89853417 -8.06368827 53.6128383 -16.1875 54.25 C-24.70798243 53.69127984 -31.87205168 51.04904769 -38 45 C-44.04046021 37.75144775 -46.33341432 31.36810796 -45.875 22 C-45.29598359 16.59811754 -43.9458087 12.54101197 -41 8 C-40.46375 7.13375 -39.9275 6.2675 -39.375 5.375 C-28.89123243 -5.10876757 -12.93693283 -7.82850294 0 0 Z M-28 18 C-30.17666691 22.27559571 -30.2446187 25.13663988 -28.9375 29.75 C-26.57884852 33.70644765 -24.62519538 36.14888402 -20.14453125 37.6015625 C-16.32751062 38.3546304 -13.6619623 38.18201422 -10.1875 36.375 C-6.96138522 33.9712282 -5.43787722 32.72156456 -4 29 C-3.43060273 25.05431753 -3.61014203 21.95298615 -5.125 18.25 C-8.59829296 14.08204845 -11.54984082 12.230184 -16.9375 11.375 C-21.89931282 11.66070899 -25.02493785 14.15040035 -28 18 Z " fill="#000000" transform="translate(325,409)"/>
<path d="M0 0 C4.0743356 0.84881992 5.54405875 2.30225596 8 5.625 C8.625 8.625 8.625 8.625 8 11.625 C5.54405875 14.94774404 4.0743356 16.40118008 0 17.25 C-4.0743356 16.40118008 -5.54405875 14.94774404 -8 11.625 C-8.625 8.625 -8.625 8.625 -8 5.625 C-5.54405875 2.30225596 -4.0743356 0.84881992 0 0 Z " fill="#000000" transform="translate(117,78.375)"/>
<path d="M0 0 C4.0743356 0.84881992 5.54405875 2.30225596 8 5.625 C8.625 8.625 8.625 8.625 8 11.625 C5.54405875 14.94774404 4.0743356 16.40118008 0 17.25 C-4.0743356 16.40118008 -5.54405875 14.94774404 -8 11.625 C-8.625 8.625 -8.625 8.625 -8 5.625 C-5.54405875 2.30225596 -4.0743356 0.84881992 0 0 Z " fill="#000000" transform="translate(87,78.375)"/>
<path d="M0 0 C4.0743356 0.84881992 5.54405875 2.30225596 8 5.625 C8.625 8.625 8.625 8.625 8 11.625 C5.54405875 14.94774404 4.0743356 16.40118008 0 17.25 C-4.0743356 16.40118008 -5.54405875 14.94774404 -8 11.625 C-8.625 8.625 -8.625 8.625 -8 5.625 C-5.54405875 2.30225596 -4.0743356 0.84881992 0 0 Z " fill="#000000" transform="translate(57,78.375)"/>
</svg>
