<?xml version="1.0" encoding="UTF-8"?>
<svg version="1.1" xmlns="http://www.w3.org/2000/svg" width="512" height="512">
<path d="M0 0 C1.07344965 -0.00445784 2.14689929 -0.00891569 3.25287771 -0.01350862 C5.02074062 -0.01323207 5.02074062 -0.01323207 6.82431793 -0.01294994 C8.70334549 -0.01846498 8.70334549 -0.01846498 10.62033319 -0.02409142 C14.09981477 -0.03410186 17.5792791 -0.03782668 21.05877304 -0.04048073 C24.81084932 -0.04438671 28.56291198 -0.05396495 32.31497955 -0.0626936 C41.3783333 -0.08245129 50.44168815 -0.09252403 59.50505805 -0.10142139 C63.77520047 -0.10580604 68.04534165 -0.11117245 72.31548309 -0.11641026 C86.51451866 -0.133423 100.71355346 -0.14791605 114.91259766 -0.155159 C118.59691621 -0.15706884 122.28123476 -0.15898918 125.96555328 -0.16094494 C126.8812529 -0.16142868 127.79695252 -0.16191242 128.74040061 -0.16241082 C143.5662899 -0.17070691 158.3920984 -0.1960365 173.21795243 -0.22852562 C188.44618574 -0.26162382 203.67437803 -0.27961031 218.9026475 -0.28280324 C227.44992743 -0.28496594 235.99708959 -0.2936793 244.54433441 -0.31926441 C251.82543222 -0.34100929 259.10638365 -0.34900332 266.38751024 -0.33929763 C270.09942755 -0.33476364 273.8110431 -0.336586 277.5229187 -0.35605907 C281.55621273 -0.37703459 285.58884238 -0.36667102 289.62216949 -0.35352612 C291.36326374 -0.36997998 291.36326374 -0.36997998 293.13953161 -0.38676625 C305.03398713 -0.29349753 315.08212306 2.76138319 323.73117828 11.13422108 C332.81428061 20.55608713 336.61789661 35.20482679 340.89133453 47.27093983 C341.36313448 48.59211117 341.83538559 49.91312147 342.30805206 51.23398304 C343.29909786 54.00560963 344.28769903 56.7780887 345.27411652 59.55136585 C347.82599459 66.72554617 350.39171247 73.89477985 352.95774078 81.06390858 C353.20912497 81.766695 353.46050915 82.46948143 353.71951103 83.19356441 C358.44533176 96.40120647 363.28783712 109.56320824 368.2763443 122.674016 C368.64011673 123.63783695 368.64011673 123.63783695 369.0112381 124.62112904 C369.63788734 126.28101366 370.27006711 127.93880764 370.90280914 129.59637928 C371.73117828 132.13422108 371.73117828 132.13422108 371.73117828 135.13422108 C373.28965485 135.04720936 373.28965485 135.04720936 374.87961578 134.95843983 C383.4205334 134.62213479 390.70763411 134.56336441 397.73117828 140.13422108 C404.12357853 146.88102545 405.10468939 152.43610415 405.00070953 161.61468983 C404.56144049 167.35065225 403.07195345 170.95471017 398.86008453 174.87640858 C392.97690198 179.52512372 388.26434374 181.3940778 380.68039703 181.32953358 C380.02159042 181.32670368 379.36278381 181.32387379 378.68401337 181.32095814 C376.59537767 181.30983032 374.50718272 181.28474055 372.41867828 181.25922108 C370.99615847 181.24918167 369.57363188 181.2400575 368.15110016 181.23187733 C364.67765147 181.20991555 361.20445795 181.17543754 357.73117828 181.13422108 C357.49151085 181.97700359 357.49151085 181.97700359 357.24700165 182.83681202 C355.06882813 190.30898885 352.48327341 197.6098218 349.83664703 204.92718983 C349.36190504 206.24454112 348.88732444 207.56195059 348.4128952 208.87941456 C347.42201194 211.62912424 346.42922357 214.37813619 345.43503571 217.12665272 C344.17767873 220.6031785 342.92503732 224.08138051 341.6738615 227.56013489 C340.69505766 230.27990643 339.71369831 232.99875082 338.73163033 235.71734524 C338.04911801 237.60801614 337.36864773 239.49942383 336.68825531 241.39085865 C334.4036286 247.69734159 332.05729203 253.97735143 329.60739899 260.22137928 C329.13671494 261.42438175 328.66603088 262.62738422 328.18108368 263.86684132 C323.6389493 274.10259739 316.00486439 280.21989615 305.72891998 284.27044392 C299.43339107 286.48894492 293.64258016 286.69421676 287.0173111 286.64215565 C285.78244083 286.64839561 284.54757057 286.65463557 283.27528 286.66106462 C279.8777773 286.67417997 276.48116978 286.66956808 273.08372307 286.65711975 C269.40811335 286.64802136 265.7325785 286.66206257 262.05698395 286.67303944 C254.8684594 286.69077846 247.6801024 286.68700537 240.49157143 286.67538887 C234.64666246 286.66633658 228.80180027 286.6651383 222.95688629 286.66948414 C221.70664716 286.67040354 221.70664716 286.67040354 220.43115067 286.67134151 C218.73765658 286.67262048 217.0441625 286.67391733 215.35066843 286.67523187 C199.48974305 286.68662414 183.62891031 286.67354524 167.76800013 286.65203041 C154.17364856 286.63416065 140.57943364 286.63726514 126.98508453 286.65570545 C111.17894366 286.67713611 95.37288387 286.68552563 79.5667305 286.6732564 C77.87964377 286.67198227 76.19255703 286.67072478 74.50547028 286.66948414 C73.67550167 286.66886704 72.84553307 286.66824993 71.9904139 286.66761413 C66.15597596 286.66416781 60.32158967 286.66997405 54.48715973 286.67940235 C47.37196477 286.69064815 40.2569462 286.68752827 33.14177132 286.66627938 C29.51500624 286.65580349 25.88853473 286.65158743 22.26177216 286.66487598 C18.32269909 286.67909002 14.3841014 286.66206022 10.44504547 286.64215565 C8.74176275 286.65553998 8.74176275 286.65553998 7.00407028 286.6691947 C-4.96126028 286.55223298 -15.36752864 282.61681646 -24.13600922 274.38031483 C-27.991983 270.00164237 -30.23151408 265.16612549 -32.27272797 259.75531483 C-32.56487686 258.99232578 -32.85702576 258.22933674 -33.15802765 257.44322681 C-37.61221054 245.7160112 -41.83912423 233.90217814 -46.08644867 222.09882069 C-47.34176314 218.61031587 -48.60125988 215.12333747 -49.86191273 211.6367588 C-50.8441819 208.91863973 -51.82423549 206.19972586 -52.80363274 203.48057079 C-53.26739619 202.19383251 -53.73183898 200.90733884 -54.19700813 199.62110806 C-58.6207838 187.38210067 -58.6207838 187.38210067 -60.26882172 181.13422108 C-61.12524261 181.16040516 -61.98166351 181.18658924 -62.86403656 181.21356678 C-66.08825536 181.29956046 -69.31188353 181.36184012 -72.53688812 181.40887928 C-73.92380436 181.43378913 -75.31059258 181.4677311 -76.69704437 181.51141834 C-85.42894188 181.77936466 -93.01185006 181.56245371 -100.26882172 176.13422108 C-106.61058388 169.31465491 -107.64301362 163.8924334 -107.53835297 154.65375233 C-107.09908392 148.9177899 -105.60959688 145.31373199 -101.39772797 141.39203358 C-95.07609159 136.39686533 -90.0411406 134.82137006 -81.95632172 135.00922108 C-81.21575531 135.01824451 -80.4751889 135.02726795 -79.71218109 135.03656483 C-77.89758704 135.05997894 -76.083161 135.09584492 -74.26882172 135.13422108 C-74.0822979 134.07492893 -74.0822979 134.07492893 -73.89200592 132.99423695 C-73.24058823 130.00464746 -72.33287324 127.25299825 -71.29787445 124.37396717 C-70.88855682 123.23034718 -70.4792392 122.08672718 -70.05751801 120.90845203 C-69.61033417 119.67069019 -69.16315033 118.43292835 -68.70241547 117.15765858 C-68.23133137 115.84628915 -67.76051194 114.53482462 -67.28993988 113.22327137 C-66.02816955 109.71013521 -64.76155139 106.19876761 -63.49328995 102.68797016 C-62.70681832 100.51059593 -61.9211994 98.33291574 -61.13579559 96.15515614 C-58.00524961 87.47663945 -54.86506694 78.80164732 -51.71804047 70.12909412 C-50.38014002 66.44205979 -49.04514058 62.7539789 -47.71022797 59.0658617 C-45.88440424 54.02662873 -44.04683496 48.99186095 -42.19756317 43.96118641 C-41.54417565 42.18015676 -40.89409123 40.39791136 -40.24755096 38.61438465 C-30.08208277 10.61230487 -30.08208277 10.61230487 -16.60866547 3.78656483 C-11.03659681 1.49701084 -6.04443062 0.0116546 0 0 Z M-16.60744476 24.72186756 C-19.91296532 29.68843917 -21.86758974 35.13672183 -23.85085297 40.73187733 C-24.46899872 42.4236359 -24.46899872 42.4236359 -25.09963226 44.14957142 C-26.21014735 47.19696067 -27.30861786 50.2483469 -28.40145493 53.30210972 C-29.54327392 56.48406134 -30.70016363 59.66052442 -31.85549164 62.83759022 C-33.74499384 68.03931307 -35.62535537 73.244254 -37.49929047 78.45160389 C-40.12114054 85.73596839 -42.77043213 93.01017872 -45.42507172 100.28265858 C-46.97829724 104.54526409 -48.52998016 108.80842962 -50.08132172 113.07172108 C-50.45125244 114.087029 -50.82118317 115.10233692 -51.20232391 116.14841175 C-52.23443953 118.98489734 -53.26214216 121.82293852 -54.28835297 124.66156483 C-54.59353851 125.49839802 -54.89872406 126.33523121 -55.21315765 127.19742298 C-56.72116229 131.06664411 -56.72116229 131.06664411 -57.26882172 135.13422108 C-11.39882172 135.13422108 34.47117828 135.13422108 81.73117828 135.13422108 C83.38117828 131.17422108 85.03117828 127.21422108 86.73117828 123.13422108 C92.14396107 114.76051105 100.25050986 108.99452364 109.96733856 106.57812977 C113.26130396 106.04907598 116.41241559 105.99149626 119.74948883 105.97308826 C120.77987526 105.96564091 120.77987526 105.96564091 121.83107758 105.9580431 C124.09336112 105.94349435 126.35557448 105.93663061 128.61789703 105.93109608 C129.78381347 105.92685501 129.78381347 105.92685501 130.97328377 105.92252827 C135.08911857 105.90756263 139.20491858 105.89831746 143.32077789 105.8939867 C147.54933457 105.88851547 151.77756709 105.86450861 156.00602245 105.83601475 C159.2773554 105.81728584 162.54861197 105.81217728 165.81999397 105.81065083 C167.37754647 105.8076453 168.93509831 105.79968871 170.49259758 105.78646564 C184.3111481 105.67754935 195.08881857 107.36131405 205.67258453 116.88031483 C209.34231715 120.69271523 211.46543805 124.49888913 213.43430328 129.40765858 C213.86903961 130.48193104 214.30377594 131.5562035 214.7516861 132.66302967 C215.23653473 133.88626942 215.23653473 133.88626942 215.73117828 135.13422108 C216.84538147 135.13968952 216.84538147 135.13968952 217.98209381 135.14526844 C224.98600814 135.18315204 231.98945227 135.24000821 238.99301529 135.31812382 C242.59358022 135.3576156 246.19389999 135.38979529 249.79465485 135.40521717 C253.27034419 135.42037325 256.74535962 135.45479818 260.2207489 135.5025301 C262.19040949 135.52456479 264.16026009 135.52669572 266.13004303 135.52856922 C267.33098602 135.54828785 268.53192902 135.56800648 269.76926422 135.58832264 C270.82627533 135.59720509 271.88328644 135.60608753 272.97232819 135.61523914 C276.42040383 136.26387495 277.61271931 137.38384938 279.73117828 140.13422108 C280.23117828 143.13422108 280.23117828 143.13422108 279.73117828 146.13422108 C277.59519433 148.93114626 276.41418127 150.01344916 272.91142035 150.63282442 C271.26288934 150.63185031 271.26288934 150.63185031 269.58105469 150.63085651 C268.31108469 150.63983731 267.0411147 150.6488181 265.73266077 150.65807104 C264.32050226 150.64782423 262.90834632 150.63721638 261.49619293 150.62628651 C259.99828452 150.62929632 258.50037878 150.63407196 257.00248098 150.64046526 C252.88033132 150.65300212 248.7585696 150.64065101 244.63644671 150.62439036 C240.19330389 150.61124263 235.75020804 150.62117736 231.30706024 150.62849903 C223.60613299 150.63818919 215.9053188 150.633702 208.20439911 150.62007618 C197.06575589 150.60073715 185.92724019 150.60714072 174.78859371 150.62064999 C156.71199455 150.64224394 138.63542542 150.64894182 120.558815 150.64349842 C119.47653309 150.64317779 118.39425117 150.64285715 117.27917284 150.64252681 C108.49715305 150.63981391 99.71513357 150.63638246 90.93311405 150.63292122 C83.25658998 150.62992615 75.58006588 150.62721795 67.90354156 150.62494373 C66.28209123 150.62445547 66.28209123 150.62445547 64.62788433 150.62395734 C46.6198425 150.61901942 28.61184243 150.62967482 10.60381365 150.65151548 C-0.51025614 150.66423336 -11.62415427 150.66272957 -22.73821485 150.64306462 C-30.34967344 150.63048278 -37.96104479 150.63189555 -45.57250321 150.64443815 C-49.9679475 150.65116885 -54.36313753 150.6511955 -58.75855827 150.63385677 C-62.77911181 150.61809787 -66.79921987 150.62054639 -70.81976384 150.63770682 C-72.2773129 150.64063553 -73.73489432 150.63672956 -75.19240266 150.62544864 C-77.16778662 150.61111499 -79.14331155 150.62361638 -81.11869812 150.63758564 C-82.76722912 150.63661153 -82.76722912 150.63661153 -84.44906378 150.63561773 C-87.9518247 151.25499299 -89.13283777 152.33729589 -91.26882172 155.13422108 C-91.85702196 158.66342251 -91.8262271 160.34286734 -89.7506485 163.28958607 C-86.30330149 165.8518507 -83.19004318 165.69189691 -79.0595932 165.64838123 C-78.23477448 165.65550632 -77.40995575 165.66263142 -76.56014252 165.66997242 C-73.83648999 165.68925612 -71.11361362 165.68097423 -68.38991547 165.67328358 C-66.49708672 165.68318758 -64.60426761 165.6951277 -62.71146393 165.70901966 C-57.72968702 165.74140472 -52.74813005 165.75177623 -47.76625824 165.75586414 C-39.78845201 165.76461627 -31.8108266 165.80003578 -23.83316994 165.84803867 C-21.0439472 165.86065229 -18.25495144 165.85986341 -15.46570587 165.85776234 C-13.76002068 165.86434117 -12.05433707 165.87134714 -10.3486557 165.87884998 C-9.18204155 165.87266399 -9.18204155 165.87266399 -7.99185944 165.86635303 C-4.20907616 165.89488955 -2.49624811 165.98260348 0.73117828 168.13422108 C1.56689829 171.60567341 2.08816555 174.09071983 0.91867828 177.50922108 C-0.26882172 179.13422108 -0.26882172 179.13422108 -2.26882172 180.13422108 C-5.32924112 180.29167934 -8.37024071 180.39288985 -11.43288422 180.45062733 C-12.79369614 180.48179897 -12.79369614 180.48179897 -14.18199921 180.51360035 C-17.08586152 180.57909243 -19.98981576 180.63797921 -22.89382172 180.69672108 C-24.85997714 180.73990662 -26.82612319 180.78352092 -28.79225922 180.82758045 C-33.61768534 180.93477347 -38.44320412 181.03604189 -43.26882172 181.13422108 C-38.41616898 195.97768777 -33.289578 210.70966717 -27.95265961 225.38593006 C-27.11524445 227.69444005 -26.28263193 230.00469735 -25.45461273 232.31659412 C-24.23495454 235.72184156 -23.00152905 239.12181846 -21.76491547 242.52093983 C-21.2209034 244.05085812 -21.2209034 244.05085812 -20.66590118 245.61168385 C-17.3429028 254.65542575 -13.89245558 263.38875699 -5.19850922 268.29437733 C-1.05599297 270.09729432 2.64764019 270.256476 7.15207672 270.24774647 C9.13086823 270.24756519 9.13086823 270.24756519 11.14963531 270.24738026 C12.54660846 270.24234519 13.94358113 270.23717864 15.34055328 270.23187733 C16.61430817 270.23087025 17.88806305 270.22986317 19.20041656 270.22882557 C23.96067962 270.22359171 28.72092985 270.20963046 33.48117828 270.19672108 C49.44492828 270.16578358 49.44492828 270.16578358 65.73117828 270.13422108 C65.73117828 240.76422108 65.73117828 211.39422108 65.73117828 181.13422108 C43.95117828 180.63922108 43.95117828 180.63922108 21.73117828 180.13422108 C17.73117828 177.13422108 17.73117828 177.13422108 17.19992828 175.19672108 C17.21024078 174.51609608 17.22055328 173.83547108 17.23117828 173.13422108 C17.21570953 172.11328358 17.21570953 172.11328358 17.19992828 171.07172108 C17.97083596 168.26017542 19.25120163 167.61329177 21.73117828 166.13422108 C24.55093622 165.75981623 24.55093622 165.75981623 27.88130188 165.76063347 C29.78625687 165.75014885 29.78625687 165.75014885 31.7296958 165.73945242 C33.14185312 165.74684615 34.55400906 165.7545084 35.96616364 165.76241016 C37.46407039 165.7598363 38.96197535 165.75593602 40.45987558 165.75082058 C44.58196153 165.74052439 48.70383413 165.74886484 52.82590985 165.76011741 C57.26904919 165.76895424 61.71215781 165.7604728 66.15529633 165.75391102 C73.8562031 165.74474576 81.55705031 165.74608985 89.25795746 165.75409603 C100.39659011 165.76531233 111.53513762 165.75630042 122.67376286 165.74153423 C140.7503543 165.71775043 158.82693524 165.70439481 176.90354156 165.70038319 C177.98582348 165.70013832 179.06810539 165.69989345 180.18318373 165.69964116 C192.26101073 165.69709465 204.33883692 165.69652873 216.41666412 165.69757557 C220.79738108 165.6979086 225.17809804 165.69819399 229.558815 165.69843006 C230.63978189 165.69849285 231.72074878 165.69855564 232.83447224 165.69862033 C250.84251869 165.6992246 268.85051667 165.68436677 286.85854292 165.65759701 C297.9726039 165.6417659 309.08650871 165.63956103 320.20057142 165.65473103 C327.81203604 165.66417483 335.42340628 165.65947375 343.03485978 165.6435172 C347.43029909 165.6347958 351.82548799 165.63274708 356.22091484 165.64804363 C360.24147656 165.66192442 364.26158375 165.65758764 368.28212041 165.63852262 C369.7396661 165.63489732 371.19724737 165.63810057 372.65475923 165.64867229 C374.63015217 165.66203948 376.60567293 165.6485783 378.58105469 165.63364983 C379.68007535 165.63375716 380.77909602 165.6338645 381.91142035 165.63397509 C385.41357204 165.01327842 386.59527066 163.93081989 388.73117828 161.13422108 C389.31959986 157.60369161 389.28793454 155.92486417 387.21201324 152.97687244 C383.76553291 150.41698362 380.66441623 150.59148696 376.53781891 150.6517992 C375.71460648 150.6478867 374.89139404 150.64397419 374.04323578 150.63994312 C372.25845352 150.63397138 370.47362256 150.63713231 368.68886566 150.64836597 C365.86429229 150.66561234 363.04074377 150.65812927 360.21616364 150.64410877 C354.22109892 150.61875098 348.22627487 150.62428214 342.23117828 150.63422108 C335.2840669 150.64573831 328.33745234 150.64464136 321.39040375 150.61015797 C318.60710728 150.60305322 315.82459366 150.61975453 313.04135895 150.63727283 C311.33574754 150.63156599 309.63013935 150.62474922 307.92453766 150.61664295 C307.15039017 150.6279575 306.37624268 150.63927204 305.57863617 150.65092945 C302.07593749 150.61108653 300.09940043 150.40771974 297.25034332 148.29156971 C295.17442203 145.34357798 295.14275671 143.66475055 295.73117828 140.13422108 C297.79019495 137.50647042 298.99138735 136.28366971 302.30020905 135.61523914 C303.26839569 135.6063567 304.23658234 135.59747425 305.23410797 135.58832264 C306.3349472 135.56860401 307.43578644 135.54888538 308.56998444 135.52856922 C309.75239716 135.52734058 310.93480988 135.52611195 312.15305328 135.52484608 C313.9757373 135.50004169 313.9757373 135.50004169 315.83524323 135.47473621 C319.71727241 135.42614145 323.59890952 135.40485868 327.48117828 135.38422108 C330.11270855 135.35607118 332.74422046 135.32614515 335.37570953 135.29437733 C341.827461 135.22037912 348.27910168 135.16880386 354.73117828 135.13422108 C352.50076979 127.3168803 349.85110925 119.68564698 347.08274078 112.04437733 C346.62874954 110.78534683 346.17496838 109.52624056 345.72138214 108.26706409 C344.27032437 104.2421618 342.81357816 100.21933041 341.35617828 96.19672108 C340.85673174 94.81738328 340.35730145 93.43803959 339.85788727 92.05869007 C337.8672087 86.5616968 335.8754885 81.06508444 333.87955475 75.56999683 C331.41721499 68.79040083 328.9639443 62.00776183 326.53302765 55.2168169 C325.36842485 51.96966003 324.19318543 48.72644645 323.01407623 45.48453236 C322.49932606 44.06249839 321.98913686 42.63880367 321.48392487 41.21335316 C317.64816688 30.40495489 314.3567299 22.30571784 303.62086105 17.16918015 C298.48571671 15.3299941 293.45819831 15.44675578 288.05490875 15.49930286 C286.81202024 15.49150291 285.56913174 15.48370296 284.28857994 15.47566664 C280.863911 15.45925303 277.44062648 15.4650502 274.01604366 15.48059773 C270.31315193 15.49195863 266.61037701 15.47442519 262.90750885 15.46069813 C255.66367364 15.43851144 248.42009805 15.4432464 241.17625284 15.45776133 C235.28696729 15.46907164 229.3977543 15.47057674 223.508461 15.46514225 C222.66899331 15.46437608 221.82952562 15.46360992 220.96461952 15.46282054 C219.25904415 15.46122185 217.5534688 15.45960078 215.84789348 15.45795758 C199.86966735 15.44371347 183.89158486 15.46007176 167.91338229 15.48695941 C154.21520593 15.509297 140.51724145 15.50541649 126.81906891 15.48236561 C110.8964699 15.45558392 94.97399664 15.44508664 79.05137825 15.46042693 C77.35221738 15.46201961 75.65305648 15.46359146 73.95389557 15.46514225 C73.11796305 15.46591363 72.28203052 15.46668501 71.42076671 15.46747976 C65.54127592 15.47178966 59.66186517 15.46452555 53.78238678 15.45274448 C46.61330411 15.43869458 39.44449504 15.44257151 32.27544355 15.4691482 C28.6204012 15.48225318 24.96581433 15.48749624 21.31077576 15.47090244 C17.34274444 15.45316065 13.37545247 15.47440099 9.40744781 15.49930286 C7.68709981 15.48257245 7.68709981 15.48257245 5.9319973 15.46550405 C-3.03008234 15.57443913 -10.65832402 17.66154773 -16.60744476 24.72186756 Z M104.19992828 126.32562733 C103.55024078 127.10808826 102.90055328 127.8905492 102.23117828 128.69672108 C101.56086578 129.48176014 100.89055328 130.2667992 100.19992828 131.07562733 C98.53757837 132.98409646 98.53757837 132.98409646 98.73117828 135.13422108 C131.73117828 135.13422108 164.73117828 135.13422108 198.73117828 135.13422108 C196.93415357 130.64165928 196.37343382 129.37221277 192.98117828 126.44672108 C191.99891266 125.5746703 191.99891266 125.5746703 190.99680328 124.68500233 C186.26022084 121.44289331 181.57127004 120.88174839 175.93479156 120.85956287 C175.28352295 120.85445194 174.63225433 120.84934101 173.96125031 120.8440752 C171.82456831 120.83026194 169.68821192 120.83112981 167.55149078 120.83343983 C166.05465324 120.82954802 164.55781679 120.82521235 163.06098175 120.8204546 C159.92903814 120.81300991 156.79720728 120.81327065 153.66526031 120.81854725 C149.66854436 120.82433606 145.67229272 120.80741695 141.67565346 120.78420258 C138.5853891 120.76940869 135.49523506 120.76860124 132.40494156 120.7717123 C130.93226834 120.77120181 129.45958849 120.76601559 127.98694992 120.75590038 C115.20926116 120.50204611 115.20926116 120.50204611 104.19992828 126.32562733 Z M81.73117828 181.13422108 C81.73117828 210.50422108 81.73117828 239.87422108 81.73117828 270.13422108 C86.35117828 270.13422108 90.97117828 270.13422108 95.73117828 270.13422108 C95.73117828 240.76422108 95.73117828 211.39422108 95.73117828 181.13422108 C91.11117828 181.13422108 86.49117828 181.13422108 81.73117828 181.13422108 Z M111.73117828 181.13422108 C111.73117828 210.50422108 111.73117828 239.87422108 111.73117828 270.13422108 C116.35117828 270.13422108 120.97117828 270.13422108 125.73117828 270.13422108 C125.73117828 240.76422108 125.73117828 211.39422108 125.73117828 181.13422108 C121.11117828 181.13422108 116.49117828 181.13422108 111.73117828 181.13422108 Z M141.73117828 181.13422108 C141.73117828 210.50422108 141.73117828 239.87422108 141.73117828 270.13422108 C146.35117828 270.13422108 150.97117828 270.13422108 155.73117828 270.13422108 C155.73117828 240.76422108 155.73117828 211.39422108 155.73117828 181.13422108 C151.11117828 181.13422108 146.49117828 181.13422108 141.73117828 181.13422108 Z M171.73117828 181.13422108 C171.73117828 210.50422108 171.73117828 239.87422108 171.73117828 270.13422108 C176.35117828 270.13422108 180.97117828 270.13422108 185.73117828 270.13422108 C185.73117828 240.76422108 185.73117828 211.39422108 185.73117828 181.13422108 C181.11117828 181.13422108 176.49117828 181.13422108 171.73117828 181.13422108 Z M201.73117828 181.13422108 C201.73117828 210.50422108 201.73117828 239.87422108 201.73117828 270.13422108 C206.35117828 270.13422108 210.97117828 270.13422108 215.73117828 270.13422108 C215.73117828 240.76422108 215.73117828 211.39422108 215.73117828 181.13422108 C211.11117828 181.13422108 206.49117828 181.13422108 201.73117828 181.13422108 Z M231.73117828 181.13422108 C231.73117828 210.50422108 231.73117828 239.87422108 231.73117828 270.13422108 C242.29117828 270.19609608 252.85117828 270.25797108 263.73117828 270.32172108 C267.05180328 270.34903309 270.37242828 270.3763451 273.79367828 270.40448475 C276.43950792 270.41325048 279.08534162 270.42089421 281.73117828 270.42718983 C282.40938629 270.43502995 283.0875943 270.44287006 283.78635406 270.45094776 C294.13121078 270.56444097 301.74713803 270.3235174 309.73117828 263.13422108 C314.69866677 255.35325722 317.69240864 246.34992343 320.77024078 237.69672108 C321.22230381 236.4420273 321.67498493 235.18755608 322.12824249 233.93329334 C323.30706774 230.66558655 324.47684488 227.39471272 325.64481354 224.12311268 C326.591821 221.47539194 327.54541272 218.83006643 328.49934578 216.18483448 C330.48810009 210.66918621 332.47162735 205.1516429 334.44455719 199.63031483 C334.79064026 198.66279285 335.13672333 197.69527088 335.49329376 196.69843006 C337.28922682 191.52744632 339.00015407 186.32729373 340.73117828 181.13422108 C304.76117828 181.13422108 268.79117828 181.13422108 231.73117828 181.13422108 Z " fill="#000000" transform="translate(107.2688217163086,187.86577892303467)"/>
<path d="M0 0 C34.80270191 12.90752541 59.49967727 36.8879681 75.890625 69.70703125 C77.10546875 72.5703125 77.10546875 72.5703125 77.10546875 75.5703125 C77.76546875 75.5703125 78.42546875 75.5703125 79.10546875 75.5703125 C79.17894531 74.9309375 79.25242187 74.2915625 79.328125 73.6328125 C82.60162818 60.73619695 91.59712774 48.55022192 100.10546875 38.5703125 C100.8840625 37.62929687 101.66265625 36.68828125 102.46484375 35.71875 C124.74313098 9.87302462 157.68228124 -4.21019774 191.24609375 -6.78515625 C196.26084729 -6.9792419 199.92716983 -6.99701661 204.48046875 -4.8046875 C211.03313437 8.80469494 203.73602316 31.25764807 199.13964844 44.71508789 C193.78878066 59.47096663 186.27852296 72.63776778 176.10546875 84.5703125 C175.326875 85.51132813 174.54828125 86.45234375 173.74609375 87.421875 C153.91493692 110.42860923 123.31836929 126.14810387 93.12890625 129.32421875 C57.22431957 131.82344164 22.87384664 123.24415745 -4.89453125 99.5703125 C-5.83554688 98.79171875 -6.7765625 98.013125 -7.74609375 97.2109375 C-33.59181913 74.93265027 -47.67504149 41.99350001 -50.25 8.4296875 C-50.44408565 3.41493396 -50.46186036 -0.25138858 -48.26953125 -4.8046875 C-35.23235283 -11.08184748 -13.10844751 -4.54689579 0 0 Z M-33.89453125 9.5703125 C-32.19104094 27.03744451 -27.47246662 42.25439612 -18.89453125 57.5703125 C-18.35054687 58.54484375 -17.8065625 59.519375 -17.24609375 60.5234375 C-2.00076706 85.95710446 23.17620919 103.16645728 51.5546875 110.79296875 C57.68874112 112.13584738 63.86337865 112.90588834 70.10546875 113.5703125 C68.40197844 96.10318049 63.68340412 80.88622888 55.10546875 65.5703125 C54.56148438 64.59578125 54.0175 63.62125 53.45703125 62.6171875 C38.21170456 37.18352054 13.03472831 19.97416772 -15.34375 12.34765625 C-21.47780362 11.00477762 -27.65244115 10.23473666 -33.89453125 9.5703125 Z M126.10546875 35.5703125 C124.90470703 36.54097656 124.90470703 36.54097656 123.6796875 37.53125 C101.17937398 56.5729661 88.9207458 84.70321795 86.10546875 113.5703125 C103.57260076 111.86682219 118.78955237 107.14824787 134.10546875 98.5703125 C135.08 98.02632813 136.05453125 97.48234375 137.05859375 96.921875 C163.29772732 81.19373938 180.13416122 55.49011234 187.60327148 26.2578125 C188.94426084 20.70269645 189.8242024 15.28939485 190.10546875 9.5703125 C166.80454368 9.5703125 143.71415676 21.18861349 126.10546875 35.5703125 Z " fill="#000000" transform="translate(177.89453125,44.4296875)"/>
</svg>
