<?xml version="1.0" encoding="UTF-8"?>
<svg version="1.1" xmlns="http://www.w3.org/2000/svg" width="512" height="512">
<path d="M0 0 C1.47170654 -0.00810448 1.47170654 -0.00810448 2.97314453 -0.01637268 C6.21450029 -0.0288723 9.45496968 -0.01235533 12.69628906 0.00561523 C14.9544479 0.00546023 17.21260701 0.00397094 19.47076416 0.00120544 C24.20523837 -0.00017928 28.93940994 0.01238822 33.67382812 0.03515625 C39.72749046 0.0634757 45.78064744 0.06082202 51.83434677 0.04806614 C56.49965691 0.0410914 61.16485142 0.04891987 65.83014679 0.06132317 C68.06115525 0.06582481 70.29217619 0.06618577 72.52318573 0.06225777 C75.65112979 0.05932968 78.77839231 0.07593147 81.90625 0.09765625 C83.27659393 0.09090378 83.27659393 0.09090378 84.67462158 0.08401489 C94.31607386 0.19461966 101.24052017 2.65578074 108.26269531 9.31030273 C113.31386044 14.98906754 115.37340504 21.22839457 115.27441406 28.75170898 C115.26539063 29.64374023 115.25636719 30.53577148 115.24707031 31.45483398 C115.22966797 32.46803711 115.22966797 32.46803711 115.21191406 33.50170898 C116.24309357 33.49171623 116.24309357 33.49171623 117.29510498 33.48152161 C123.82529022 33.42100454 130.35539536 33.37553075 136.88579941 33.34627247 C140.24190651 33.33072376 143.59760338 33.30802705 146.95361328 33.27539062 C150.82623307 33.23869356 154.69852613 33.22191067 158.57128906 33.20874023 C159.75615906 33.19325638 160.94102905 33.17777252 162.1618042 33.16181946 C177.27113607 33.15881697 188.88504617 36.79243462 199.88378906 47.15014648 C207.03900638 54.3773962 211.4130078 62.21032215 212.71191406 72.43920898 C213.88626289 75.67212872 213.88626289 75.67212872 216.64941406 76.56811523 C218.7508671 77.20873676 220.85952096 77.82606255 222.97363281 78.42358398 C233.29150238 81.85872512 241.09388963 90.10448188 246.02441406 99.56420898 C248.97855376 105.62372421 250.46569699 111.42151911 250.43896484 118.17138672 C250.43881378 119.45218613 250.43866272 120.73298553 250.43850708 122.05259705 C250.42829696 123.43016723 250.41786502 124.80773579 250.40722656 126.18530273 C250.40349127 127.61019186 250.40064674 129.03508357 250.39865112 130.4599762 C250.39105527 134.19016753 250.37144215 137.92020039 250.34924316 141.65032959 C250.32869697 145.46469988 250.31963074 149.27909605 250.30957031 153.09350586 C250.28819194 160.56297875 250.25410561 168.03232157 250.21191406 175.50170898 C251.480271 175.81019775 252.74862793 176.11868652 254.05541992 176.43652344 C262.16589153 178.40914592 269.15485019 182.81528086 274.21191406 189.50170898 C278.65585498 197.14568862 281.34206921 203.2591701 281.32543945 212.10620117 C281.32558548 212.76027451 281.32573151 213.41434784 281.32588196 214.08824158 C281.32518747 216.24172324 281.31741689 218.3951175 281.30957031 220.54858398 C281.30770448 222.04502312 281.30628136 223.54146287 281.30528259 225.03790283 C281.30147041 228.97029313 281.29165123 232.90264631 281.28057861 236.83502197 C281.27033655 240.85021462 281.26577899 244.86541328 281.26074219 248.88061523 C281.25002778 256.75433016 281.23296698 264.62801495 281.21191406 272.50170898 C281.98019531 272.62674805 282.74847656 272.75178711 283.54003906 272.88061523 C286.91308507 273.66470049 288.68154657 275.18220545 291.21191406 277.50170898 C293.44952599 281.97693285 292.52180985 288.02070684 292.56201172 292.99487305 C292.57853601 294.49242736 292.60578012 295.98990394 292.64404297 297.48706055 C292.69909749 299.65381484 292.72072796 301.81872242 292.73535156 303.98608398 C292.7551709 305.28255859 292.77499023 306.5790332 292.79541016 307.91479492 C292.05113275 312.4900768 290.57748149 314.35758329 287.21191406 317.50170898 C282.26576306 319.66292283 277.83473189 319.77679376 272.54443359 319.72875977 C271.2702784 319.72919785 271.2702784 319.72919785 269.97038269 319.72964478 C267.17839137 319.72825768 264.38667094 319.71272576 261.59472656 319.69702148 C259.65274196 319.69328915 257.71075547 319.69044322 255.76876831 319.68844604 C250.66913613 319.68082696 245.56961872 319.66119328 240.47003174 319.63903809 C235.26161247 319.61854248 230.05317457 319.60943639 224.84472656 319.59936523 C214.63373877 319.57794576 204.42283598 319.54383065 194.21191406 319.50170898 C194.08299271 320.18678528 193.95407135 320.87186157 193.82124329 321.57769775 C193.64763779 322.47720154 193.47403229 323.37670532 193.29516602 324.3034668 C193.12499466 325.19479309 192.9548233 326.08611938 192.77949524 327.00445557 C190.27884653 338.00685274 182.16402787 346.32146789 173.25878906 352.60327148 C161.55045618 359.89846351 148.84452279 362.25767948 135.20800781 360.00561523 C121.11724481 356.45786978 109.70324826 348.86755241 102.14941406 336.25170898 C99.01478683 330.58025629 97.21191406 326.04343151 97.21191406 319.50170898 C44.74191406 319.50170898 -7.72808594 319.50170898 -61.78808594 319.50170898 C-62.11808594 322.14170898 -62.44808594 324.78170898 -62.78808594 327.50170898 C-64.35058594 330.00170898 -64.35058594 330.00170898 -66.78808594 331.50170898 C-69.60048184 332.10807771 -71.97944039 332.13925429 -74.78808594 331.50170898 C-77.35058594 329.62670898 -77.35058594 329.62670898 -78.78808594 326.50170898 C-78.8015463 324.04743598 -78.50939633 321.7331932 -78.17089844 319.30249023 C-76.60397091 307.83833676 -78.30115067 298.03348384 -85.41308594 288.62670898 C-90.84868833 282.85138144 -98.79658043 278.914286 -106.67089844 278.26342773 C-116.94416734 278.02825652 -124.87416595 280.19806851 -132.96777344 286.66967773 C-139.51350122 293.2575454 -142.74819978 301.585318 -143.16308594 310.75170898 C-142.96011015 319.99979317 -139.46583412 328.99482003 -132.78808594 335.50170898 C-124.029336 342.00200439 -115.62495516 344.33408299 -104.78808594 343.50170898 C-102.44078528 342.88602357 -100.10351636 342.22811853 -97.78808594 341.50170898 C-93.96584766 341.04304039 -92.31271128 341.21658651 -88.91308594 343.06420898 C-86.78808594 345.50170898 -86.78808594 345.50170898 -86.16308594 348.93920898 C-86.97729679 353.58021085 -87.93445536 354.78149917 -91.78808594 357.50170898 C-103.20022135 362.42652999 -116.23539843 361.79169457 -127.78417969 357.76733398 C-139.22281451 352.94793518 -147.50478086 346.16153581 -153.78808594 335.50170898 C-154.19285156 334.8172168 -154.59761719 334.13272461 -155.01464844 333.42749023 C-157.58622096 328.71910746 -158.16538842 324.81698511 -158.78808594 319.50170898 C-159.80499763 319.51170174 -159.80499763 319.51170174 -160.842453 319.52189636 C-167.89890805 319.58827051 -174.9552744 319.63351845 -182.01196289 319.66650391 C-184.64546307 319.68158956 -187.27893814 319.70206064 -189.91235352 319.72802734 C-193.69781697 319.76441917 -197.48294821 319.78143789 -201.26855469 319.79467773 C-202.44580612 319.81016159 -203.62305756 319.82564545 -204.83598328 319.84159851 C-206.48712883 319.8419384 -206.48712883 319.8419384 -208.17163086 319.84228516 C-209.62057991 319.85227791 -209.62057991 319.85227791 -211.09880066 319.86247253 C-214.59200189 319.39386488 -217.2804704 318.00932452 -219.78808594 315.50170898 C-220.37964571 308.28467976 -220.37964571 308.28467976 -218.19604492 305.39453125 C-214.94786156 302.84123452 -212.93252734 303.04163371 -208.83496094 303.11108398 C-208.17473938 303.11674377 -207.51451782 303.12240356 -206.83428955 303.12823486 C-204.73480331 303.15054668 -202.63705224 303.20072584 -200.53808594 303.25170898 C-199.11102733 303.27178104 -197.68394186 303.29003059 -196.25683594 303.30639648 C-192.76669301 303.35039206 -189.27755895 303.41938022 -185.78808594 303.50170898 C-185.73475098 302.77580566 -185.68141602 302.04990234 -185.62646484 301.30200195 C-184.49109886 287.23985049 -179.39723269 274.76156275 -170.78808594 263.50170898 C-172.09479248 263.49236328 -173.40149902 263.48301758 -174.74780273 263.47338867 C-179.60296527 263.4334706 -184.45749538 263.36770624 -189.31225586 263.29418945 C-191.41210802 263.26599047 -193.51206611 263.24477061 -195.61206055 263.23071289 C-198.63352653 263.20926885 -201.65372028 263.16261032 -204.67480469 263.11108398 C-205.61144455 263.10985535 -206.54808441 263.10862671 -207.5131073 263.10736084 C-211.78917165 263.01160306 -214.17600883 262.88031936 -217.88085938 260.58862305 C-219.94223492 258.33303701 -220.45037842 257.5072239 -220.35058594 254.50170898 C-220.351875 253.84170898 -220.35316406 253.18170898 -220.35449219 252.50170898 C-219.52643379 249.57780623 -218.13838459 248.40249255 -215.78808594 246.50170898 C-212.93362427 246.02983093 -212.93362427 246.02983093 -209.58935547 246.06689453 C-208.3334964 246.06976974 -207.07763733 246.07264496 -205.78372192 246.0756073 C-205.11435734 246.08614828 -204.44499275 246.09668926 -203.75534439 246.10754967 C-201.64202046 246.13885552 -199.53025287 246.14252924 -197.41671753 246.1386261 C-191.40928706 246.13213295 -185.40256255 246.17186375 -179.39550781 246.23730469 C-175.7141368 246.27547731 -172.03395477 246.2786925 -168.3524437 246.2622776 C-166.96281742 246.26303184 -165.57312476 246.27674086 -164.18378067 246.30475426 C-154.55451113 246.49665999 -148.10503305 244.8667143 -139.88742065 240.18928528 C-124.51761751 231.82048429 -103.13522867 232.77377336 -86.78808594 237.50170898 C-80.86748243 239.61084108 -75.02815882 242.00832706 -69.78808594 245.50170898 C-66.65723577 245.81561187 -66.65723577 245.81561187 -63.01142883 245.78018188 C-62.31874521 245.78597429 -61.62606159 245.79176669 -60.91238755 245.79773462 C-58.58615747 245.81477009 -56.26012536 245.81761412 -53.93383789 245.82055664 C-52.26838696 245.82985238 -50.6029407 245.84002052 -48.9375 245.85099792 C-44.41097244 245.87835195 -39.88447609 245.8934633 -35.35788751 245.90642595 C-30.62927679 245.9220329 -25.90073004 245.94883085 -21.17216492 245.97445679 C-12.2155907 246.0212878 -3.25900452 246.05801096 5.69762975 246.09112966 C15.89343356 246.12932054 26.0891732 246.17873862 36.28492296 246.22911382 C57.2605393 246.33249795 78.23619625 246.42173724 99.21191406 246.50170898 C99.15141436 217.92083134 99.07393906 189.34004347 98.97619915 160.75926781 C98.93121455 147.48901539 98.891806 134.21878996 98.86547852 120.94848633 C98.84252006 109.38343664 98.80914608 97.8184722 98.7632125 86.25349009 C98.73925135 80.12871126 98.72054149 74.00401701 98.71430016 67.87919235 C98.70826246 62.11558693 98.68830998 56.352198 98.65763855 50.58867264 C98.64883726 48.47230786 98.64514005 46.35591481 98.6469059 44.23953247 C98.64855508 41.35119941 98.63188938 38.4635291 98.61064148 35.57528687 C98.61548906 34.73675529 98.62033663 33.89822371 98.6253311 33.03428209 C98.56564136 28.12169023 97.90172596 24.77222348 95.21191406 20.50170898 C90.85455597 16.62815782 86.06867071 17.08590878 80.54394531 17.1328125 C79.09186172 17.12716278 79.09186172 17.12716278 77.61044312 17.12139893 C75.51247119 17.11497222 73.41447014 17.11529107 71.3164978 17.12158394 C67.99603811 17.13069308 64.67614318 17.12047244 61.35571289 17.10496521 C51.91683832 17.06485679 42.4780081 17.06366562 33.0390625 17.06591797 C27.26251484 17.06596903 21.48627241 17.04682297 15.70980835 17.0165844 C12.43858263 17.00574502 9.16793577 17.01789752 5.89672852 17.03041077 C3.89110742 17.0215077 1.88549107 17.01143379 -0.12011719 17 C-1.02935944 17.0097435 -1.93860168 17.019487 -2.87539673 17.02952576 C-7.05130301 16.98197398 -9.2308765 16.84849635 -12.85083008 14.5955658 C-14.92976504 12.34857704 -15.4719282 11.51443295 -15.41308594 8.50170898 C-15.42597656 7.84170898 -15.43886719 7.18170898 -15.45214844 6.50170898 C-13.10661205 -0.56249472 -6.13686645 -0.06437413 0 0 Z M115.21191406 49.50170898 C115.21191406 58.08170898 115.21191406 66.66170898 115.21191406 75.50170898 C118.17417969 75.54038086 118.17417969 75.54038086 121.19628906 75.57983398 C123.78485307 75.63610712 126.37339388 75.69345462 128.96191406 75.75170898 C130.26386719 75.76588867 131.56582031 75.78006836 132.90722656 75.79467773 C134.15761719 75.8269043 135.40800781 75.85913086 136.69628906 75.89233398 C137.84838867 75.91328125 139.00048828 75.93422852 140.1875 75.95581055 C143.79750939 76.60740733 145.01582428 77.61282108 147.21191406 80.50170898 C147.38378906 82.86108398 147.38378906 82.86108398 146.96191406 85.25170898 C146.83300781 86.05092773 146.70410156 86.85014648 146.57128906 87.67358398 C146.45269531 88.27686523 146.33410156 88.88014648 146.21191406 89.50170898 C136.16626661 92.01312085 125.55963567 91.11846004 115.21191406 91.50170898 C115.21191406 140.67170898 115.21191406 189.84170898 115.21191406 240.50170898 C118.84191406 239.51170898 122.47191406 238.52170898 126.21191406 237.50170898 C146.54856318 232.20860853 167.16604189 236.03413133 185.33691406 246.25170898 C194.2586385 251.8420844 204.78371772 260.49080418 209.48486328 270.10498047 C210.97746462 272.73097288 210.97746462 272.73097288 213.66381836 273.06933594 C214.61168213 273.04315186 215.5595459 273.01696777 216.53613281 272.98999023 C217.56416016 272.97387695 218.5921875 272.95776367 219.65136719 272.94116211 C221.25915039 272.87832031 221.25915039 272.87832031 222.89941406 272.81420898 C223.98287109 272.79165039 225.06632812 272.7690918 226.18261719 272.74584961 C228.86043311 272.68686688 231.53548433 272.60461206 234.21191406 272.50170898 C234.22649658 271.63481445 234.2410791 270.76791992 234.25610352 269.87475586 C234.31756418 266.62407291 234.3917903 263.37398922 234.47436523 260.1237793 C234.50739073 258.72349828 234.53549061 257.32309129 234.55834961 255.92260742 C234.84483843 238.83080622 234.84483843 238.83080622 240.39941406 231.68920898 C247.90706576 225.84992433 256.01559541 225.87627814 265.21191406 225.50170898 C265.32092912 222.66731761 265.3996931 219.83720695 265.46191406 217.00170898 C265.5121875 215.81448242 265.5121875 215.81448242 265.56347656 214.60327148 C265.67567154 207.75937815 263.98674752 202.65382243 259.43066406 197.47827148 C258.86347656 197.03225586 258.29628906 196.58624023 257.71191406 196.12670898 C257.14472656 195.66522461 256.57753906 195.20374023 255.99316406 194.72827148 C251.59472966 191.69952499 248.4736486 191.24523638 243.07592773 191.21459961 C242.00927132 191.20435005 242.00927132 191.20435005 240.92106628 191.19389343 C239.38022701 191.18032795 237.839343 191.17126021 236.29845238 191.16618347 C233.85549242 191.15787604 231.41290301 191.13735257 228.970047 191.11364746 C223.77989124 191.06545942 218.58969823 191.03252146 213.39941406 191.00170898 C207.39341505 190.96597472 201.38759658 190.92391437 195.38176918 190.86576843 C192.98277455 190.84579527 190.5839204 190.83739866 188.18486023 190.82946777 C186.70192974 190.81648505 185.21900384 190.80296325 183.73608398 190.78881836 C182.44909103 190.7815271 181.16209808 190.77423584 179.83610535 190.76672363 C174.5585645 190.38080978 170.52184231 189.5787611 166.39941406 186.18920898 C163.09043094 182.12388687 161.96519084 178.64790738 161.93725586 173.43945312 C161.92295784 171.96751244 161.92295784 171.96751244 161.90837097 170.46583557 C161.90928238 169.41677536 161.91019379 168.36771515 161.91113281 167.28686523 C161.90684769 166.19836777 161.90256256 165.1098703 161.89814758 163.98838806 C161.89241215 161.6895314 161.89189821 159.39065659 161.89624023 157.09179688 C161.89939956 153.58033201 161.8759325 150.06971034 161.85058594 146.55834961 C161.84831277 144.32202254 161.84760953 142.08569322 161.84863281 139.84936523 C161.83942307 138.80232925 161.83021332 137.75529327 161.82072449 136.67652893 C161.85531201 131.21005 162.06159972 127.18702069 165.21191406 122.50170898 C169.69652926 118.45461722 172.15857136 117.38100736 178.13037109 117.29638672 C179.37150665 117.2764415 180.61264221 117.25649628 181.89138794 117.23594666 C183.25083286 117.21896238 184.61027911 117.20208357 185.96972656 117.18530273 C187.35692973 117.16473317 188.74412664 117.1437367 190.13131714 117.12232971 C193.78418912 117.06710918 197.43711766 117.01769988 201.09008789 116.96948242 C204.8169458 116.91926723 208.54372147 116.86358127 212.27050781 116.80834961 C219.58424027 116.70076828 226.89804107 116.5993233 234.21191406 116.50170898 C233.01147448 108.56338425 229.73311848 102.12313989 223.33691406 97.06420898 C216.82105977 92.33950945 210.08406825 91.06146857 202.25878906 91.06030273 C201.43614563 91.04709488 200.6135022 91.03388702 199.76593018 91.02027893 C197.16455572 90.97972997 194.56353108 90.95779886 191.96191406 90.93920898 C189.34612013 90.91537213 186.73065299 90.88723541 184.11505127 90.84742737 C182.49468403 90.82318344 180.87414366 90.80823303 179.25360107 90.80381775 C172.27574742 90.70706519 172.27574742 90.70706519 169.21191406 88.50170898 C167.68699408 85.45186903 167.97628858 82.85937209 168.21191406 79.50170898 C169.36743164 77.81103516 169.36743164 77.81103516 171.21191406 76.50170898 C173.84741211 76.06933594 173.84741211 76.06933594 176.97363281 75.98999023 C178.09189453 75.95454102 179.21015625 75.9190918 180.36230469 75.88256836 C181.52955078 75.86000977 182.69679688 75.83745117 183.89941406 75.81420898 C185.66768555 75.76296875 185.66768555 75.76296875 187.47167969 75.71069336 C190.38499631 75.62812973 193.29800872 75.55900577 196.21191406 75.50170898 C195.15389562 66.23569486 191.39080103 60.86746958 184.26269531 54.97436523 C178.28408081 50.68115063 171.8609357 49.37148135 164.59545898 49.38818359 C162.94431343 49.38829689 162.94431343 49.38829689 161.2598114 49.38841248 C160.08255997 49.39357376 158.90530853 49.39873505 157.69238281 49.40405273 C156.47867508 49.40546768 155.26496735 49.40688263 154.01448059 49.40834045 C150.14276655 49.41393233 146.27111059 49.42648341 142.39941406 49.43920898 C139.77246177 49.44422503 137.14550858 49.44878776 134.51855469 49.45288086 C128.08296749 49.46304766 121.64750571 49.48262486 115.21191406 49.50170898 Z M177.21191406 132.50170898 C177.19128906 139.41108398 177.17066406 146.32045898 177.14941406 153.43920898 C177.14031006 155.62280029 177.13120605 157.8063916 177.12182617 160.05615234 C177.11890708 161.77628518 177.11635851 163.4964187 177.11425781 165.21655273 C177.10914185 166.11829224 177.10402588 167.02003174 177.09875488 167.94909668 C177.09844524 170.13362643 177.14945536 172.31807228 177.21191406 174.50170898 C178.24164881 175.7542084 178.24164881 175.7542084 180.45814514 175.6219635 C181.45075851 175.61974289 182.44337189 175.61752228 183.46606445 175.61523438 C185.14769432 175.61512108 185.14769432 175.61512108 186.86329651 175.61500549 C188.08306686 175.60984421 189.30283722 175.60468292 190.55957031 175.59936523 C191.80113388 175.59795029 193.04269745 175.59653534 194.32188416 175.59507751 C197.62796897 175.59041489 200.93398553 175.58142395 204.24005127 175.57037354 C207.61152545 175.56015725 210.98300688 175.55552473 214.35449219 175.55053711 C220.97367145 175.54033178 227.59273059 175.52076004 234.21191406 175.50170898 C234.21191406 161.31170898 234.21191406 147.12170898 234.21191406 132.50170898 C215.40191406 132.50170898 196.59191406 132.50170898 177.21191406 132.50170898 Z M253.21191406 241.50170898 C249.94869399 244.14478451 249.94869399 244.14478451 249.87133789 247.41259766 C249.88704834 248.56993408 249.90275879 249.72727051 249.91894531 250.91967773 C249.92861328 252.17329102 249.93828125 253.4269043 249.94824219 254.71850586 C249.97337891 256.02883789 249.99851562 257.33916992 250.02441406 258.68920898 C250.03946439 260.02448062 250.0531522 261.35976835 250.06542969 262.69506836 C250.1008346 265.96412151 250.15464212 269.23296581 250.21191406 272.50170898 C255.16191406 272.50170898 260.11191406 272.50170898 265.21191406 272.50170898 C265.21191406 262.27170898 265.21191406 252.04170898 265.21191406 241.50170898 C261.25191406 241.50170898 257.29191406 241.50170898 253.21191406 241.50170898 Z M-154.78808594 269.50170898 C-162.80815329 279.47045386 -169.0217384 290.47380083 -169.78808594 303.50170898 C-166.48808594 303.50170898 -163.18808594 303.50170898 -159.78808594 303.50170898 C-159.41683594 302.26420898 -159.04558594 301.02670898 -158.66308594 299.75170898 C-153.63676416 284.88314782 -145.982254 273.72035045 -131.78808594 266.50170898 C-119.08530593 260.90387373 -104.84468706 260.51809423 -91.78417969 265.18139648 C-77.85331478 271.3204217 -69.68280592 280.61881707 -63.78808594 294.50170898 C-62.67139488 297.48517038 -61.70418791 300.44803573 -60.78808594 303.50170898 C-57.48808594 303.50170898 -54.18808594 303.50170898 -50.78808594 303.50170898 C-51.4816001 291.71196827 -56.5662138 281.65049319 -63.78808594 272.50170898 C-64.25988281 271.86620117 -64.73167969 271.23069336 -65.21777344 270.57592773 C-74.1080769 259.24958067 -88.81830622 252.67816017 -102.78808594 250.50170898 C-121.56255947 249.04369136 -142.03007661 254.89292461 -154.78808594 269.50170898 Z M98.46191406 272.68920898 C91.58091537 281.44573652 86.21191406 292.23490299 86.21191406 303.50170898 C89.51191406 303.50170898 92.81191406 303.50170898 96.21191406 303.50170898 C96.56382812 302.46272461 96.91574219 301.42374023 97.27832031 300.35327148 C102.4084364 285.66985674 109.03585548 274.58928988 123.21191406 267.18920898 C135.34015187 261.53238165 148.79622644 260.37212077 161.69238281 264.52905273 C175.55851664 269.88202533 184.14717549 277.68158567 190.50097656 291.25561523 C192.21598778 295.39508475 193.32542037 299.06924054 194.21191406 303.50170898 C197.84191406 303.50170898 201.47191406 303.50170898 205.21191406 303.50170898 C202.62936925 286.71516772 195.51816534 273.44329512 182.21191406 262.50170898 C154.79050926 243.4289002 120.46595019 247.41579186 98.46191406 272.68920898 Z M-50.78808594 262.50170898 C-48.14808594 267.12170898 -45.50808594 271.74170898 -42.78808594 276.50170898 C-38.34648618 285.87841958 -36.91935142 292.84538156 -34.78808594 303.50170898 C-20.92808594 303.50170898 -7.06808594 303.50170898 7.21191406 303.50170898 C7.21191406 289.97170898 7.21191406 276.44170898 7.21191406 262.50170898 C-11.92808594 262.50170898 -31.06808594 262.50170898 -50.78808594 262.50170898 Z M23.21191406 262.50170898 C23.21191406 276.03170898 23.21191406 289.56170898 23.21191406 303.50170898 C38.72191406 303.50170898 54.23191406 303.50170898 70.21191406 303.50170898 C71.69691406 296.07670898 71.69691406 296.07670898 73.21191406 288.50170898 C76.19801564 279.54340426 79.93654761 272.28712883 85.21191406 264.50170898 C85.54191406 263.84170898 85.87191406 263.18170898 86.21191406 262.50170898 C65.42191406 262.50170898 44.63191406 262.50170898 23.21191406 262.50170898 Z M119.41894531 289.41967773 C112.53584492 297.93432785 111.26156541 306.74001434 112.21191406 317.50170898 C113.76382994 326.50561729 119.21476667 333.65691931 126.58691406 338.87670898 C135.31572129 344.18476743 143.90200794 346.03525572 154.00488281 343.91577148 C163.61058968 340.96225372 171.41458715 334.22877583 176.31738281 325.46264648 C180.1912452 316.97059881 180.32249408 307.92899908 177.37207031 299.11889648 C172.76870684 288.73420447 165.76294778 282.44103754 155.30175781 278.36889648 C141.30086808 274.43944323 129.03918812 279.12874262 119.41894531 289.41967773 Z M218.21191406 288.50170898 C219.20191406 293.45170898 220.19191406 298.40170898 221.21191406 303.50170898 C239.69191406 303.50170898 258.17191406 303.50170898 277.21191406 303.50170898 C277.21191406 298.55170898 277.21191406 293.60170898 277.21191406 288.50170898 C257.74191406 288.50170898 238.27191406 288.50170898 218.21191406 288.50170898 Z " fill="#000000" transform="translate(219.7880859375,75.498291015625)"/>
<path d="M0 0 C2.14440042 0.00315353 4.28741123 -0.02029191 6.43164062 -0.0456543 C7.8066389 -0.0479283 9.18164085 -0.04863032 10.55664062 -0.04760742 C11.79849121 -0.05058838 13.0403418 -0.05356934 14.31982422 -0.05664062 C19.75136868 0.52725232 23.65905235 2.59165023 27.09570312 6.81567383 C27.58683594 7.40348633 28.07796875 7.99129883 28.58398438 8.59692383 C31.28539868 12.46865768 30.90041988 16.49535533 30.84570312 21.00317383 C30.84119141 21.70506836 30.83667969 22.40696289 30.83203125 23.13012695 C30.82027239 24.85867921 30.80233766 26.58718748 30.78320312 28.31567383 C31.98203125 28.3543457 31.98203125 28.3543457 33.20507812 28.39379883 C50.1929872 29.27110869 65.14555678 35.73950762 76.78320312 48.31567383 C85.1818167 58.85355689 89.76612 68.95558403 91.78320312 82.31567383 C92.39317139 82.28948975 93.00313965 82.26330566 93.6315918 82.23632812 C96.4110307 82.13201664 99.19005752 82.067244 101.97070312 82.00317383 C102.93041016 81.9612793 103.89011719 81.91938477 104.87890625 81.8762207 C112.02579822 81.75257205 112.02579822 81.75257205 115.91992188 84.64770508 C117.78320312 87.31567383 117.78320312 87.31567383 118.40820312 90.31567383 C117.56574103 94.35949188 116.04920331 95.84802924 112.78320312 98.31567383 C110.10742188 98.44848633 110.10742188 98.44848633 107.78320312 98.31567383 C107.81800781 99.31727539 107.8528125 100.31887695 107.88867188 101.35083008 C108.26664301 116.47157476 108.26664301 116.47157476 103.23632812 122.02270508 C99.51025694 125.54268825 96.95320204 126.68856536 91.78320312 127.31567383 C91.80415039 127.95069824 91.82509766 128.58572266 91.84667969 129.23999023 C91.93024893 132.14005459 91.98199086 135.03986499 92.03320312 137.94067383 C92.06671875 138.93969727 92.10023438 139.9387207 92.13476562 140.96801758 C92.21627484 147.12196297 91.90739577 150.64408834 87.78320312 155.31567383 C82.44788047 160.01583902 79.13322809 160.47353684 72.17431641 160.50854492 C71.28312103 160.51672241 70.39192566 160.5248999 69.47372437 160.5333252 C66.51699501 160.55819061 63.56031364 160.57469658 60.60351562 160.58911133 C59.59534664 160.59443501 58.58717766 160.59975868 57.5484581 160.60524368 C52.21411651 160.631978 46.87979837 160.65135354 41.54541016 160.66577148 C36.02801173 160.68243606 30.51120869 160.72722832 24.99403572 160.77814293 C20.75787648 160.81174805 16.52185987 160.82334143 12.28557968 160.82899857 C10.25134598 160.83572781 8.2171222 160.85099302 6.18301773 160.87488937 C3.33847289 160.90640457 0.49555149 160.90659852 -2.34912109 160.89916992 C-3.19186584 160.91557526 -4.0346106 160.93198059 -4.90289307 160.94888306 C-9.02509199 160.90473477 -10.61803463 160.85633489 -13.77493286 158.00576782 C-15.74188011 154.33602302 -15.31558632 152.27131582 -14.21679688 148.31567383 C-13.17863464 146.63175964 -13.17863464 146.63175964 -11.21679688 145.31567383 C-8.3706312 145.00591346 -5.73866495 144.87820785 -2.88989258 144.88330078 C-2.04089386 144.87310913 -1.19189514 144.86291748 -0.31716919 144.85241699 C2.49109425 144.82220528 5.29901705 144.81300863 8.10742188 144.80395508 C10.05370729 144.78711445 11.99998178 144.76896504 13.94624329 144.7495575 C19.07049142 144.7019845 24.19469531 144.67222238 29.3190918 144.64611816 C34.54745221 144.61634944 39.77566002 144.56980648 45.00390625 144.5246582 C55.26360977 144.43854191 65.5232971 144.37278374 75.78320312 144.31567383 C75.78320312 138.70567383 75.78320312 133.09567383 75.78320312 127.31567383 C27.27320313 127.31567383 -21.23679688 127.31567383 -71.21679688 127.31567383 C-71.21679688 132.92567383 -71.21679688 138.53567383 -71.21679688 144.31567383 C-67.713125 144.3543457 -67.713125 144.3543457 -64.13867188 144.39379883 C-61.87146049 144.43223404 -59.60447541 144.47738913 -57.33740234 144.52319336 C-55.76427044 144.55138336 -54.19099741 144.57260781 -52.61767578 144.58666992 C-50.35310731 144.60812825 -48.09023183 144.65478731 -45.82617188 144.70629883 C-45.1249823 144.70752747 -44.42379272 144.7087561 -43.70135498 144.71002197 C-40.34870135 144.81013018 -38.49203606 145.11081142 -35.77246094 147.13500977 C-33.49203096 150.33162003 -33.67010049 152.48879915 -34.21679688 156.31567383 C-35.71728516 158.5012207 -35.71728516 158.5012207 -38.21679688 160.31567383 C-41.17504657 160.71366148 -43.75297701 160.87715431 -46.70898438 160.84692383 C-47.53254425 160.85075073 -48.35610413 160.85457764 -49.20462036 160.85852051 C-50.94453149 160.86123864 -52.68448355 160.85388427 -54.42431641 160.8371582 C-57.07613248 160.81579999 -59.72522267 160.836933 -62.37695312 160.86254883 C-64.07096948 160.85990446 -65.76498416 160.85477723 -67.45898438 160.84692383 C-68.24667206 160.85502075 -69.03435974 160.86311768 -69.84591675 160.87145996 C-75.08305243 160.78311236 -78.0642289 159.77120223 -82.21679688 156.31567383 C-86.8191982 151.47827059 -87.77032909 146.67302906 -87.65625 140.14770508 C-87.61435547 139.21313477 -87.57246094 138.27856445 -87.52929688 137.31567383 C-87.50673828 136.35016602 -87.48417969 135.3846582 -87.4609375 134.38989258 C-87.40252816 132.03015508 -87.32069896 129.6737716 -87.21679688 127.31567383 C-87.97863281 127.18547852 -88.74046875 127.0552832 -89.52539062 126.92114258 C-94.3983595 125.8249014 -97.43968267 123.28181581 -100.52929688 119.44067383 C-104.10930238 112.81103401 -103.32385323 105.66687717 -103.21679688 98.31567383 C-104.85648438 98.22286133 -104.85648438 98.22286133 -106.52929688 98.12817383 C-110.21679688 97.31567383 -110.21679688 97.31567383 -112.21679688 95.12817383 C-113.44597394 91.67111332 -113.27998008 89.80899007 -112.21679688 86.31567383 C-110.63612793 84.32265646 -109.48592986 83.45024032 -107.21679688 82.31567383 C-105.69722047 82.16443551 -104.17207185 82.0668569 -102.64648438 81.99926758 C-101.75058594 81.95737305 -100.8546875 81.91547852 -99.93164062 81.87231445 C-98.99449219 81.83299805 -98.05734375 81.79368164 -97.09179688 81.75317383 C-96.14691406 81.70999023 -95.20203125 81.66680664 -94.22851562 81.62231445 C-91.89142596 81.5160831 -89.55422857 81.41404206 -87.21679688 81.31567383 C-86.99765625 80.36047852 -86.77851562 79.4052832 -86.55273438 78.42114258 C-83.32059892 64.9739923 -78.08306975 55.21590978 -68.21679688 45.31567383 C-67.60191406 44.67758789 -66.98703125 44.03950195 -66.35351562 43.38208008 C-56.49456369 33.90313057 -42.40987834 28.51439216 -28.81054688 28.24926758 C-27.95460938 28.27118164 -27.09867187 28.2930957 -26.21679688 28.31567383 C-26.26320313 27.39786133 -26.30960937 26.48004883 -26.35742188 25.53442383 C-26.75174459 12.12745148 -26.75174459 12.12745148 -22.21679688 6.31567383 C-15.34752749 -0.21013208 -9.03844225 -0.02785821 0 0 Z M-10.21679688 17.31567383 C-10.21679688 20.94567383 -10.21679688 24.57567383 -10.21679688 28.31567383 C-1.96679688 28.31567383 6.28320312 28.31567383 14.78320312 28.31567383 C14.78320312 24.68567383 14.78320312 21.05567383 14.78320312 17.31567383 C13.09803358 15.63050428 10.99552525 16.18559364 8.68945312 16.18286133 C7.65949219 16.18157227 6.62953125 16.1802832 5.56835938 16.17895508 C4.48425781 16.18282227 3.40015625 16.18668945 2.28320312 16.19067383 C0.65705078 16.18487305 0.65705078 16.18487305 -1.00195312 16.17895508 C-2.03191406 16.18024414 -3.061875 16.1815332 -4.12304688 16.18286133 C-5.55100586 16.18455322 -5.55100586 16.18455322 -7.0078125 16.1862793 C-9.19131825 16.06867926 -9.19131825 16.06867926 -10.21679688 17.31567383 Z M-62.21679688 62.31567383 C-66.62384528 68.27179375 -70.21679688 74.7755997 -70.21679688 82.31567383 C-22.03679687 82.31567383 26.14320313 82.31567383 75.78320312 82.31567383 C71.35125266 67.54250562 65.8192979 57.78129279 52.56445312 49.78833008 C45.15639229 45.86580349 37.64005799 44.21099527 29.28735352 44.13867188 C27.99152847 44.12583664 26.69570343 44.1130014 25.36061096 44.09977722 C23.95069771 44.0916037 22.54078007 44.08416114 21.13085938 44.07739258 C20.41373716 44.07331705 19.69661495 44.06924152 18.95776176 44.0650425 C15.15503102 44.04421774 11.35233587 44.02990579 7.54956055 44.02050781 C3.65982078 44.00950673 -0.22933692 43.97517086 -4.11887264 43.93533611 C-7.14159557 43.9089268 -10.16418554 43.90079428 -13.18701363 43.89722633 C-14.61847383 43.89241544 -16.04993039 43.88096286 -17.48127556 43.86218834 C-35.51090348 43.6405732 -50.35870787 48.24367051 -62.21679688 62.31567383 Z M-87.21679688 98.31567383 C-88.03668847 108.04856864 -88.03668847 108.04856864 -86.21679688 111.31567383 C-63.15613582 111.3390003 -40.0954767 111.35665176 -17.03480625 111.367486 C-6.3281318 111.37264949 4.37853533 111.3796932 15.08520508 111.39111328 C24.41356395 111.40105849 33.74191753 111.40752687 43.07028157 111.40976232 C48.01279262 111.41106971 52.95528851 111.4141573 57.89779472 111.42140388 C62.54421548 111.42816154 67.19061475 111.43029131 71.83703995 111.42878151 C73.54754439 111.42905795 75.25804951 111.43106458 76.96854973 111.4348793 C79.29350812 111.43981258 81.61838405 111.43867349 83.94334412 111.43592834 C85.24768119 111.43685014 86.55201826 111.43777193 87.8958807 111.43872166 C90.67810857 111.64622118 90.67810857 111.64622118 91.78320312 110.31567383 C91.78320312 106.35567383 91.78320312 102.39567383 91.78320312 98.31567383 C32.71320313 98.31567383 -26.35679688 98.31567383 -87.21679688 98.31567383 Z " fill="#000000" transform="translate(140.216796875,101.684326171875)"/>
<path d="M0 0 C1.08507631 -0.00935994 1.08507631 -0.00935994 2.19207335 -0.01890898 C4.61670212 -0.03486756 7.04032954 -0.0222243 9.46496582 -0.00964355 C11.20289192 -0.01506343 12.94081342 -0.02218533 14.6787262 -0.03088379 C19.39979607 -0.04913617 24.12051672 -0.04204174 28.84159279 -0.02936745 C33.77917049 -0.01924969 38.71671802 -0.02862972 43.65429688 -0.03491211 C51.9465472 -0.04219208 60.23865508 -0.03259162 68.53088379 -0.0135498 C78.1217444 0.0082196 87.71226491 0.00116848 97.30311728 -0.02085543 C105.53337058 -0.03899945 113.76352141 -0.04157264 121.99378824 -0.03110075 C126.91123436 -0.02486033 131.82852054 -0.02404526 136.74595642 -0.0372467 C141.36879355 -0.04879007 145.99119162 -0.04080729 150.61398125 -0.01766968 C152.31193245 -0.01237447 154.00992053 -0.01391023 155.70785713 -0.02272034 C158.02326847 -0.03362792 160.33726696 -0.01997212 162.65258789 0 C164.59715252 0.00226215 164.59715252 0.00226215 166.58100128 0.00457001 C170.38578413 0.59471489 171.54746763 1.46261447 173.82629395 4.50793457 C175.00220368 8.19245175 175.16110733 9.79047732 173.51379395 13.32043457 C171.82629395 15.50793457 171.82629395 15.50793457 169.82629395 16.50793457 C167.53192679 16.61124705 165.2344693 16.64749453 162.93778992 16.65510559 C161.86246056 16.66062062 161.86246056 16.66062062 160.76540738 16.66624707 C158.35104406 16.67730478 155.93672375 16.68113126 153.52233887 16.68493652 C151.79618695 16.69119956 150.0700364 16.69784622 148.34388733 16.70484924 C143.64547747 16.72227294 138.94707781 16.73281458 134.24864364 16.74105477 C131.31482691 16.74620167 128.38101336 16.75227752 125.44719887 16.7585659 C116.27257617 16.77762118 107.09796154 16.79185201 97.92332286 16.80017787 C87.32407371 16.80995473 76.72503315 16.83628453 66.12585753 16.87667876 C57.93896848 16.90681162 49.75213931 16.92164402 41.56519586 16.92495888 C36.67280191 16.92731247 31.78063072 16.93631295 26.88829613 16.96142006 C22.28605506 16.98465656 17.68418411 16.98895191 13.08189964 16.97865868 C11.39241303 16.97816214 9.70290848 16.98451731 8.01347733 16.99821472 C5.70712201 17.01586823 3.40210442 17.00886103 1.0957489 16.99568176 C-0.19492902 16.99807012 -1.48560694 17.00045847 -2.81539631 17.0029192 C-6.74154328 16.42424047 -8.40038488 15.29395882 -11.17370605 12.50793457 C-11.8026123 10.50793457 -11.8026123 10.50793457 -11.73620605 8.50793457 C-11.73749512 7.84793457 -11.73878418 7.18793457 -11.7401123 6.50793457 C-10.02503073 0.45192239 -5.60398505 0.00651924 0 0 Z " fill="#000000" transform="translate(11.1737060546875,75.4920654296875)"/>
<path d="M0 0 C1.16485931 -0.00960754 2.32971863 -0.01921509 3.52987671 -0.02911377 C4.78926056 -0.03336365 6.04864441 -0.03761353 7.34619141 -0.04199219 C8.63965485 -0.04769226 9.93311829 -0.05339233 11.26577759 -0.05926514 C14.00450025 -0.06976392 16.74319365 -0.07561394 19.48193359 -0.07910156 C22.98465914 -0.08458457 26.48699563 -0.1086126 29.98959923 -0.13707352 C33.33762246 -0.16021976 36.68559231 -0.1621507 40.03369141 -0.16699219 C41.28902679 -0.17933899 42.54436218 -0.19168579 43.83773804 -0.20440674 C45.00890167 -0.20140564 46.18006531 -0.19840454 47.38671875 -0.1953125 C48.41469574 -0.19895813 49.44267273 -0.20260376 50.50180054 -0.20635986 C54.96091686 0.37454041 57.53803669 2.34690487 60.60791016 5.53222656 C63.64517128 10.48824105 62.85605307 16.62710771 62.76025391 22.22363281 C62.76734375 23.39474609 62.77443359 24.56585938 62.78173828 25.77246094 C62.70846427 35.6531796 62.70846427 35.6531796 59.32275391 40.16113281 C55.61199616 43.67762891 53.34592679 44.66462824 48.25073242 44.69458008 C46.44844933 44.71833458 46.44844933 44.71833458 44.60975647 44.74256897 C43.32008469 44.7376091 42.0304129 44.73264923 40.70166016 44.72753906 C39.35554068 44.73277855 38.00942488 44.73905622 36.66331482 44.74632263 C33.84641201 44.75671274 31.03001478 44.75218675 28.21313477 44.73754883 C24.61373732 44.72037012 21.01593765 44.7438487 17.41671848 44.77903843 C14.63784833 44.80106385 11.85935743 44.79955872 9.08042717 44.79127312 C7.11180831 44.79006071 5.14321276 44.80994672 3.17469788 44.83021545 C-6.78223737 44.72662614 -6.78223737 44.72662614 -10.41186523 41.93432617 C-15.47896938 35.73136939 -15.01280786 29.92164982 -14.98974609 22.22363281 C-15.00585938 21.15177734 -15.02197266 20.07992188 -15.03857422 18.97558594 C-15.04269057 12.32768388 -14.55497458 7.63838806 -10.17724609 2.34863281 C-7.0325351 -0.14093006 -3.83524122 0.02551384 0 0 Z M1.32275391 16.16113281 C1.32275391 20.12113281 1.32275391 24.08113281 1.32275391 28.16113281 C16.17275391 28.16113281 31.02275391 28.16113281 46.32275391 28.16113281 C46.32275391 24.20113281 46.32275391 20.24113281 46.32275391 16.16113281 C31.47275391 16.16113281 16.62275391 16.16113281 1.32275391 16.16113281 Z " fill="#000000" transform="translate(241.67724609375,263.8388671875)"/>
<path d="M0 0 C1.00112823 -0.0038269 2.00225647 -0.00765381 3.03372192 -0.01159668 C5.15025844 -0.01431698 7.26682851 -0.0069476 9.38330078 0.00976562 C12.61437517 0.0311281 15.84321456 0.00999052 19.07421875 -0.015625 C21.13281739 -0.01298087 23.19141464 -0.00785412 25.25 0 C26.69401688 -0.01214539 26.69401688 -0.01214539 28.16720581 -0.02453613 C33.85230673 0.05444375 37.30153335 0.64181309 41.7578125 4.53125 C45.44770078 10.06608242 44.94059211 15.95819501 44.9453125 22.40625 C44.95755859 23.27894531 44.96980469 24.15164063 44.98242188 25.05078125 C44.99713419 31.57324265 44.93648094 37.13187326 40.34301758 42.19067383 C36.0074859 45.62951841 31.35175339 45.23180342 26.03125 45.16015625 C25.00601227 45.16256821 23.98077454 45.16498016 22.92446899 45.16746521 C20.76438516 45.16648845 18.60427576 45.15313585 16.44433594 45.12817383 C13.13650765 45.09378841 9.83134056 45.10754401 6.5234375 45.12695312 C4.42186363 45.12005658 2.32029664 45.11038594 0.21875 45.09765625 C-1.26415024 45.10509605 -1.26415024 45.10509605 -2.77700806 45.11268616 C-9.60431265 44.99533171 -9.60431265 44.99533171 -12.86499023 42.62304688 C-15.21643381 39.05148712 -14.71023444 36.74367242 -14.2421875 32.53125 C-12.43055483 29.85693511 -11.36457673 29.57204641 -8.2421875 28.53125 C-5.43792298 28.44606133 -2.659224 28.4153648 0.14453125 28.43359375 C0.96154007 28.4350087 1.77854889 28.43642365 2.62031555 28.43788147 C5.22868518 28.44347706 7.83696884 28.45602871 10.4453125 28.46875 C12.21419147 28.47376557 13.98307178 28.47832838 15.75195312 28.48242188 C20.08727269 28.49344504 24.42252802 28.51070662 28.7578125 28.53125 C28.7578125 24.57125 28.7578125 20.61125 28.7578125 16.53125 C27.63286377 16.55219727 26.50791504 16.57314453 25.34887695 16.59472656 C21.16508776 16.66726523 16.98135389 16.7130999 12.79711914 16.75097656 C10.9881047 16.77106053 9.17915493 16.79833341 7.37036133 16.83300781 C4.76627629 16.88166892 2.16305135 16.90425051 -0.44140625 16.921875 C-1.64950203 16.95284271 -1.64950203 16.95284271 -2.88200378 16.98443604 C-6.87842754 16.98602388 -8.78519666 16.81955593 -12.25292969 14.63183594 C-14.2421875 12.53125 -14.2421875 12.53125 -14.87109375 10.53125 C-14.84917969 9.87125 -14.82726563 9.21125 -14.8046875 8.53125 C-14.80597656 7.87125 -14.80726562 7.21125 -14.80859375 6.53125 C-12.72613486 -0.82198414 -6.32121905 -0.05294407 0 0 Z " fill="#000000" transform="translate(14.2421875,263.46875)"/>
<path d="M0 0 C6.07606498 7.36914059 6.7644538 14.66036881 6 24 C4.29124996 30.64997626 -0.46481518 35.18618551 -6 39 C-12.03542458 42.00761961 -18.42225189 41.80967923 -25 41 C-31.65403032 38.53326844 -36.80663017 34.37279481 -40 28 C-42.7233537 20.73772348 -42.6804808 14.42938246 -40.03515625 7.20703125 C-36.86279692 0.44332174 -31.92057347 -3.44148496 -25 -6 C-15.64247086 -8.58825274 -7.41277501 -6.02853953 0 0 Z M-24 12 C-25.82230326 14.37691729 -26.02436639 15.51267228 -25.875 18.5 C-24.76307812 21.67691965 -23.75310837 23.04384405 -21 25 C-17.05983987 25.56288002 -14.94217804 25.60396028 -11.5625 23.4375 C-9.39603972 20.05782196 -9.43711998 17.94016013 -10 14 C-11.7764804 11.58906232 -13.2158392 10.3920804 -15.875 9.0625 C-19.20388739 8.96459155 -21.22613574 10.25125949 -24 12 Z " fill="#000000" transform="translate(383,369)"/>
<path d="M0 0 C4.93063887 5.25412015 6.41876114 10.36396284 6.75 17.5 C6.43405228 24.60882375 4.83586791 29.716178 0 35 C-7.41997105 41.02261303 -14.62032563 41.79921486 -24 41 C-30.81265544 39.00710874 -34.95128943 34.54704557 -39.3125 29.125 C-42.41395989 23.2922133 -41.85028175 16.35054179 -41 10 C-38.55548804 2.70465961 -34.08365018 -1.40808545 -27.37890625 -4.9453125 C-17.65416391 -9.25677462 -7.9689216 -6.58009093 0 0 Z M-24 12 C-25.54586876 15.09173752 -25.29359521 17.59429552 -25 21 C-23.58333333 23.58333333 -23.58333333 23.58333333 -21 25 C-17.05983987 25.56288002 -14.94217804 25.60396028 -11.5625 23.4375 C-9.39603972 20.05782196 -9.43711998 17.94016013 -10 14 C-11.7764804 11.58906232 -13.2158392 10.3920804 -15.875 9.0625 C-19.14031702 8.96646126 -21.24912829 10.34947697 -24 12 Z " fill="#000000" transform="translate(127,369)"/>
<path d="M0 0 C0.66 -0.02191406 1.32 -0.04382813 2 -0.06640625 C5.37833961 0.9959232 6.19552017 2.49661382 8 5.5625 C8.62171327 9.7453681 8.58410368 13.9023403 8.56640625 18.125 C8.57570412 19.96106812 8.57570412 19.96106812 8.58518982 21.83422852 C8.59228736 24.41975103 8.58911526 27.00531925 8.57641602 29.59082031 C8.56254947 33.54838035 8.59662891 37.50357707 8.63476562 41.4609375 C8.6357168 43.97395891 8.6338581 46.48698329 8.62890625 49 C8.64216446 50.18343994 8.65542267 51.36687988 8.66908264 52.58618164 C8.57640249 60.75484403 8.57640249 60.75484403 5.68334961 64.80859375 C2.13197639 67.12986253 0.16004355 67.31887155 -4 66.5625 C-7.49590645 63.06974649 -8.5018164 60.72640417 -8.51757812 55.82592773 C-8.53018677 54.69803329 -8.54279541 53.57013885 -8.55578613 52.4080658 C-8.54768921 51.19961502 -8.53959229 49.99116425 -8.53125 48.74609375 C-8.5350769 47.49748062 -8.53890381 46.24886749 -8.54284668 44.9624176 C-8.5455668 42.32504564 -8.54021935 39.68916093 -8.52148438 37.05200195 C-8.49867043 33.676761 -8.5118386 30.3027907 -8.53577423 26.92759609 C-8.5537228 23.70038334 -8.5411488 20.47332309 -8.53125 17.24609375 C-8.53934692 16.03561874 -8.54744385 14.82514374 -8.55578613 13.57798767 C-8.54317749 12.45324539 -8.53056885 11.32850311 -8.51757812 10.16967773 C-8.51439575 9.18104233 -8.51121338 8.19240692 -8.50793457 7.17381287 C-7.61598448 2.58826017 -4.671817 -0.00912464 0 0 Z " fill="#000000" transform="translate(358,191.4375)"/>
<path d="M0 0 C1.7634375 -0.01643555 1.7634375 -0.01643555 3.5625 -0.03320312 C13.32139294 0.04996926 13.32139294 0.04996926 18 4.5625 C18.6640625 6.5625 18.6640625 6.5625 18.625 8.5625 C18.63789063 9.2225 18.65078125 9.8825 18.6640625 10.5625 C17.63056159 13.67516158 15.67660788 14.75787682 13 16.5625 C8.69582299 17.36112659 4.37041885 17.16573307 0 17.125 C-1.175625 17.14884766 -2.35125 17.17269531 -3.5625 17.19726562 C-13.1491953 17.18092467 -13.1491953 17.18092467 -16.2734375 14.21484375 C-18.41763338 10.92093197 -18.80283718 9.41611848 -18 5.5625 C-13.6106882 -1.18035682 -7.43518987 -0.15082348 0 0 Z " fill="#000000" transform="translate(399,276.4375)"/>
</svg>
