<?xml version="1.0" encoding="UTF-8"?>
<svg version="1.1" xmlns="http://www.w3.org/2000/svg" width="512" height="512">
<path d="M0 0 C8.626917 6.02591768 14.86351723 14.13115908 16.8359375 24.64453125 C17.63166198 36.4629964 16.57202253 45.54040371 9.8359375 55.64453125 C13.27758601 56.83073049 16.73256066 57.91524103 20.234375 58.90625 C31.2019124 62.02848427 41.57559861 65.66427366 51.8359375 70.64453125 C52.76865479 71.08853271 52.76865479 71.08853271 53.72021484 71.54150391 C68.35034441 78.58451296 81.1469887 88.42081424 92.8359375 99.64453125 C93.72667969 100.48371094 94.61742187 101.32289062 95.53515625 102.1875 C123.48600215 129.20275273 141.53640217 168.90730964 142.953125 207.8671875 C142.95949414 210.13141725 142.93380502 212.38270408 142.8359375 214.64453125 C143.51398438 214.598125 144.19203125 214.55171875 144.890625 214.50390625 C154.05887905 214.14835069 160.98803673 216.03480253 168.1484375 221.89453125 C173.92885377 227.33561134 177.56118634 233.05830038 178.0390625 241.03515625 C178.18626233 253.15460863 176.74152604 259.43426962 168.25 268.4375 C162.06216273 274.09466514 155.50995325 275.7617601 147.31434631 275.79170227 C146.66108807 275.79537896 146.00782982 275.79905565 145.33477587 275.80284375 C143.14773644 275.81384924 140.96074457 275.81771901 138.77368164 275.8215332 C137.20486806 275.82780001 135.63605597 275.83444701 134.06724548 275.84144592 C128.9185387 275.86245536 123.7698317 275.87284245 118.62109375 275.8828125 C116.84806236 275.88686062 115.07503112 275.89097756 113.30200005 275.89516258 C104.9752748 275.91420401 96.64855838 275.92843966 88.32181555 275.93677455 C78.7085258 275.94655639 69.09546573 275.97290489 59.48225695 276.01327544 C52.05115978 276.0434126 44.62012857 276.05824097 37.18897146 276.06155556 C32.75043537 276.06390796 28.31214496 276.07289349 23.87367439 276.09801674 C19.69984064 276.12126191 15.52641499 276.12554521 11.35253334 276.11525536 C9.82107436 276.11475908 8.28959552 276.12110647 6.75819778 276.1348114 C4.66647874 276.15248336 2.57623201 276.1454496 0.48451233 276.13227844 C-0.68557845 276.1346668 -1.85566923 276.13705515 -3.06121731 276.13951588 C-6.81434969 275.54079351 -8.48220553 274.28671206 -11.1640625 271.64453125 C-11.828125 269.64453125 -11.828125 269.64453125 -11.7890625 267.64453125 C-11.80195313 266.98453125 -11.81484375 266.32453125 -11.828125 265.64453125 C-10.78872033 262.51408894 -8.86989459 261.44413272 -6.1640625 259.64453125 C-3.11365604 259.1451025 -3.11365604 259.1451025 0.35716248 259.14573669 C1.67638702 259.13615936 2.99561157 259.12658203 4.35481262 259.11671448 C5.81003037 259.12621139 7.26524582 259.13606526 8.72045898 259.14624023 C10.25824509 259.14241583 11.79602763 259.13679575 13.33380127 259.1295166 C16.6416235 259.11757244 19.94912829 259.11805025 23.2569561 259.12811089 C28.48888943 259.14367854 33.72049702 259.12998887 38.95240784 259.11207581 C49.11501073 259.08125993 59.27751405 259.07975443 69.44015503 259.08172607 C82.3723425 259.08311901 95.30445331 259.07276464 108.23658425 259.03314835 C113.43589434 259.01822037 118.63491584 259.01848061 123.8342303 259.03062618 C127.07077349 259.0353403 130.30720644 259.02781239 133.54373169 259.01708221 C135.04250735 259.01467811 136.54130154 259.01740425 138.04005623 259.02569008 C140.08957077 259.03634152 142.13824105 259.02853789 144.18772888 259.01634216 C145.90634959 259.01722163 145.90634959 259.01722163 147.6596899 259.01811886 C152.64912993 258.43126506 155.85727363 256.72621237 159.2109375 253.01953125 C161.29088223 248.69964604 161.66324165 245.35509978 160.8359375 240.64453125 C158.41063241 235.60735913 155.90960419 233.77847161 150.8359375 231.64453125 C147.86582116 231.20219904 147.86582116 231.20219904 144.74203491 231.26700783 C143.53550074 231.25918459 142.32896656 231.25136134 141.08587074 231.24330103 C139.11049607 231.25333928 139.11049607 231.25333928 137.09521484 231.26358032 C135.67537768 231.26012252 134.25554321 231.25535712 132.83571434 231.24939859 C128.93863955 231.23687574 125.04178517 231.24306476 121.14470959 231.25235724 C116.94014683 231.25914214 112.73562211 231.24866928 108.53106689 231.24041748 C100.29613301 231.22707199 92.06128112 231.22996152 83.82634401 231.2386554 C77.13412077 231.24542833 70.44192051 231.24635036 63.74969482 231.24308395 C62.79751583 231.24262425 61.84533684 231.24216456 60.86430395 231.24169093 C58.93001953 231.24073176 56.99573512 231.23975912 55.06145072 231.23877315 C36.92021489 231.23021687 18.77902453 231.24005714 0.63779616 231.25617425 C-14.93094512 231.26957765 -30.4996193 231.26724962 -46.06835938 231.25341797 C-64.14432315 231.23736637 -82.22024706 231.23104086 -100.29621696 231.24025476 C-102.22341791 231.24121042 -104.15061886 231.24215353 -106.07781982 231.24308395 C-107.02605956 231.24354678 -107.97429929 231.24400961 -108.95127356 231.24448646 C-115.63608419 231.24707761 -122.32086955 231.24270265 -129.00567627 231.23564529 C-137.15133027 231.22723477 -145.29689754 231.229501 -153.4425416 231.24548753 C-157.59922211 231.25337628 -161.75575797 231.25645157 -165.91243744 231.24654007 C-169.71708288 231.23760513 -173.52144947 231.24250604 -177.32606959 231.25847273 C-179.35537859 231.26341481 -181.38470693 231.25361326 -183.41399574 231.24330103 C-184.62052992 231.25112428 -185.82706409 231.25894752 -187.07015991 231.26700783 C-188.1096195 231.26749488 -189.14907909 231.26798194 -190.22003746 231.26848376 C-194.60248322 231.82826423 -197.99878324 233.35870586 -200.9765625 236.64453125 C-203.36296095 240.66372865 -203.47549969 244.05083273 -203.1640625 248.64453125 C-201.56499499 252.80210678 -200.01718015 255.35674265 -196.1640625 257.64453125 C-192.83039831 258.75575265 -190.34488013 258.77201632 -186.83192444 258.77583313 C-186.18698215 258.77794884 -185.54203987 258.78006456 -184.87755388 258.78224438 C-182.71270448 258.7882442 -180.54791336 258.78724425 -178.38305664 258.78637695 C-176.83247275 258.78940841 -175.28188974 258.79292983 -173.73130798 258.79690552 C-170.3902635 258.8047951 -167.04922971 258.80993962 -163.70817757 258.81319618 C-158.42662914 258.81910326 -153.14514821 258.83564006 -147.8636322 258.85453796 C-146.05608086 258.86087529 -144.24852947 258.86720092 -142.44097805 258.87351513 C-141.08317126 258.87826385 -141.08317126 258.87826385 -139.69793403 258.8831085 C-127.40060398 258.92520495 -115.10330553 258.95817205 -102.8059082 258.97045898 C-94.51239267 258.97883062 -86.2190443 259.00128656 -77.92561239 259.03981465 C-73.53575498 259.05960324 -69.14614763 259.0719706 -64.75624275 259.06698036 C-60.62831883 259.06234497 -56.50086938 259.07607798 -52.37304115 259.10399246 C-50.85731819 259.11092261 -49.34154635 259.11101123 -47.82582474 259.10379219 C-45.75770991 259.0949362 -43.69117081 259.11054087 -41.6231842 259.13227844 C-40.4656215 259.1346668 -39.3080588 259.13705515 -38.11541843 259.13951588 C-34.51905087 259.75490113 -33.36289836 260.78576599 -31.1640625 263.64453125 C-29.98815276 267.32904843 -29.82924912 268.927074 -31.4765625 272.45703125 C-33.1640625 274.64453125 -33.1640625 274.64453125 -35.1640625 275.64453125 C-37.24233696 275.74730685 -39.32396977 275.78406132 -41.4047699 275.79170227 C-42.3757439 275.7972173 -42.3757439 275.7972173 -43.36633354 275.80284375 C-45.5455812 275.81389763 -47.72478121 275.8177274 -49.90405273 275.8215332 C-51.46283622 275.82779691 -53.02161821 275.83444363 -54.58039856 275.84144592 C-59.7111405 275.8625117 -64.84188281 275.8728553 -69.97265625 275.8828125 C-71.73997577 275.88686007 -73.50729513 275.89097699 -75.27461433 275.89516258 C-83.58320498 275.91422513 -91.89178672 275.92845009 -100.20039505 275.93677455 C-109.77968544 275.9465309 -119.35874377 275.97280389 -128.93795246 276.01327544 C-136.34702254 276.04349901 -143.75602639 276.0582496 -151.1651569 276.06155556 C-155.5871475 276.0639003 -160.0088905 276.07278419 -164.43081474 276.09801674 C-168.59807435 276.12140981 -172.7649254 276.12548594 -176.93223381 276.11525536 C-178.4547207 276.11476249 -179.97722846 276.12100882 -181.49965286 276.1348114 C-193.25886315 276.23538001 -203.59368026 275.07439749 -212.44140625 266.64453125 C-218.9660779 259.06940226 -220.5469987 251.80948426 -220.4375 242.03125 C-219.74165065 233.41265882 -215.73117403 226.23092102 -209.1640625 220.64453125 C-202.90598865 216.76818967 -197.2931574 214.4849379 -189.9140625 214.58203125 C-189.02203125 214.59105469 -188.13 214.60007813 -187.2109375 214.609375 C-186.19773437 214.62677734 -186.19773437 214.62677734 -185.1640625 214.64453125 C-185.12667969 213.61457031 -185.08929688 212.58460938 -185.05078125 211.5234375 C-183.16226687 167.67140532 -164.47254705 127.84436168 -133.07421875 97.2421875 C-110.23259758 76.85335786 -83.18917739 62.86185302 -53.1640625 56.64453125 C-53.1640625 52.48483749 -55.03355181 49.82787595 -56.97265625 46.21484375 C-60.76184695 38.0401307 -60.13360078 27.84547952 -57.6015625 19.39453125 C-53.56742341 8.66513676 -45.96899075 1.2809196 -35.7890625 -3.73046875 C-24.11036112 -8.03314821 -10.39934497 -6.51366914 0 0 Z M-36.9140625 16.515625 C-41.36018138 22.16946367 -43.67812601 26.97822725 -43.47265625 34.2421875 C-42.57331751 41.2433688 -39.38720974 46.11197515 -33.9453125 50.453125 C-29.599003 53.36019605 -26.59413324 53.93991812 -21.2890625 53.95703125 C-20.09539062 53.97378906 -18.90171875 53.99054687 -17.671875 54.0078125 C-11.89409019 53.40944503 -8.1343274 51.15534812 -4.4140625 46.76953125 C-3.84171875 46.11210938 -3.269375 45.4546875 -2.6796875 44.77734375 C1.35575519 39.09860223 1.5855084 33.40015756 0.8359375 26.64453125 C-0.93029938 20.46799031 -4.83743259 16.12179069 -10.1640625 12.64453125 C-18.9836874 8.38073908 -30.07816365 9.20670636 -36.9140625 16.515625 Z M-132.23828125 119.9375 C-154.89762802 145.4486387 -169.1640625 180.39169985 -169.1640625 214.64453125 C-71.4840625 214.64453125 26.1959375 214.64453125 126.8359375 214.64453125 C126.8359375 176.22185319 110.45005119 140.90678165 83.8359375 113.64453125 C83.12308594 112.86980469 82.41023437 112.09507813 81.67578125 111.296875 C56.35558104 84.46219552 18.1970801 71.20611665 -17.91796875 69.515625 C-61.82700049 68.59958122 -102.78234796 87.85725821 -132.23828125 119.9375 Z " fill="#000000" transform="translate(334.1640625,5.35546875)"/>
<path d="M0 0 C1.79200333 -0.01210762 1.79200333 -0.01210762 3.62020874 -0.02445984 C6.13985777 -0.03823386 8.65952493 -0.04898559 11.17919922 -0.05688477 C13.731339 -0.06839257 16.28345495 -0.08882507 18.83544922 -0.1184082 C45.95352788 -0.43210447 45.95352788 -0.43210447 58.3984375 4.23828125 C60.0997583 4.83829956 60.0997583 4.83829956 61.83544922 5.45043945 C65.42493613 6.75609346 68.97421332 8.13951844 72.5234375 9.55078125 C73.83595701 10.067584 75.14862414 10.584012 76.46142578 11.10009766 C79.2716601 12.20761257 82.07909006 13.32190662 84.88476562 14.44091797 C88.01595387 15.68965541 91.15029979 16.93000209 94.28710938 18.16455078 C98.47011319 19.81132514 102.64822176 21.46999454 106.82318115 23.13705444 C108.43962186 23.78107389 110.0573177 24.42195312 111.67633057 25.05947876 C125.13088593 30.36724716 137.51600506 35.41201801 143.8359375 49.42578125 C144.43719509 52.43206922 144.43650444 55.18023686 144.3984375 58.23828125 C145.3972998 57.93349854 146.39616211 57.62871582 147.42529297 57.31469727 C170.402813 50.31009901 193.41668389 43.4335888 216.46878815 36.67878342 C218.38892417 36.11606922 220.30893385 35.55292399 222.22894287 34.98977661 C225.86836898 33.92278308 229.50828904 32.85749503 233.1484375 31.79296875 C234.76179489 31.32024284 234.76179489 31.32024284 236.40774536 30.83796692 C241.40733691 29.3786638 246.41210849 27.93952425 251.4296875 26.54321289 C252.29658203 26.30188126 253.16347656 26.06054962 254.05664062 25.81190491 C263.30970192 23.54536552 273.05432411 24.70567644 281.3984375 29.23828125 C289.50977195 34.57738747 294.07972103 42.04030252 297.03515625 51.21484375 C298.8513742 61.33098244 297.29153089 69.91200449 291.9609375 78.57421875 C283.44460294 90.57078619 270.43729681 95.86907513 257.3984375 101.48828125 C255.70891397 102.22604006 254.01987227 102.96490322 252.33129883 103.70483398 C249.7856463 104.81983262 247.23950853 105.93356945 244.69087219 107.04173279 C239.5036463 109.29969724 234.35179158 111.62110312 229.22265625 114.0078125 C227.99301654 114.57493038 226.76320455 115.14167488 225.53320312 115.70800781 C223.30359137 116.73817687 221.07920186 117.77975814 218.86132812 118.83496094 C212.72608907 121.6361767 208.16184623 123.08621107 201.3984375 122.23828125 C199.00028549 120.32370294 198.43805622 119.36845705 197.5234375 116.36328125 C197.37015203 112.53114461 198.13987895 111.29316682 200.3984375 108.23828125 C202.81762695 106.6550293 202.81762695 106.6550293 205.69921875 105.3125 C206.77252441 104.8076709 207.84583008 104.3028418 208.95166016 103.78271484 C214.18546458 101.43754933 219.42462901 99.11186599 224.69863892 96.85821533 C226.63987159 96.02770688 228.57840607 95.19116198 230.51635742 94.35302734 C236.8651283 91.60880917 243.22269393 88.88749481 249.59375 86.1953125 C251.79956637 85.25150587 254.00529995 84.30750569 256.2109375 83.36328125 C257.21084717 82.94796143 258.21075684 82.5326416 259.2409668 82.10473633 C267.58258231 78.51228911 276.14186605 74.04316872 279.80859375 65.2734375 C281.32178131 60.05243936 280.95495112 55.93427045 278.7109375 50.98828125 C276.22478426 46.5008628 273.30419052 43.87353226 268.3984375 42.23828125 C260.08141961 41.44462203 252.9793611 43.12033053 245.09765625 45.61328125 C243.92647751 45.96987823 242.75529877 46.32647522 241.54862976 46.69387817 C239.03102813 47.46243999 236.51579366 48.2361251 234.00286865 49.01959229 C230.0444869 50.25352344 226.07983215 51.46631199 222.11376953 52.67529297 C218.01153263 53.92673206 213.90966072 55.17928405 209.80993652 56.43893433 C196.68005377 60.4724441 183.52115691 64.40418379 170.35073853 68.30322266 C166.81049501 69.35230003 163.27173985 70.40628316 159.7331543 71.4609375 C157.58779279 72.09787498 155.4423699 72.73460574 153.296875 73.37109375 C152.31643723 73.66396271 151.33599945 73.95683167 150.32585144 74.25857544 C149.43634293 74.52145355 148.54683441 74.78433167 147.63037109 75.05517578 C146.85648041 75.28512238 146.08258972 75.51506897 145.2852478 75.75198364 C143.3984375 76.23828125 143.3984375 76.23828125 141.3984375 76.23828125 C141.2128125 76.91890625 141.0271875 77.59953125 140.8359375 78.30078125 C137.81000607 84.48420635 132.57612577 89.07694377 126.13206482 91.50679016 C115.44089845 94.36763841 104.23120093 91.50061559 93.76953125 88.9140625 C92.32199229 88.56644165 90.87423863 88.21971375 89.42628479 87.87382507 C86.4211028 87.15201261 83.41902593 86.41873599 80.41870117 85.67700195 C76.5844387 84.73023887 72.74350455 83.8145741 68.89971828 82.90736103 C65.92051236 82.20037118 62.94560465 81.47650324 59.97169685 80.74757957 C58.55647981 80.4029686 57.13994878 80.06370547 55.72210503 79.7300663 C53.74472556 79.2622361 51.77342368 78.76894152 49.80249023 78.2746582 C48.68333725 78.00152298 47.56418427 77.72838776 46.41111755 77.44697571 C42.77661186 75.98880331 40.87528885 74.24936759 38.3984375 71.23828125 C37.77352227 67.28048476 37.78836911 65.22964239 39.8984375 61.80078125 C44.21788901 59.10112405 48.63828327 59.89951974 53.45556641 60.82666016 C56.47343609 61.52342349 59.48030813 62.25244491 62.48190308 63.01622009 C64.49892278 63.52919173 66.51859559 64.03022365 68.53930664 64.52844238 C73.55436202 65.76746962 78.56435992 67.02646309 83.57458496 68.28485107 C87.81954555 69.35020941 92.06628989 70.40784694 96.31564331 71.45555115 C98.29387178 71.94658964 100.26907527 72.44866371 102.24438477 72.95129395 C112.83680767 75.93945057 112.83680767 75.93945057 123.2109375 73.80078125 C126.73967973 69.66711178 128.51331084 65.31988343 128.30859375 59.828125 C127.35657486 54.39708389 125.51333202 52.00802983 121.3984375 48.23828125 C111.03993198 42.15202517 98.88262005 38.33850582 87.73388672 33.94262695 C84.53512382 32.68039268 81.33971867 31.4099256 78.14453125 30.13867188 C56.02846757 21.36913111 37.40264032 15.70788953 13.38793945 16.40478516 C10.47037083 16.48801215 7.55290707 16.55001632 4.63476562 16.609375 C-28.33300124 17.38180383 -54.23842108 27.86488429 -81.68212891 45.97558594 C-92.67355622 53.20627305 -103.80113502 58.31218873 -116.4765625 61.86328125 C-117.46269531 62.14945312 -118.44882813 62.435625 -119.46484375 62.73046875 C-126.80967538 64.83172097 -134.13730382 66.51576002 -141.6015625 68.23828125 C-141.6015625 101.56828125 -141.6015625 134.89828125 -141.6015625 169.23828125 C-129.7215625 164.61828125 -117.8415625 159.99828125 -105.6015625 155.23828125 C-96.39849189 151.74429303 -87.19299745 148.25901888 -77.9765625 144.80078125 C-73.54638389 143.13672043 -69.1167904 141.47111091 -64.6875 139.8046875 C-63.6417128 139.41186584 -62.5959256 139.01904419 -61.51844788 138.61431885 C-56.77443104 136.82842793 -52.03824369 135.02712399 -47.32202148 133.16894531 C-46.51096954 132.84957504 -45.6999176 132.53020477 -44.86428833 132.20115662 C-43.39868176 131.62138723 -41.93460305 131.03772898 -40.47262573 130.4488678 C-27.10547859 125.15150314 -13.49231563 123.05488556 0.8359375 122.98828125 C1.91037109 122.96765625 2.98480469 122.94703125 4.09179688 122.92578125 C19.08159608 122.85486558 32.10275886 126.39927436 45.8359375 131.98828125 C47.19490368 132.52841596 48.55436611 133.06730367 49.91430664 133.60498047 C58.31628501 136.93916785 66.68384562 140.36313052 74.98828125 143.93359375 C89.89264959 149.63583777 105.384104 149.47780383 120.0703125 143.234375 C120.7968956 142.93047348 121.5234787 142.62657196 122.27207947 142.3134613 C128.07531633 139.8600351 133.80613719 137.25522401 139.52734375 134.6171875 C140.38204758 134.2236911 141.2367514 133.8301947 142.11735535 133.42477417 C145.62845206 131.80612963 149.13883098 130.1865395 152.63891602 128.54418945 C155.2413877 127.32547914 157.85208865 126.12615989 160.46484375 124.9296875 C161.24517471 124.55791885 162.02550568 124.18615021 162.82948303 123.80311584 C167.9538831 121.48084241 171.76610554 120.72423589 177.3984375 121.23828125 C179.8984375 122.80078125 179.8984375 122.80078125 181.3984375 125.23828125 C181.9609375 128.67578125 181.9609375 128.67578125 181.3984375 132.23828125 C177.5238858 137.05139488 173.07906632 139.07400551 167.5390625 141.41796875 C166.67641785 141.79382111 165.81377319 142.16967346 164.92498779 142.55691528 C162.17080533 143.7535081 159.4098229 144.93342097 156.6484375 146.11328125 C154.83938783 146.89738646 153.03078957 147.68253401 151.22265625 148.46875 C146.80054586 150.38664212 142.36911485 152.28148972 137.93139648 154.16296387 C136.27140763 154.86767913 134.61266476 155.57533826 132.95532227 156.28625488 C120.86846581 161.46803344 110.8958048 164.59302413 97.6484375 164.55078125 C96.15570313 164.57495117 96.15570313 164.57495117 94.6328125 164.59960938 C81.29708523 164.60820198 69.69378264 160.47617749 57.5234375 155.42578125 C56.26469584 154.91119621 55.00558139 154.39752211 53.74609375 153.88476562 C51.233934 152.8606509 48.72316356 151.83325046 46.21362305 150.80273438 C42.26668825 149.18347908 38.318126 147.5686026 34.36328125 145.96875 C33.1837085 145.48946045 32.00413574 145.0101709 30.78881836 144.51635742 C21.38981343 140.97320262 12.47843074 139.97125484 2.5234375 139.86328125 C1.66290771 139.8492627 0.80237793 139.83524414 -0.08422852 139.82080078 C-14.92753533 139.92809185 -28.27500635 144.17389486 -41.9765625 149.42578125 C-43.62019757 150.04454162 -45.26425201 150.66218899 -46.90869141 151.27880859 C-51.25599516 152.91317093 -55.59671126 154.564313 -59.93554688 156.2210083 C-63.492822 157.57835959 -67.05254903 158.92921915 -70.61216736 160.28041077 C-75.06787177 161.97232021 -79.52217446 163.6679099 -83.9765625 165.36328125 C-84.85335663 165.69677582 -85.73015076 166.03027039 -86.6335144 166.37387085 C-95.00453307 169.55867503 -103.37365773 172.74580603 -111.70800781 176.02560425 C-114.63261399 177.17405731 -117.56242199 178.30881445 -120.4932251 179.44134521 C-121.83178148 179.96276682 -123.16781715 180.49071813 -124.50091553 181.02593994 C-132.21617433 184.12204293 -139.21205401 186.48677426 -147.6015625 185.23828125 C-152.24590953 183.04277175 -155.54445255 179.98148132 -157.6015625 175.23828125 C-158.18191285 171.58372138 -158.14830479 167.97351469 -158.11914062 164.27929688 C-158.1261499 163.185905 -158.13315918 162.09251312 -158.14038086 160.96598816 C-158.15795864 157.35857607 -158.14633808 153.75195106 -158.1328125 150.14453125 C-158.13550746 147.63399098 -158.1393899 145.12345173 -158.14440918 142.61291504 C-158.15030395 137.35400388 -158.14212427 132.09529668 -158.12304688 126.83642578 C-158.10127969 120.76619061 -158.10833179 114.69649292 -158.1303525 108.62627077 C-158.15072759 102.77427839 -158.14852539 96.92248945 -158.13682556 91.07048035 C-158.13415835 88.58578923 -158.13742779 86.10108439 -158.14674377 83.6164093 C-158.15690907 80.14299247 -158.14140675 76.67060579 -158.11914062 73.19726562 C-158.12723755 72.1716301 -158.13533447 71.14599457 -158.14367676 70.08927917 C-158.07514503 64.31489974 -157.59514701 60.74436565 -153.6015625 56.23828125 C-145.57847919 51.00754556 -135.50916849 49.28807745 -126.32275391 46.89453125 C-112.17465663 43.18435521 -99.70231177 37.91954008 -87.6640625 29.55078125 C-61.14974195 11.23749948 -32.23045875 0.21042877 0 0 Z " fill="#000000" transform="translate(157.6015625,326.76171875)"/>
<path d="M0 0 C1.33536552 -0.00639748 1.33536552 -0.00639748 2.69770813 -0.01292419 C3.67181641 -0.01247101 4.64592468 -0.01201782 5.64955139 -0.0115509 C7.19138847 -0.01658882 7.19138847 -0.01658882 8.76437378 -0.02172852 C12.17020366 -0.03124582 15.57598442 -0.03318197 18.98182678 -0.03425598 C21.34450298 -0.03746781 23.70717897 -0.04083182 26.06985474 -0.04434204 C31.02546144 -0.05033511 35.98105069 -0.05218174 40.93666077 -0.05158997 C47.29343405 -0.05148829 53.65009579 -0.06514588 60.00684261 -0.08236217 C64.88723263 -0.09346809 69.76759554 -0.09550961 74.6479969 -0.09498024 C76.99199877 -0.09616228 79.3360013 -0.10059651 81.67999077 -0.10831261 C84.95508061 -0.11808482 88.22992656 -0.11524542 91.50502014 -0.10920715 C92.96314621 -0.11763641 92.96314621 -0.11763641 94.45072937 -0.12623596 C95.34379288 -0.12204147 96.23685638 -0.11784698 97.15698242 -0.11352539 C97.93107924 -0.11407016 98.70517607 -0.11461493 99.50273037 -0.1151762 C101.94822503 0.16934215 103.54319187 0.86397144 105.64198303 2.13371277 C107.73877706 4.8295908 107.63709124 6.22665677 107.45448303 9.69621277 C106.63364898 13.16897222 106.37348712 14.06761417 103.64198303 16.13371277 C101.56610203 16.5140295 101.56610203 16.5140295 99.1321106 16.52139282 C98.2082103 16.53129745 97.28431 16.54120209 96.33241272 16.55140686 C95.32090149 16.54690521 94.30939026 16.54240356 93.26722717 16.5377655 C92.2003215 16.54462875 91.13341583 16.551492 90.03417969 16.55856323 C86.49836515 16.57690308 82.96299129 16.57298335 79.42713928 16.56730652 C76.97478083 16.5718649 74.52242366 16.57716944 72.07006836 16.58319092 C66.92609981 16.5921362 61.7822864 16.58968274 56.63832092 16.57975769 C50.03925523 16.56826726 43.44072455 16.5884741 36.84172916 16.61767483 C31.77601711 16.636002 26.71043407 16.63575127 21.64469719 16.63003731 C19.21137682 16.62988366 16.77804794 16.63596349 14.34475899 16.64832878 C10.94487363 16.66317044 7.54598706 16.65261094 4.14613342 16.63542175 C2.63190292 16.64992371 2.63190292 16.64992371 1.08708191 16.66471863 C-5.69214654 16.59277904 -5.69214654 16.59277904 -8.98718262 14.32110596 C-10.99666638 11.11464189 -10.82102935 8.8378118 -10.35801697 5.13371277 C-7.84434106 0.58515637 -4.95293328 0.01072784 0 0 Z " fill="#000000" transform="translate(87.35801696777344,33.86628723144531)"/>
<path d="M0 0 C0.75347717 -0.00700928 1.50695435 -0.01401855 2.28326416 -0.02124023 C4.76474261 -0.03879236 7.2450732 -0.02720819 9.7265625 -0.01367188 C11.45621967 -0.01636761 13.18587535 -0.02025071 14.91552734 -0.02526855 C18.53693092 -0.0311598 22.15793931 -0.02261289 25.77929688 -0.00390625 C30.4165696 0.01888333 35.05291627 0.00575821 39.69015503 -0.01819611 C43.26073153 -0.03266432 46.8310892 -0.02804345 50.40167236 -0.01768494 C52.11126821 -0.01502047 53.82088405 -0.01827758 55.53045654 -0.02760315 C57.92187974 -0.03778596 60.31181255 -0.02224536 62.703125 0 C63.406651 -0.00809692 64.110177 -0.01619385 64.83502197 -0.02453613 C69.58541768 0.05714844 72.02371688 1.14268121 75.3515625 4.51757812 C76.015625 6.51757812 76.015625 6.51757812 75.9765625 8.51757812 C75.99589844 9.50757812 75.99589844 9.50757812 76.015625 10.51757812 C74.9640114 13.68479086 73.1160158 14.72199354 70.3515625 16.51757812 C67.6624947 16.90464091 65.38597887 17.06603338 62.703125 17.03515625 C61.57290924 17.04567017 61.57290924 17.04567017 60.41986084 17.05639648 C57.93838239 17.07394861 55.4580518 17.06236444 52.9765625 17.04882812 C51.24690533 17.05152386 49.51724965 17.05540696 47.78759766 17.0604248 C44.16619408 17.06631605 40.54518569 17.05776914 36.92382812 17.0390625 C32.2865554 17.01627292 27.65020873 17.02939804 23.01296997 17.05335236 C19.44239347 17.06782057 15.8720358 17.0631997 12.30145264 17.05284119 C10.59185679 17.05017672 8.88224095 17.05343383 7.17266846 17.0627594 C4.78124526 17.07294221 2.39131245 17.05740161 0 17.03515625 C-0.703526 17.04325317 -1.407052 17.0513501 -2.13189697 17.05969238 C-6.88229268 16.97800781 -9.32059188 15.89247504 -12.6484375 12.51757812 C-13.3125 10.51757812 -13.3125 10.51757812 -13.2734375 8.51757812 C-13.28632812 7.85757813 -13.29921875 7.19757813 -13.3125 6.51757812 C-11.2904665 0.42768899 -5.57018362 -0.06410758 0 0 Z " fill="#000000" transform="translate(89.6484375,81.482421875)"/>
<path d="M0 0 C1.26811523 -0.01260864 2.53623047 -0.02521729 3.84277344 -0.03820801 C5.22331295 -0.03104817 6.60384739 -0.02284418 7.984375 -0.01367188 C9.40397406 -0.0163675 10.82357131 -0.02025051 12.24316406 -0.02526855 C15.21567394 -0.03116045 18.18770241 -0.02261142 21.16015625 -0.00390625 C24.96696287 0.01888413 28.77264149 0.00575925 32.57940674 -0.01819611 C35.51001456 -0.03266301 38.44035574 -0.02804423 41.37097168 -0.01768494 C42.77437474 -0.01502007 44.17780215 -0.01827905 45.58117676 -0.02760315 C47.54369635 -0.03778128 49.50630102 -0.01951228 51.46875 0 C52.58475586 0.00318237 53.70076172 0.00636475 54.85058594 0.00964355 C58.40459148 0.63562633 59.5927073 1.65493557 61.734375 4.51757812 C62.20356183 8.27107274 62.26573881 10.55606266 60.421875 13.89257812 C57.30626565 16.89279454 54.0728223 16.65185087 49.96533203 16.67871094 C48.78045197 16.68831848 47.5955719 16.69792603 46.37478638 16.70782471 C45.09352875 16.71207458 43.81227112 16.71632446 42.4921875 16.72070312 C41.17652802 16.7264032 39.86086853 16.73210327 38.50534058 16.73797607 C35.71953953 16.74847531 32.93376726 16.75432504 30.14794922 16.7578125 C26.58469242 16.76329568 23.02181803 16.78732395 19.45868111 16.81578445 C16.05319058 16.83892856 12.6477526 16.8408615 9.2421875 16.84570312 C7.32637375 16.86422333 7.32637375 16.86422333 5.37185669 16.88311768 C4.1806723 16.88011658 2.98948792 16.87711548 1.76220703 16.87402344 C0.71646515 16.87766907 -0.32927673 16.8813147 -1.40670776 16.8850708 C-4.71221259 16.46017259 -6.59292023 15.47735514 -9.265625 13.51757812 C-10.81149376 10.42584061 -10.55922021 7.9232826 -10.265625 4.51757812 C-7.24175528 0.44183891 -4.95486505 0.01412916 0 0 Z " fill="#000000" transform="translate(87.265625,129.482421875)"/>
<path d="M0 0 C1.38691544 -0.01441132 1.38691544 -0.01441132 2.80184937 -0.02911377 C3.79874786 -0.03336365 4.79564636 -0.03761353 5.82275391 -0.04199219 C6.84986481 -0.04769226 7.87697571 -0.05339233 8.93521118 -0.05926514 C11.10897797 -0.06871352 13.28275906 -0.07524847 15.45654297 -0.07910156 C18.77938851 -0.08880897 22.101616 -0.11983504 25.42431641 -0.15136719 C27.5362919 -0.15789719 29.64827182 -0.16314767 31.76025391 -0.16699219 C32.75310394 -0.17933899 33.74595398 -0.19168579 34.76889038 -0.20440674 C43.50333328 -0.17624849 43.50333328 -0.17624849 47.42431641 3.16113281 C49.42431641 6.16113281 49.42431641 6.16113281 49.23681641 9.66113281 C48.20590595 14.10197784 48.20590595 14.10197784 45.42431641 16.16113281 C43.11634827 16.54881287 43.11634827 16.54881287 40.3737793 16.56518555 C39.34583755 16.57786972 38.31789581 16.59055389 37.25880432 16.60362244 C35.59469765 16.59921898 35.59469765 16.59921898 33.89697266 16.59472656 C32.18627846 16.60258934 32.18627846 16.60258934 30.44102478 16.61061096 C28.02766739 16.61703827 25.61427869 16.61568506 23.20092773 16.60717773 C19.50464143 16.59867382 15.80990282 16.627412 12.11376953 16.65917969 C9.77067104 16.66079187 7.4275698 16.66021385 5.08447266 16.65722656 C3.97709244 16.66846054 2.86971222 16.67969452 1.72877502 16.69126892 C0.69768112 16.68188797 -0.33341278 16.67250702 -1.39575195 16.6628418 C-2.30159531 16.66267563 -3.20743866 16.66250946 -4.14073181 16.66233826 C-7.37257657 15.99710201 -8.57049613 14.73576213 -10.57568359 12.16113281 C-11.04487042 8.4076382 -11.1070474 6.12264828 -9.26318359 2.78613281 C-6.45402337 0.08101556 -3.71355683 0.03118047 0 0 Z " fill="#000000" transform="translate(87.57568359375,176.8388671875)"/>
</svg>
