<?xml version="1.0" encoding="UTF-8"?>
<svg version="1.1" xmlns="http://www.w3.org/2000/svg" width="512" height="512">
<path d="M0 0 C1.73057431 -0.00679667 1.73057431 -0.00679667 3.49610972 -0.01373065 C6.68993626 -0.02418819 9.88362091 -0.02570265 13.0774591 -0.02334189 C16.52544623 -0.0229332 19.97339996 -0.03397797 23.42137146 -0.04345703 C30.17371292 -0.060057 36.92601946 -0.06556614 43.67837963 -0.06668179 C49.16871677 -0.06763281 54.65904241 -0.07174581 60.14937592 -0.07808304 C75.72379677 -0.0956933 91.29819009 -0.10492233 106.87262097 -0.10342209 C108.13157111 -0.10330222 108.13157111 -0.10330222 109.41595459 -0.10317993 C110.67644639 -0.10305729 110.67644639 -0.10305729 111.96240267 -0.10293217 C125.57705112 -0.1021195 139.19158887 -0.12125295 152.8062053 -0.14945666 C166.79374492 -0.17820367 180.78123059 -0.19199594 194.7688005 -0.19026911 C202.61845942 -0.1896058 210.46800231 -0.19507212 218.31763458 -0.21662521 C225.00184323 -0.23486103 231.68588328 -0.23916479 238.37010607 -0.22560637 C241.7780031 -0.21908851 245.18557689 -0.21891608 248.59344292 -0.23631287 C252.29459795 -0.25176114 255.99490792 -0.2424584 259.69604492 -0.22705078 C261.29792077 -0.24248147 261.29792077 -0.24248147 262.93215775 -0.25822389 C273.29170855 -0.16313223 281.09649571 2.91930287 288.621521 10.04476929 C293.95929865 16.03529293 296.73571761 22.31119229 296.71551514 30.31137085 C296.71543961 31.31210632 296.71536407 32.3128418 296.71528625 33.34390259 C296.71012497 34.41694641 296.70496368 35.48999023 296.699646 36.59555054 C296.69752357 38.25176422 296.69752357 38.25176422 296.69535828 39.94143677 C296.68976232 43.46679395 296.67721053 46.99208756 296.66448975 50.51742554 C296.65947422 52.90804962 296.65491141 55.2986747 296.65081787 57.68930054 C296.63979422 63.54869722 296.62306008 69.40805684 296.60198975 75.26742554 C297.69890137 75.25896606 298.79581299 75.25050659 299.92596436 75.24179077 C316.65854299 75.35847542 331.13866254 85.2118539 342.777771 96.34945679 C356.72109305 110.94256472 362.22121725 129.54106728 361.871521 149.40023804 C361.13481068 167.66920217 353.65440782 183.56482101 340.60198975 196.26742554 C339.84273193 197.04730835 339.08347412 197.82719116 338.3012085 198.63070679 C328.39358489 208.27888362 313.09205586 216.10045193 298.89715576 216.30673218 C298.13975098 216.29376099 297.38234619 216.28078979 296.60198975 216.26742554 C296.54715929 228.95113291 296.53576798 241.6340836 296.5786438 254.3178587 C296.59721727 260.20861977 296.60126499 266.09861968 296.57122803 271.98934937 C296.54274684 277.68267709 296.55358227 283.37473881 296.59078979 289.0680027 C296.5981917 291.23151205 296.59182591 293.39511711 296.57095337 295.55853844 C296.4521041 308.98998121 297.23754259 317.53527245 305.60198975 328.26742554 C306.88392356 330.40954543 308.1387878 332.56828892 309.355896 334.74789429 C310.28450439 336.37972656 310.28450439 336.37972656 311.23187256 338.04452515 C311.86963623 339.16995728 312.5073999 340.2953894 313.16448975 341.45492554 C314.56572963 343.91909596 315.96865316 346.38230664 317.371521 348.84555054 C317.72382782 349.46461777 318.07613464 350.083685 318.43911743 350.72151184 C322.05076496 357.06435319 325.69950946 363.38550981 329.35198975 369.70492554 C331.17762335 372.86785255 333.00285202 376.031013 334.82806396 379.19418335 C336.01391245 381.24860955 337.20043969 383.30264411 338.38763428 385.35629272 C340.06649347 388.26231693 341.74102801 391.1707907 343.41448975 394.07992554 C343.91239014 394.93964966 344.41029053 395.79937378 344.92327881 396.68515015 C351.07328871 407.39999297 351.07328871 407.39999297 350.28948975 412.82992554 C350.14060303 413.94560913 350.14060303 413.94560913 349.9887085 415.08383179 C349.60198975 417.26742554 349.60198975 417.26742554 348.90838623 419.08529663 C348.46497523 422.24323091 349.6576201 423.67993116 351.31292725 426.36508179 C351.89816162 427.33123413 352.483396 428.29738647 353.08636475 429.29281616 C353.710271 430.29506226 354.33417725 431.29730835 354.97698975 432.32992554 C356.19541117 434.3194191 357.41165938 436.31024572 358.62542725 438.30258179 C359.17118408 439.18309204 359.71694092 440.06360229 360.27923584 440.97079468 C363.27694133 446.17555945 363.47712496 451.61205308 362.09417725 457.38851929 C360.29166427 461.87730159 357.7700249 464.06252273 353.68792725 466.57211304 C352.21054077 467.48259399 352.21054077 467.48259399 350.70330811 468.41146851 C345.67920052 471.41810204 340.62246697 474.36152439 335.53948975 477.26742554 C333.84521438 478.2405099 332.15094144 479.21359853 330.45680237 480.18692017 C328.70030439 481.19565235 326.94318941 482.20330289 325.18597412 483.21078491 C319.21442707 486.63582305 313.25246327 490.07749171 307.28948975 493.51742554 C305.64484741 494.46488647 305.64484741 494.46488647 303.96697998 495.43148804 C302.94290039 496.02187866 301.9188208 496.61226929 300.8637085 497.22055054 C299.96611816 497.73778687 299.06852783 498.25502319 298.14373779 498.78793335 C296.38250594 499.81310529 294.63195525 500.85676494 292.89031982 501.91488647 C288.54865116 504.48107067 284.61988708 504.68558365 279.60198975 504.26742554 C273.00434502 502.26388546 268.9860965 498.18961236 265.60198975 492.26742554 C265.60198975 491.60742554 265.60198975 490.94742554 265.60198975 490.26742554 C265.01966335 490.26894442 264.43733696 490.2704633 263.83736432 490.27202821 C229.30765036 490.36158193 194.77795963 490.43019268 160.24815417 490.47168685 C156.10014865 490.47668955 151.95214336 490.48186686 147.80413818 490.4871521 C146.978361 490.48820134 146.15258381 490.48925058 145.30178307 490.49033162 C131.93895865 490.50772675 118.57620322 490.53925951 105.21341969 490.57603672 C91.49728519 490.61347099 77.78118676 490.63566664 64.06500328 490.64377952 C55.6044896 490.64926214 47.14417093 490.66656518 38.6837173 490.6990914 C32.87844708 490.72027001 27.07327737 490.72661803 21.26797135 490.72143105 C17.92078276 490.71887438 14.57420806 490.7249356 11.22703362 490.74424744 C7.59126124 490.76419391 3.95631832 490.75934662 0.32052612 490.7484436 C-0.72813814 490.76009497 -1.7768024 490.77174634 -2.85724437 490.78375077 C-12.69538972 490.70418942 -20.47242545 487.90729662 -27.644104 481.12680054 C-34.03008016 474.35681246 -36.71162258 468.11232429 -36.65527916 458.66981125 C-36.66053827 457.5470614 -36.66053827 457.5470614 -36.66590363 456.40162975 C-36.67521376 453.89138706 -36.67029533 451.38137658 -36.66543579 448.87112427 C-36.66917225 447.05403398 -36.67377375 445.2369453 -36.67916644 443.41985917 C-36.69141246 438.42460895 -36.69113408 433.42942562 -36.68877769 428.43416381 C-36.68836992 423.04751408 -36.6994048 417.66088592 -36.70889282 412.27424622 C-36.72551269 401.71987877 -36.73100282 391.16553366 -36.73211758 380.61115423 C-36.7330676 372.03252701 -36.73717563 363.45390717 -36.74351883 354.87528229 C-36.76113409 330.55753404 -36.77035728 306.23980345 -36.76885788 281.92204878 C-36.76873801 279.95518068 -36.76873801 279.95518068 -36.76861572 277.94857788 C-36.76853396 276.63573288 -36.7684522 275.32288788 -36.76836796 273.9702597 C-36.76755503 252.69279455 -36.78669384 231.41540019 -36.81489246 210.13795552 C-36.84361285 188.29457252 -36.85743321 166.45122406 -36.8557049 144.6078217 C-36.8550407 132.34276291 -36.86054628 120.07777831 -36.882061 107.81273651 C-36.90026168 97.36995212 -36.90462927 86.92727557 -36.89104216 76.4844822 C-36.88450688 71.1566751 -36.88441568 65.82907494 -36.90174866 60.50128746 C-36.91745945 55.62192834 -36.91463597 50.74294059 -36.89718039 45.86359063 C-36.89410612 44.10047959 -36.89775897 42.33734098 -36.90890054 40.57426247 C-36.98127697 28.3065624 -36.09442657 18.31782934 -27.3237915 9.02133179 C-19.06071279 1.49572866 -10.8945465 -0.03133486 0 0 Z M-19.27301025 19.14242554 C-20.10445557 20.12855835 -20.10445557 20.12855835 -20.95269775 21.13461304 C-31.08150333 36.08144505 -24.39801025 59.69890342 -24.39801025 74.26742554 C77.57198975 74.26742554 179.54198975 74.26742554 284.60198975 74.26742554 C288.32402661 44.36950633 288.32402661 44.36950633 278.89105225 18.24398804 C278.34191162 17.79797241 277.792771 17.35195679 277.22698975 16.89242554 C276.68300537 16.43094116 276.139021 15.96945679 275.57855225 15.49398804 C269.52908785 11.73997258 263.37026009 11.98191076 256.49423218 12.00672913 C255.37177326 12.00290358 254.24931433 11.99907803 253.09284151 11.99513656 C249.32973007 11.98481356 245.56677141 11.98879745 241.8036499 11.99276733 C239.10641473 11.98842047 236.40919078 11.9833019 233.71195984 11.97727966 C227.14477131 11.96453537 220.57762368 11.96273865 214.01042487 11.96507993 C208.67167281 11.96686361 203.33293316 11.96511236 197.99418259 11.96085548 C197.23408097 11.9602603 196.47397935 11.95966511 195.69084435 11.95905188 C194.1466444 11.95784012 192.60244446 11.95662598 191.05824451 11.9554095 C176.57901977 11.94453492 162.09981833 11.94669602 147.62059228 11.95279435 C134.37966943 11.95796297 121.13882016 11.94670938 107.89791186 11.92769613 C94.29684706 11.90831569 80.69581706 11.90006212 67.09473836 11.90381938 C59.46090675 11.90573118 51.82713776 11.90324604 44.19331741 11.88910484 C37.69425469 11.87718742 31.19529312 11.87579015 24.696229 11.88789501 C21.38178393 11.89378133 18.06756194 11.89326062 14.75312233 11.88289261 C11.15648137 11.87245307 7.5603376 11.8805041 3.9637146 11.89320374 C2.92109927 11.88582945 1.87848394 11.87845517 0.8042742 11.87085742 C-6.93342737 11.9283345 -14.08161399 12.75874688 -19.27301025 19.14242554 Z M-24.39801025 86.26742554 C-24.39801025 191.20742554 -24.39801025 296.14742554 -24.39801025 404.26742554 C45.23198975 404.26742554 114.86198975 404.26742554 186.60198975 404.26742554 C190.8311781 395.78434031 190.8311781 395.78434031 189.60198975 388.26742554 C187.86013425 384.71513143 185.91048026 381.30719003 183.91448975 377.89242554 C183.34303223 376.89888062 182.77157471 375.90533569 182.18280029 374.88168335 C180.33226994 371.67118515 178.46790921 368.46900062 176.60198975 365.26742554 C175.29962396 363.02019337 173.99754073 360.77279743 172.69573975 358.52523804 C170.27046959 354.34740491 167.84187452 350.1715747 165.402771 346.00180054 C164.66280884 344.73674683 164.66280884 344.73674683 163.90789795 343.44613647 C162.85500153 341.68953755 161.73800582 339.97144964 160.60198975 338.26742554 C157.62315392 337.80172236 157.62315392 337.80172236 154.06365967 337.86679077 C153.39174591 337.85981171 152.71983215 337.85283264 152.02755737 337.84564209 C149.79573188 337.82557877 147.56436647 337.82616509 145.3324585 337.82601929 C143.77460999 337.81424248 142.21677275 337.8008775 140.65895081 337.78599548 C136.54247934 337.74970925 132.42610735 337.72959476 128.30950928 337.71444702 C121.76034508 337.68970207 115.21140176 337.6493331 108.66243935 337.59254646 C106.39111097 337.57643532 104.11999556 337.57245752 101.84861755 337.5695343 C82.19904461 337.47271887 66.52983913 333.93031901 51.605896 320.46664429 C44.42084242 312.99354847 39.95052646 303.25571623 38.16448975 293.14242554 C37.41174645 288.84844029 37.41174645 288.84844029 34.7543335 285.60336304 C32.70638896 284.57009882 30.81450161 283.85623918 28.60198975 283.26742554 C25.60198975 282.26742554 25.60198975 282.26742554 24.53948975 280.51742554 C24.23011475 279.77492554 23.92073975 279.03242554 23.60198975 278.26742554 C23.25909912 277.52879272 22.9162085 276.79015991 22.56292725 276.02914429 C20.45059356 269.95833161 20.74107579 262.80485614 22.78948975 256.76742554 C26.8275992 251.19761939 30.39334866 248.79606222 36.60198975 246.26742554 C36.61133545 245.27114136 36.62068115 244.27485718 36.63031006 243.24838257 C36.98954676 210.6143292 39.24632468 182.44344905 62.78948975 157.51742554 C82.14530553 138.99730654 108.01984666 131.72153904 134.324646 132.05258179 C157.21690565 132.72209201 178.47083602 141.08640314 195.60198975 156.26742554 C196.28648193 156.85781616 196.97097412 157.44820679 197.6762085 158.05648804 C212.50547482 171.74952374 221.4560828 193.33272678 222.72807312 213.24076843 C222.81073421 215.3628489 222.86975299 217.48413923 222.918396 219.60726929 C222.93917709 220.37422623 222.95995819 221.14118317 222.98136902 221.93138123 C223.04619806 224.35581425 223.10543596 226.78034567 223.16448975 229.20492554 C223.20773853 230.85923215 223.25135474 232.51352921 223.29534912 234.16781616 C223.40180999 238.2009212 223.50326037 242.23412413 223.60198975 246.26742554 C224.14613525 246.52137085 224.69028076 246.77531616 225.25091553 247.03695679 C225.96747314 247.38113647 226.68403076 247.72531616 227.42230225 248.07992554 C228.13144775 248.41637085 228.84059326 248.75281616 229.57122803 249.09945679 C233.88295643 251.57929673 236.74679989 255.69831166 238.60198975 260.26742554 C239.50666262 267.46671701 239.47092694 273.74032648 235.027771 279.68539429 C232.32604681 282.68319784 230.01131784 284.89232744 226.06292725 285.94320679 C223.29108006 287.08486545 223.29108006 287.08486545 222.48480225 290.28695679 C222.23472412 291.53863647 221.984646 292.79031616 221.72698975 294.07992554 C219.01857139 305.995815 213.14405839 318.3745345 202.60198975 325.26742554 C203.16570389 328.53696756 204.1016124 330.09318437 206.60198975 332.26742554 C207.44761475 331.48367554 208.29323975 330.69992554 209.16448975 329.89242554 C213.37957155 326.39964648 217.58677802 325.49133795 222.97698975 324.89242554 C227.72789178 325.38389816 231.37868178 327.12844886 235.60198975 329.26742554 C236.35093506 329.64125366 237.09988037 330.01508179 237.871521 330.40023804 C238.44257568 330.68640991 239.01363037 330.97258179 239.60198975 331.26742554 C240.54171631 330.63514038 240.54171631 330.63514038 241.50042725 329.99008179 C242.72632568 329.16830444 242.72632568 329.16830444 243.97698975 328.32992554 C244.78909912 327.7846521 245.6012085 327.23937866 246.43792725 326.67758179 C251.01728147 323.69356216 255.04723645 324.06098656 260.43792725 323.93930054 C264.50058693 323.07661231 265.21476952 321.56198353 267.60198975 318.26742554 C270.18792725 316.53695679 270.18792725 316.53695679 272.97698975 315.07992554 C274.34984131 314.34709351 274.34984131 314.34709351 275.75042725 313.59945679 C278.60198975 312.26742554 278.60198975 312.26742554 284.60198975 310.26742554 C284.60198975 279.24742554 284.60198975 248.22742554 284.60198975 216.26742554 C278.99198975 214.94742554 273.38198975 213.62742554 267.60198975 212.26742554 C248.7909298 205.62822791 235.27823614 193.04168031 226.60198975 175.26742554 C225.01455665 171.65318054 223.70451826 168.05664194 222.60198975 164.26742554 C222.26554443 163.14400757 222.26554443 163.14400757 221.92230225 161.99789429 C217.4778049 144.12857961 221.07655465 125.50954246 229.62542725 109.52133179 C234.74721099 101.08962061 240.83899611 94.61425488 248.730896 88.72836304 C249.34835693 88.24625366 249.96581787 87.76414429 250.60198975 87.26742554 C250.60198975 86.93742554 250.60198975 86.60742554 250.60198975 86.26742554 C159.85198975 86.26742554 69.10198975 86.26742554 -24.39801025 86.26742554 Z M267.60198975 91.26742554 C266.20980225 91.86877319 266.20980225 91.86877319 264.78948975 92.48226929 C251.11113244 99.18544154 240.7452524 110.54084466 235.262146 124.73617554 C230.08387904 140.8053883 230.5150166 156.23565785 237.72698975 171.57992554 C241.18517006 178.03665461 245.36408142 183.18051998 250.60198975 188.26742554 C251.14210693 188.82816772 251.68222412 189.38890991 252.2387085 189.96664429 C262.18431889 199.51142403 276.93271939 204.12271683 290.41448975 204.70492554 C307.65238595 204.18049219 321.50322106 197.32344239 333.60198975 185.26742554 C334.16659912 184.72601929 334.7312085 184.18461304 335.31292725 183.62680054 C345.00522759 173.47296208 349.24527768 158.93184382 349.97698975 145.20492554 C348.22120915 126.76922925 341.7815246 111.63228061 327.57855225 99.40805054 C310.03941896 86.7946056 287.8970089 82.47107892 267.60198975 91.26742554 Z M65.91448975 172.07992554 C54.1078781 186.19229899 48.60198975 204.04374668 48.60198975 222.26742554 C102.39198975 222.26742554 156.18198975 222.26742554 211.60198975 222.26742554 C210.07342875 202.39613263 205.2398547 184.3328621 191.60198975 169.26742554 C190.7492749 168.27742554 190.7492749 168.27742554 189.8793335 167.26742554 C175.21010921 151.32126241 153.54534275 144.16841246 132.35369873 143.16049194 C106.14813882 142.7683888 83.70070537 152.98648249 65.91448975 172.07992554 Z M48.60198975 235.26742554 C48.60198975 238.56742554 48.60198975 241.86742554 48.60198975 245.26742554 C50.21424438 245.28929932 50.21424438 245.28929932 51.85906982 245.31161499 C55.84573691 245.36957444 59.83183775 245.44680683 63.8180542 245.52987671 C65.54354667 245.56313726 67.26914824 245.59116572 68.99481201 245.61386108 C71.4750214 245.64738707 73.95423005 245.6996996 76.434021 245.75570679 C77.20599319 245.76209671 77.97796539 245.76848663 78.77333069 245.77507019 C84.14241295 245.92256977 84.14241295 245.92256977 86.30279541 247.54367065 C87.87146942 249.62496781 87.99359322 250.69508563 88.03436279 253.27987671 C88.06405403 254.48078194 88.06405403 254.48078194 88.09434509 255.70594788 C88.10073502 256.56541519 88.10712494 257.42488251 88.1137085 258.31039429 C88.1316597 259.19399124 88.1496109 260.0775882 88.16810608 260.98796082 C88.2222897 263.81023384 88.25613035 266.63233698 88.28948975 269.45492554 C88.32265574 271.36836068 88.35714472 273.28177338 88.39300537 275.19515991 C88.47802074 279.88579269 88.54479337 284.57637438 88.60198975 289.26742554 C90.25813632 289.64961321 91.92655999 289.98137655 93.60198975 290.26742554 C96.83428402 287.03513126 95.81478745 277.32014965 95.918396 272.82992554 C95.93917709 272.06438354 95.95995819 271.29884155 95.98136902 270.51010132 C96.04607111 268.09595573 96.10537515 265.68171373 96.16448975 263.26742554 C96.2077507 261.6176765 96.25136722 259.96793676 96.29534912 258.31820679 C96.40166944 254.3013752 96.5031532 250.28444795 96.60198975 246.26742554 C103.11644179 246.21683164 109.63084343 246.18173698 116.14544678 246.15756226 C118.36291395 246.14748729 120.58036779 246.13382694 122.79779053 246.11654663 C125.97995286 246.0923639 129.16193999 246.08095757 132.34417725 246.07211304 C133.83798416 246.05662918 133.83798416 246.05662918 135.36196899 246.04083252 C136.74317429 246.04060593 136.74317429 246.04060593 138.15228271 246.04037476 C138.96502655 246.03593353 139.77777039 246.03149231 140.61514282 246.0269165 C142.60198975 246.26742554 142.60198975 246.26742554 144.60198975 248.26742554 C144.8236748 251.25338745 144.92736569 254.15376679 144.94573975 257.14242554 C144.96036255 258.02269409 144.97498535 258.90296265 144.99005127 259.80990601 C145.05246159 263.58531214 145.09196164 267.36088441 145.13372803 271.13656616 C145.16739468 273.88869609 145.21252501 276.64047374 145.25823975 279.39242554 C145.2661554 280.67995728 145.2661554 280.67995728 145.27423096 281.99349976 C145.14138865 286.60961303 145.14138865 286.60961303 147.60198975 290.26742554 C150.38436629 289.86213652 150.38436629 289.86213652 152.60198975 288.26742554 C152.72367267 286.29205584 152.78170533 284.31269948 152.81292725 282.33383179 C152.84128662 281.12791382 152.869646 279.92199585 152.89886475 278.67953491 C152.95086586 276.11718013 152.99516151 273.55465715 153.03167725 270.99203491 C153.06261475 269.78482788 153.09355225 268.57762085 153.12542725 267.33383179 C153.14524658 266.21951782 153.16506592 265.10520386 153.18548584 263.9571228 C153.32293213 263.06952271 153.46037842 262.18192261 153.60198975 261.26742554 C156.82572652 259.11826769 157.86902648 258.88455751 161.60198975 259.26742554 C163.60198975 261.26742554 163.60198975 261.26742554 164.53948975 264.32992554 C164.89011475 265.29930054 165.24073975 266.26867554 165.60198975 267.26742554 C167.08698975 267.76242554 167.08698975 267.76242554 168.60198975 268.26742554 C171.73682601 266.67991792 171.73682601 266.67991792 172.00262451 264.41976929 C172.0160791 263.68887085 172.02953369 262.95797241 172.043396 262.20492554 C172.06982178 261.40828491 172.09624756 260.61164429 172.12347412 259.79086304 C172.14377686 258.54176147 172.14377686 258.54176147 172.16448975 257.26742554 C172.19888831 255.62139078 172.24147251 253.9755007 172.293396 252.32992554 C172.30572266 251.5990271 172.31804932 250.86812866 172.33074951 250.11508179 C172.60198975 248.26742554 172.60198975 248.26742554 174.60198975 246.26742554 C177.39415766 246.02173282 180.09439579 245.89379416 182.89105225 245.85336304 C183.70947601 245.83399689 184.52789978 245.81463074 185.37112427 245.79467773 C187.98963951 245.73481472 190.60819856 245.68847022 193.22698975 245.64242554 C195.0004466 245.60425189 196.7738848 245.56520053 198.54730225 245.52523804 C202.89871349 245.42910782 207.25021154 245.34510203 211.60198975 245.26742554 C211.60198975 241.96742554 211.60198975 238.66742554 211.60198975 235.26742554 C157.81198975 235.26742554 104.02198975 235.26742554 48.60198975 235.26742554 Z M34.60198975 260.26742554 C32.42976596 262.91187189 32.60305654 264.29729572 32.72698975 267.76742554 C33.68337034 271.59294791 34.47273408 272.94283562 37.60198975 275.26742554 C41.42875939 276.65057479 45.41735098 276.39372522 49.43011475 276.36508179 C50.55362335 276.36295937 50.55362335 276.36295937 51.6998291 276.36079407 C54.08392387 276.35521213 56.46792353 276.34266299 58.85198975 276.32992554 C60.47178005 276.3249082 62.09157184 276.3203457 63.71136475 276.31625366 C67.67497223 276.30610098 71.63837495 276.28652218 75.60198975 276.26742554 C75.60198975 269.99742554 75.60198975 263.72742554 75.60198975 257.26742554 C70.72677771 257.1983643 65.85327867 257.13869062 60.97796631 257.10263062 C59.32133212 257.08759089 57.66473744 257.06715377 56.00823975 257.04110718 C53.62011945 257.00451038 51.23252787 256.98765114 48.84417725 256.97445679 C48.10956268 256.95897293 47.37494812 256.94348907 46.61807251 256.92753601 C41.85732455 256.92599554 38.65045887 257.76563592 34.60198975 260.26742554 Z M107.60198975 257.26742554 C107.60198975 263.53742554 107.60198975 269.80742554 107.60198975 276.26742554 C116.18198975 276.26742554 124.76198975 276.26742554 133.60198975 276.26742554 C133.60198975 269.99742554 133.60198975 263.72742554 133.60198975 257.26742554 C125.02198975 257.26742554 116.44198975 257.26742554 107.60198975 257.26742554 Z M184.60198975 257.26742554 C184.49241943 258.13625366 184.38284912 259.00508179 184.2699585 259.90023804 C184.11140381 261.05265991 183.95284912 262.20508179 183.78948975 263.39242554 C183.63866943 264.52937866 183.48784912 265.66633179 183.3324585 266.83773804 C182.57704072 270.3845659 181.35450274 273.10810075 179.60198975 276.26742554 C185.06462286 276.31695077 190.52712456 276.3532045 195.9899292 276.37728882 C197.84737424 276.38733169 199.70480353 276.40096857 201.56219482 276.41830444 C204.23565565 276.44262814 206.908907 276.45392587 209.5824585 276.46273804 C210.40972946 276.47306061 211.23700043 276.48338318 212.08934021 276.49401855 C217.73984903 276.49511228 221.66514348 276.05136289 225.97698975 272.07992554 C227.89902957 269.29468425 227.89902957 269.29468425 227.60198975 265.70492554 C226.5270757 262.0099085 225.62470032 260.57891009 222.60198975 258.26742554 C218.90658573 257.0356242 215.49895597 257.14330442 211.652771 257.16976929 C210.4938459 257.17189171 210.4938459 257.17189171 209.31150818 257.17405701 C206.84579585 257.17965088 204.38017459 257.19220221 201.91448975 257.20492554 C200.24196502 257.20994133 198.56943886 257.2145041 196.89691162 257.21859741 C192.79856928 257.2296183 188.70029495 257.24687869 184.60198975 257.26742554 Z M49.60198975 288.26742554 C51.10546802 300.29525176 55.68478176 308.04598696 64.60198975 316.26742554 C75.68805101 324.65258334 86.95372208 325.70896044 100.45355225 325.56039429 C101.96383235 325.55478718 103.47411797 325.55052236 104.98440552 325.54753113 C108.92671222 325.53616989 112.86867834 325.5067799 116.81085205 325.47341919 C120.84665319 325.44252827 124.88251028 325.42898547 128.918396 325.41390991 C136.81308217 325.38190009 144.70749339 325.33081186 152.60198975 325.26742554 C152.36077393 324.09615112 152.36077393 324.09615112 152.11468506 322.9012146 C150.65990338 315.42779328 151.81649718 309.28089789 154.60198975 302.26742554 C153.42636475 302.32930054 152.25073975 302.39117554 151.03948975 302.45492554 C145.4692843 302.435208 141.28105041 300.9464862 137.28948975 296.95492554 C135.60198975 294.26742554 135.60198975 294.26742554 133.60198975 288.26742554 C125.02198975 288.26742554 116.44198975 288.26742554 107.60198975 288.26742554 C106.28198975 291.23742554 104.96198975 294.20742554 103.60198975 297.26742554 C99.47125717 301.02263697 95.17244098 302.5177829 89.60198975 302.26742554 C84.93835089 301.38557383 82.2755563 300.08279558 79.22698975 296.39242554 C77.60198975 293.26742554 77.60198975 293.26742554 75.60198975 288.26742554 C67.02198975 288.26742554 58.44198975 288.26742554 49.60198975 288.26742554 Z M164.60198975 288.26742554 C163.94198975 290.90742554 163.28198975 293.54742554 162.60198975 296.26742554 C163.23105225 296.17203491 163.86011475 296.07664429 164.50823975 295.97836304 C173.26033795 294.84480815 179.39600231 295.71937094 186.60198975 301.26742554 C188.23096783 303.52293366 189.62186527 305.6182752 190.97698975 308.01742554 C191.33148193 308.61941772 191.68597412 309.22140991 192.0512085 309.84164429 C192.91351511 311.30989609 193.75949612 312.78771592 194.60198975 314.26742554 C197.56768762 313.94305233 198.53511468 313.3393946 200.60198975 311.11508179 C205.64144571 304.09724565 210.60198975 297.16308867 210.60198975 288.26742554 C195.42198975 288.26742554 180.24198975 288.26742554 164.60198975 288.26742554 Z M164.60198975 311.26742554 C163.28544283 315.06069481 163.10930155 317.03950409 164.61517334 320.79257202 C166.20569353 323.82594785 167.90761059 326.76473057 169.66448975 329.70492554 C170.29991699 330.80240112 170.93534424 331.89987671 171.59002686 333.03060913 C172.92045575 335.3228235 174.25647106 337.61005229 175.605896 339.89096069 C177.48231297 343.06498794 179.34231771 346.2478988 181.19573975 349.43539429 C182.93359597 352.42213652 184.67339503 355.40761799 186.4208374 358.38876343 C190.35755198 365.10488411 194.22193419 371.85793362 198.03948975 378.64242554 C202.82682157 387.14839601 207.66323776 395.62471241 212.53948975 404.07992554 C213.15429199 405.14710815 213.76909424 406.21429077 214.40252686 407.31381226 C214.99299805 408.33619995 215.58346924 409.35858765 216.1918335 410.41195679 C216.75934326 411.39518921 217.32685303 412.37842163 217.91156006 413.39144897 C220.03700466 417.0075289 222.25386396 420.56404155 224.50115967 424.1055603 C226.15773445 427.35882481 226.06826232 429.69266917 225.60198975 433.26742554 C219.97698975 435.39242554 219.97698975 435.39242554 216.60198975 434.26742554 C214.91619873 431.79891968 214.91619873 431.79891968 213.0980835 428.55258179 C212.77413101 427.98164291 212.45017853 427.41070404 212.1164093 426.82246399 C211.08206071 424.99637176 210.06025008 423.16364255 209.03948975 421.32992554 C208.01316654 419.50099885 206.9842622 417.67360002 205.95185852 415.84809875 C205.01546434 414.19012121 204.08673961 412.52781912 203.15838623 410.86532593 C201.71662765 408.21994386 201.71662765 408.21994386 199.60198975 406.26742554 C194.52425092 416.93813874 194.52425092 416.93813874 193.60198975 428.26742554 C199.09658179 433.58012764 205.36228104 437.46555393 211.85198975 441.45492554 C212.90450928 442.10622437 213.95702881 442.75752319 215.04144287 443.42855835 C221.68920946 447.52366291 228.36655382 451.5680602 235.10198975 455.51742554 C235.84739014 455.95852661 236.59279053 456.39962769 237.36077881 456.85409546 C241.98109865 459.52511938 246.51163615 461.63519259 251.60198975 463.26742554 C253.65177891 462.49270501 253.65177891 462.49270501 255.60198975 461.26742554 C258.29300575 461.07446509 260.89940018 461.17733922 263.60198975 461.26742554 C263.83273193 461.90937866 264.06347412 462.55133179 264.3012085 463.21273804 C266.06306361 467.35018759 268.22639432 471.21738838 270.41448975 475.14242554 C271.05354248 476.30838257 271.05354248 476.30838257 271.70550537 477.49789429 C274.39226192 482.33486902 277.3027337 486.82498024 280.60198975 491.26742554 C285.66172463 490.77247294 289.18794196 489.72602392 293.5668335 487.16195679 C294.68525635 486.51468628 295.8036792 485.86741577 296.95599365 485.20053101 C298.15063711 484.4939072 299.34513248 483.78703297 300.53948975 483.07992554 C301.78027008 482.3564135 303.02165242 481.63393297 304.26361084 480.91244507 C306.80414625 479.43405163 309.34069486 477.94915557 311.8739624 476.45834351 C315.38381463 474.39322299 318.90356296 472.34580905 322.4262085 470.30258179 C329.71588807 466.0723358 329.71588807 466.0723358 336.98187256 461.80160522 C338.79681239 460.73888794 340.62542756 459.69931454 342.46429443 458.67855835 C343.37340576 458.16390015 344.28251709 457.64924194 345.21917725 457.11898804 C346.0375708 456.6660437 346.85596436 456.21309937 347.69915771 455.74642944 C349.68556154 454.41297005 349.68556154 454.41297005 350.55682373 452.44882202 C350.62391278 449.20860205 349.31286032 447.30638683 347.7074585 444.51351929 C347.08161865 443.41201538 346.45577881 442.31051147 345.81097412 441.17562866 C345.13732312 440.01862447 344.46349311 438.86172449 343.78948975 437.70492554 C343.12627695 436.54474832 342.46415487 435.38394687 341.80316162 434.22250366 C338.33801423 428.16171795 338.33801423 428.16171795 334.60198975 422.26742554 C334.34438695 419.57290032 334.51298921 416.98194179 334.60198975 414.26742554 C335.59198975 413.93742554 336.58198975 413.60742554 337.60198975 413.26742554 C337.06786422 408.84366661 336.01362917 405.73510771 333.75042725 401.90805054 C333.15423584 400.8884021 332.55804443 399.86875366 331.94378662 398.81820679 C330.97022217 397.18432007 330.97022217 397.18432007 329.97698975 395.51742554 C329.29696797 394.36045202 328.61794928 393.20288841 327.93988037 392.04476929 C326.53131651 389.64077406 325.11848334 387.23936781 323.70257568 384.83969116 C320.46181979 379.33907644 317.28535202 373.80137711 314.10198975 368.26742554 C312.86790181 366.12793701 311.63352496 363.98861511 310.39886475 361.84945679 C308.09229118 357.85151646 305.78655848 353.85309358 303.48187256 349.85406494 C302.10392037 347.46315956 300.72564802 345.07243882 299.34735107 342.68173218 C298.37657992 340.99758591 297.406271 339.31317322 296.43597412 337.62875366 C295.55135498 336.09444702 295.55135498 336.09444702 294.64886475 334.52914429 C293.87301025 333.18275879 293.87301025 333.18275879 293.08148193 331.80917358 C292.59324951 330.97039673 292.10501709 330.13161987 291.60198975 329.26742554 C291.09828857 328.35839478 290.5945874 327.44936401 290.07562256 326.51278687 C288.74635341 324.05047408 288.74635341 324.05047408 285.97698975 323.07992554 C280.85284518 323.36460024 277.58832346 326.21123636 273.60198975 329.26742554 C274.13699447 334.01039721 275.46111746 337.26449029 277.87542725 341.36508179 C278.53542725 342.49623413 279.19542725 343.62738647 279.87542725 344.79281616 C280.57575699 345.97196613 281.27627951 347.15100163 281.97698975 348.32992554 C282.67054477 349.51237203 283.36326097 350.69531096 284.05511475 351.87875366 C287.60637303 357.95432528 287.60637303 357.95432528 291.3036499 363.94100952 C292.95938323 366.90781713 292.97382868 368.92087512 292.60198975 372.26742554 C290.60198975 374.26742554 290.60198975 374.26742554 288.65667725 374.46273804 C286.63844808 374.39763387 284.62021891 374.3325297 282.60198975 374.26742554 C282.34530518 373.57519897 282.08862061 372.88297241 281.82415771 372.16976929 C279.62451102 366.94615765 276.65056543 362.11283674 273.8348999 357.20199585 C272.73213772 355.27641464 271.63748732 353.34638103 270.543396 351.41586304 C269.8368523 350.17860532 269.12983648 348.94161708 268.42230225 347.70492554 C267.7856665 346.58988647 267.14903076 345.47484741 266.49310303 344.32601929 C263.12801407 338.59953449 263.12801407 338.59953449 257.72698975 335.20492554 C253.61436884 335.28717796 251.74919466 336.70574712 248.60198975 339.26742554 C247.18380282 342.1037994 247.3509064 344.11253965 247.60198975 347.26742554 C248.88147978 350.30504499 248.88147978 350.30504499 250.74261475 353.29476929 C251.40132568 354.41689819 252.06003662 355.5390271 252.7387085 356.69515991 C253.44278221 357.86529448 254.14721193 359.03521491 254.85198975 360.20492554 C255.54199879 361.37022733 256.23081225 362.53623794 256.918396 363.70297241 C259.25519654 367.65738343 261.60534642 371.60367705 263.96575928 375.54403687 C265.9753461 378.95818804 267.292717 381.23818322 266.60198975 385.26742554 C264.60198975 387.26742554 264.60198975 387.26742554 261.3637085 387.99789429 C257.60198975 387.26742554 257.60198975 387.26742554 256.0067749 385.53549194 C254.33608916 382.94438962 252.86262744 380.30178935 251.41448975 377.57992554 C250.8620459 376.59564575 250.30960205 375.61136597 249.74041748 374.59725952 C248.00496343 371.49930991 246.30357648 368.38407753 244.60198975 365.26742554 C242.97988495 362.35600415 241.34720284 359.45108534 239.70428467 356.55136108 C238.70487499 354.78500312 237.7148633 353.01328218 236.73602295 351.23544312 C233.93351611 346.23178108 231.00558837 341.04611515 226.60198975 337.26742554 C222.55081602 336.49909949 220.67809926 336.55945875 217.22698975 338.82992554 C215.10402675 342.01437002 214.212842 344.4805263 214.60198975 348.26742554 C216.33115076 352.4982609 218.64042661 356.3467867 220.97698975 360.26742554 C221.93532715 361.92995361 221.93532715 361.92995361 222.9130249 363.62606812 C225.71850195 368.47083237 228.58591645 373.27326729 231.53948975 378.02914429 C231.95795166 378.70654663 232.37641357 379.38394897 232.80755615 380.08187866 C233.8960675 381.82531479 235.00978596 383.55294296 236.12542725 385.27914429 C237.7643064 388.59592353 237.9884441 390.61699857 237.60198975 394.26742554 C237.27198975 394.92742554 236.94198975 395.58742554 236.60198975 396.26742554 C233.95698387 397.12526528 232.28399095 397.50062215 229.62347412 396.59091187 C226.99123646 394.86755917 226.06663138 393.10357464 224.57073975 390.34164429 C224.01386475 389.3283606 223.45698975 388.3150769 222.88323975 387.27108765 C222.001521 385.6295874 222.001521 385.6295874 221.10198975 383.95492554 C219.8423775 381.65760929 218.5819485 379.3607407 217.32073975 377.06430054 C216.69296631 375.91381226 216.06519287 374.76332397 215.418396 373.57797241 C212.86469231 368.92364149 210.24313391 364.31005472 207.60198975 359.70492554 C207.1227002 358.86776001 206.64341064 358.03059448 206.14959717 357.1680603 C200.55097536 347.40781175 194.8875867 337.6853292 189.19134521 327.98178101 C187.73795466 325.49963106 186.29553378 323.01147277 184.855896 320.52133179 C184.06340033 319.16558639 183.27047029 317.81009475 182.47698975 316.45492554 C181.81441162 315.31410522 181.1518335 314.17328491 180.46917725 312.99789429 C178.68566965 310.38979426 177.29558154 308.8758689 174.60198975 307.26742554 C170.01990232 306.44499959 167.69984512 307.91141555 164.60198975 311.26742554 Z M-24.39801025 416.26742554 C-28.14386109 445.92816248 -28.14386109 445.92816248 -18.6519165 472.29086304 C-17.81467041 472.95988647 -17.81467041 472.95988647 -16.96051025 473.64242554 C-16.40492432 474.10390991 -15.84933838 474.56539429 -15.2769165 475.04086304 C-9.58514302 478.75649063 -4.29423894 478.54559089 2.301651 478.50793457 C3.93739658 478.51049784 3.93739658 478.51049784 5.60618752 478.5131129 C9.26671997 478.51641179 12.92706984 478.50539734 16.58758545 478.49447632 C19.20897924 478.49391229 21.83037336 478.4942286 24.45176697 478.49536133 C30.09878244 478.49640975 35.74575167 478.49013766 41.39275551 478.47888565 C49.55735606 478.46262776 57.72193427 478.45742235 65.88654926 478.45490967 C79.13326149 478.45053302 92.37994909 478.43722473 105.62664795 478.41830444 C118.49415972 478.39994487 131.36166479 478.38578874 144.22918701 478.37728882 C145.41902782 478.37650065 145.41902782 478.37650065 146.63290582 478.37569655 C150.61231556 478.37308647 154.59172534 478.37055906 158.57113516 478.36807275 C191.58143796 478.34734119 224.59171056 478.31211647 257.60198975 478.26742554 C257.27198975 477.27742554 256.94198975 476.28742554 256.60198975 475.26742554 C255.92136475 475.21586304 255.24073975 475.16430054 254.53948975 475.11117554 C244.72017249 473.9621065 237.12602317 469.95532047 228.60198975 465.26742554 C226.99130615 464.40504272 226.99130615 464.40504272 225.3480835 463.52523804 C217.80440312 459.36001575 210.51988146 454.77011545 203.24307251 450.1590271 C201.57050662 449.09957257 199.89498957 448.04478166 198.21942139 446.99008179 C197.17906738 446.32492554 196.13871338 445.65976929 195.0668335 444.97445679 C194.13476074 444.38124634 193.20268799 443.78803589 192.24237061 443.17684937 C186.87963098 439.29871838 183.64525532 435.61230286 181.60198975 429.26742554 C181.1292102 424.75452987 181.70972631 420.72874272 182.60198975 416.26742554 C114.29198975 416.26742554 45.98198975 416.26742554 -24.39801025 416.26742554 Z " fill="#000000" transform="translate(93.39801025390625,4.732574462890625)"/>
<path d="M0 0 C4.74331631 3.439112 7.36294607 7.61811349 9.66796875 12.9296875 C10.84537976 20.6482708 10.28105926 27.42516967 5.69140625 33.8984375 C0.45256394 40.06178139 -5.04217399 42.99549923 -13.04296875 43.64453125 C-19.07272428 43.58406092 -24.00869875 41.71355491 -29.08203125 38.5546875 C-34.05304622 33.12125253 -37.02907681 27.50318792 -37.33203125 20.0546875 C-36.91153245 12.41023496 -34.51522691 6.90198136 -28.89453125 1.6796875 C-20.19867203 -5.21317705 -9.58418152 -5.39395908 0 0 Z M-21.76953125 12.6171875 C-23.95375891 15.85829952 -24.76953125 17.76849172 -24.76953125 21.6796875 C-23.33596623 25.89078476 -20.75557841 28.62416392 -16.76953125 30.6171875 C-12.21047081 31.14681885 -12.21047081 31.14681885 -8.01171875 29.5703125 C-5.83326301 27.78124257 -4.03995313 26.15803125 -2.76953125 23.6171875 C-2.36617397 19.42227182 -2.52755058 17.0921866 -4.45703125 13.3046875 C-6.88460549 10.48345257 -8.20281974 9.50886538 -11.76953125 8.6171875 C-16.59905295 8.6171875 -18.06043545 9.61834409 -21.76953125 12.6171875 Z " fill="#000000" transform="translate(121.76953125,28.3828125)"/>
<path d="M0 0 C1.34267693 0.00135956 1.34267693 0.00135956 2.71247864 0.00274658 C4.12483292 -0.00732925 4.12483292 -0.00732925 5.5657196 -0.01760864 C8.68964359 -0.03666383 11.81335362 -0.04051654 14.93733215 -0.04266357 C17.1020517 -0.04908598 19.26677035 -0.05581392 21.43148804 -0.06283569 C25.973577 -0.07482709 30.5155898 -0.07851457 35.05769348 -0.07733154 C40.88675636 -0.07712818 46.71533261 -0.10443976 52.54428005 -0.13887596 C57.01631935 -0.16107875 61.48824028 -0.16517113 65.96032906 -0.16411209 C68.10979453 -0.16647769 70.25926279 -0.17535472 72.40867424 -0.19077682 C75.41133393 -0.2103041 78.41292794 -0.20465112 81.41560364 -0.19256592 C82.30869736 -0.20380493 83.20179108 -0.21504395 84.12194824 -0.22662354 C90.10718527 -0.16519754 90.10718527 -0.16519754 92.71627808 2.12832642 C94.00419003 5.18408862 93.51746686 7.14854245 92.6287384 10.29327393 C89.94902636 12.97298597 87.90086119 12.54375139 84.25747681 12.57543945 C83.36235886 12.57296204 82.46724091 12.57048462 81.54499817 12.56793213 C80.60342865 12.57304306 79.66185913 12.57815399 78.6917572 12.5834198 C75.56782235 12.5973619 72.44410698 12.59635555 69.32014465 12.59405518 C67.15542518 12.59793959 64.99070648 12.60227373 62.82598877 12.60704041 C58.28389518 12.61451258 53.7418793 12.61420414 49.19978333 12.60894775 C43.37079774 12.60315212 37.5421298 12.62008172 31.71319675 12.64329243 C27.24116141 12.65800372 22.76920301 12.65890501 18.29714775 12.6557827 C16.14769296 12.65629723 13.998234 12.66155959 11.84880257 12.67159462 C8.84628109 12.68389109 5.84438418 12.67720813 2.84187317 12.66558838 C1.94877945 12.67323212 1.05568573 12.68087585 0.13552856 12.68875122 C-1.09058136 12.67822975 -1.09058136 12.67822975 -2.34146118 12.66749573 C-3.40638369 12.66774734 -3.40638369 12.66774734 -4.49281979 12.66800404 C-6.98281392 12.17127543 -7.88813926 11.33159749 -9.3712616 9.29327393 C-8.97010464 1.67129177 -7.60331438 0.07961832 0 0 Z " fill="#000000" transform="translate(181.3712615966797,445.70672607421875)"/>
<path d="M0 0 C2 3 2 3 2.13745117 5.63354492 C0.36668463 10.87439055 -3.31513898 14.02790118 -7.19921875 17.86328125 C-8.02702347 18.6958696 -8.85482819 19.52845795 -9.7077179 20.38627625 C-11.45940051 22.14135784 -13.21739937 23.89015487 -14.98120117 25.63305664 C-17.67771986 28.30281692 -20.34655629 30.99816728 -23.01367188 33.69726562 C-24.71975331 35.40004297 -26.42738515 37.10126861 -28.13671875 38.80078125 C-28.9338176 39.60800125 -29.73091644 40.41522125 -30.5521698 41.24690247 C-36.15622454 46.73429692 -36.15622454 46.73429692 -40.42993164 48.08007812 C-43.59265477 47.98153408 -44.509213 47.38366956 -46.75 45.1875 C-47.41644531 44.54425781 -48.08289063 43.90101563 -48.76953125 43.23828125 C-49.50558594 42.49964844 -50.24164063 41.76101562 -51 41 C-51.89074219 40.16855469 -52.78148437 39.33710938 -53.69921875 38.48046875 C-61.65511914 30.91044655 -61.65511914 30.91044655 -62 26 C-61.02269781 23.29362471 -60.59487555 22.29743778 -58 21 C-55.2109375 20.625 -55.2109375 20.625 -52 21 C-49.2265625 23.1875 -49.2265625 23.1875 -46.625 26 C-45.75101562 26.928125 -44.87703125 27.85625 -43.9765625 28.8125 C-43.32429688 29.534375 -42.67203125 30.25625 -42 31 C-39.15101954 29.70665553 -37.10820567 28.35207334 -34.91552734 26.12670898 C-34.34168304 25.54948593 -33.76783875 24.97226288 -33.17660522 24.37754822 C-32.56918488 23.75666824 -31.96176453 23.13578827 -31.3359375 22.49609375 C-30.70265533 21.85761002 -30.06937317 21.21912628 -29.41690063 20.56129456 C-27.39812011 18.52472625 -25.38616271 16.48158925 -23.375 14.4375 C-21.35583275 12.39072882 -19.33523099 10.34542734 -17.31167603 8.30299377 C-16.05351851 7.03256434 -14.79804361 5.75947158 -13.54550171 4.48350525 C-8.59621241 -0.52273754 -7.02270339 -1.50486501 0 0 Z " fill="#000000" transform="translate(414,127)"/>
<path d="M0 0 C0.93106567 -0.00945648 1.86213135 -0.01891296 2.82141113 -0.02865601 C4.32617004 -0.01954697 4.32617004 -0.01954697 5.86132812 -0.01025391 C7.4091095 -0.01455917 7.4091095 -0.01455917 8.98815918 -0.01895142 C11.17033436 -0.02099342 13.35252778 -0.01545411 15.53466797 -0.00292969 C18.87964713 0.01312154 22.22341791 -0.00277432 25.56835938 -0.02197266 C27.68685163 -0.01999025 29.80534314 -0.01614663 31.92382812 -0.01025391 C32.92700073 -0.0163266 33.93017334 -0.02239929 34.96374512 -0.02865601 C36.36034363 -0.01447128 36.36034363 -0.01447128 37.78515625 0 C38.60439575 0.00238678 39.42363525 0.00477356 40.2677002 0.00723267 C42.92865603 0.48429235 43.81621785 1.21430169 45.39257812 3.38818359 C45.70507812 6.95068359 45.70507812 6.95068359 45.39257812 10.38818359 C42.89996495 12.88079677 42.13751022 12.64061112 38.69921875 12.64697266 C37.23760315 12.65642914 37.23760315 12.65642914 35.74645996 12.66607666 C34.1636322 12.66000397 34.1636322 12.66000397 32.54882812 12.65380859 C31.46879517 12.65572205 30.38876221 12.6576355 29.27600098 12.65960693 C26.98949959 12.66096967 24.70299049 12.65726711 22.41650391 12.64892578 C18.90705058 12.63822771 15.39810919 12.64881832 11.88867188 12.66162109 C9.67122282 12.66029951 7.45377409 12.65773716 5.23632812 12.65380859 C4.18110962 12.65785706 3.12589111 12.66190552 2.03869629 12.66607666 C1.06428589 12.65977234 0.08987549 12.65346802 -0.9140625 12.64697266 C-1.7740686 12.64538147 -2.63407471 12.64379028 -3.5201416 12.64215088 C-5.60742188 12.38818359 -5.60742188 12.38818359 -7.60742188 10.38818359 C-8.17289331 4.16799779 -8.17289331 4.16799779 -6.37585449 1.68978882 C-4.11004435 0.02210282 -2.79872981 0.00815384 0 0 Z " fill="#000000" transform="translate(204.607421875,41.61181640625)"/>
</svg>
