<?xml version="1.0" encoding="UTF-8"?>
<svg version="1.1" xmlns="http://www.w3.org/2000/svg" width="512" height="512">
<path d="M0 0 C1.77562406 -0.00461657 3.55124428 -0.01097453 5.32685661 -0.01890898 C10.17516925 -0.03552162 15.02316469 -0.0273928 19.87147808 -0.0149641 C25.1121956 -0.00588276 30.35286005 -0.0198986 35.59356689 -0.03088379 C45.84789078 -0.04864073 56.10209734 -0.0448416 66.35642576 -0.03323323 C74.69268472 -0.02418806 83.02891088 -0.02297959 91.36517334 -0.02732849 C92.55306391 -0.02794142 93.74095447 -0.02855436 94.96484172 -0.02918586 C97.37825728 -0.0304648 99.79167284 -0.03176166 102.20508838 -0.03307623 C124.81887738 -0.04447375 147.43260145 -0.03138129 170.0463798 -0.00987476 C189.4367141 0.00799545 208.82695259 0.00489111 228.21728516 -0.0135498 C250.75190622 -0.03497111 273.28647041 -0.04337519 295.82110023 -0.03110075 C298.22548039 -0.0298266 300.62986055 -0.02856911 303.03424072 -0.02732849 C304.8085957 -0.02640284 304.8085957 -0.02640284 306.61879623 -0.02545848 C314.94198403 -0.02200938 323.26513567 -0.02782447 331.58831787 -0.0372467 C341.7358815 -0.04848205 351.8833214 -0.04539429 362.03087091 -0.02412373 C367.20517184 -0.01363407 372.37926672 -0.00945597 377.55356598 -0.02272034 C382.29588847 -0.03469319 387.03781512 -0.02800136 391.78010201 -0.00681013 C393.48988909 -0.00236474 395.19971003 -0.00456358 396.90947509 -0.01431328 C410.89745575 -0.08792064 423.73479643 1.17012815 434.19970703 11.50793457 C443.22625797 21.06069699 444.79551298 32.02519086 444.7076416 44.74035645 C444.71225911 46.15269868 444.7186177 47.56503609 444.72655058 48.97736359 C444.74315068 52.83074505 444.73504046 56.68372703 444.72260571 60.53710938 C444.71351905 64.70351786 444.72754279 68.86985981 444.73852539 73.03625488 C444.75627676 81.18731176 444.75248574 89.33822099 444.74087483 97.48928356 C444.73182744 104.11603694 444.73062215 110.74274905 444.73497009 117.36950684 C444.73558302 118.31401404 444.73619596 119.25852124 444.73682746 120.23164988 C444.73810641 122.15062397 444.73940327 124.06959805 444.74071783 125.98857212 C444.75211372 143.96689819 444.73902548 161.94514257 444.71751636 179.92345524 C444.69964629 195.33707258 444.70275067 210.7505694 444.72119141 226.16418457 C444.74261563 244.07983127 444.75101518 261.99540643 444.73874235 279.91106415 C444.73746821 281.82283019 444.73621072 283.73459624 444.73497009 285.6463623 C444.73404444 287.05716182 444.73404444 287.05716182 444.73310009 288.49646235 C444.72965185 295.11236449 444.73546418 301.72822112 444.74488831 308.34411621 C444.75612692 316.41084632 444.75302915 324.47742082 444.73176533 332.54413319 C444.72127992 336.65695061 444.71709 340.76950893 444.73036194 344.88232422 C444.74234407 348.65256995 444.73562852 352.42231814 444.71445173 356.19251919 C444.70791773 358.19105281 444.72086954 360.1896214 444.73468065 362.18811798 C444.62669524 374.67761686 441.26892577 384.18381611 432.57470703 393.19152832 C425.54391202 399.71779869 417.22163077 402.63745933 407.70109558 402.62818909 C406.60879639 402.62956375 405.51649719 402.63093842 404.39109802 402.63235474 C402.60869469 402.62696182 402.60869469 402.62696182 400.7902832 402.62145996 C399.53134247 402.62160599 398.27240173 402.62175201 396.97531128 402.62190247 C393.53148797 402.62218893 390.08769962 402.61631658 386.64388442 402.60932851 C383.04175097 402.60306986 379.43961669 402.60248918 375.83747864 402.6013031 C369.02006373 402.59819719 362.2026649 402.58999377 355.38525707 402.57995361 C346.17024477 402.56667753 336.95522807 402.56128659 327.74020863 402.55545139 C313.22669606 402.54605339 298.71321741 402.52612953 284.19970703 402.50793457 C284.19970703 425.27793457 284.19970703 448.04793457 284.19970703 471.50793457 C296.48070269 471.3498954 296.48070269 471.3498954 308.76098633 471.14758301 C310.30695489 471.13589446 311.85293581 471.12570302 313.39892578 471.11730957 C314.19383423 471.0968457 314.98874268 471.07638184 315.80773926 471.05529785 C319.75817128 471.0528207 321.766264 471.2521139 325.24584961 473.30578613 C327.19970703 475.50793457 327.19970703 475.50793457 327.26220703 479.13293457 C326.19970703 482.50793457 326.19970703 482.50793457 324.40836191 483.70279276 C322.04530301 484.56422093 320.30721896 484.76054596 317.79872894 484.76520348 C316.91889925 484.77165237 316.03906957 484.77810126 315.13257837 484.78474557 C314.1703302 484.78164837 313.20808202 484.77855117 312.2166748 484.77536011 C311.19110773 484.77989122 310.16554065 484.78442233 309.10889578 484.78909075 C305.66190725 484.801782 302.21507576 484.80011134 298.76806641 484.79846191 C296.30108943 484.80444411 293.83411434 484.81124894 291.36714172 484.81881714 C285.35581252 484.83467429 279.34454539 484.84092675 273.33320105 484.84204189 C268.44821783 484.84299205 263.56324756 484.8471007 258.67826843 484.85344315 C244.83243748 484.87105455 230.98663753 484.88028192 217.14079529 484.8787822 C216.39437191 484.87870229 215.64794852 484.87862237 214.87890625 484.87854004 C213.75790666 484.8784174 213.75790666 484.8784174 212.61426061 484.87829228 C200.49565997 484.87747892 188.37718349 484.89662924 176.25861877 484.92481677 C163.81928744 484.95352252 151.38001672 484.96735841 138.94065142 484.96562922 C131.95522855 484.96496462 124.96993592 484.97048763 117.98454285 484.99198532 C111.41820452 485.0120638 104.85209485 485.01154719 98.28572655 484.99695206 C95.8717884 484.99485303 93.45783335 484.99962937 91.04392433 485.01167297 C87.75653392 485.02701622 84.47010761 485.0178893 81.18273926 485.00241089 C80.22049108 485.01269801 79.2582429 485.02298514 78.26683569 485.033584 C71.86683031 484.96667942 71.86683031 484.96667942 68.57576752 482.7035923 C67.19970703 480.50793457 67.19970703 480.50793457 67.19970703 476.88293457 C68.19970703 473.50793457 68.19970703 473.50793457 69.71826172 472.3092041 C73.41399311 471.11583629 77.06189119 471.26349825 80.90283203 471.31262207 C81.64581543 471.31463623 82.38879883 471.31665039 83.15429688 471.31872559 C85.91949674 471.32915924 88.68460834 471.35708184 91.44970703 471.38293457 C100.73095703 471.44480957 100.73095703 471.44480957 110.19970703 471.50793457 C110.19970703 448.73793457 110.19970703 425.96793457 110.19970703 402.50793457 C96.40544922 402.5601416 96.40544922 402.5601416 82.33251953 402.61340332 C76.49918366 402.62873574 70.66586244 402.64330227 64.83251953 402.65441895 C55.57791132 402.67219755 46.32338524 402.69306146 37.06884766 402.73425293 C30.32784551 402.76424237 23.58691021 402.78353014 16.8458432 402.79020005 C13.27957179 402.79409623 9.71349153 402.80319294 6.14728165 402.82512474 C2.15702237 402.84946322 -1.83290883 402.84989847 -5.82324219 402.84851074 C-7.57868095 402.86468948 -7.57868095 402.86468948 -9.36958313 402.88119507 C-21.39062301 402.83609325 -30.90885796 399.9635476 -39.77685547 391.65637207 C-46.44246483 384.53693399 -49.91763468 376.43932386 -49.93451405 366.70532894 C-49.93897189 365.51282715 -49.94342973 364.32032535 -49.94802266 363.09168714 C-49.9478383 361.78013751 -49.94765394 360.46858787 -49.94746399 359.11729431 C-49.95076375 357.71099895 -49.95448955 356.30470454 -49.95860547 354.89841133 C-49.96862097 351.0293458 -49.97234154 347.16029578 -49.97499478 343.29121912 C-49.9788992 339.11993588 -49.98847748 334.94866492 -49.99720764 330.77738953 C-50.01696876 320.7010543 -50.02703808 310.62471807 -50.03593543 300.5483683 C-50.04031914 295.80241254 -50.04568576 291.05645789 -50.0509243 286.31050301 C-50.06793667 270.53218918 -50.08243044 254.75387605 -50.08967304 238.97555447 C-50.09158292 234.88112322 -50.09350325 230.78669197 -50.09545898 226.69226074 C-50.09594272 225.67461791 -50.09642646 224.65697508 -50.09692486 223.60849459 C-50.10522364 207.12650287 -50.13055796 190.64458377 -50.16303966 174.16262376 C-50.19612111 157.23824682 -50.21412281 140.31390677 -50.21731728 123.38949734 C-50.21948143 113.88818901 -50.22821617 104.38698656 -50.25377846 94.88570976 C-50.27550032 86.79321404 -50.28352858 78.7008499 -50.27381168 70.60832833 C-50.2692712 66.48136687 -50.27113832 62.35467682 -50.29057312 58.22775269 C-50.30823605 54.4443009 -50.3071821 50.6613179 -50.29167583 46.87786091 C-50.28818722 44.87201465 -50.30430269 42.86616328 -50.3212803 40.86038584 C-50.22776497 27.66545854 -46.43756296 18.04427148 -37.02685547 8.75793457 C-26.4958791 -0.12896532 -13.01315303 -0.07420573 0 0 Z M-32.23779297 21.75793457 C-37.74270371 28.97150984 -38.2362405 37.02482629 -38.16105652 45.80250549 C-38.16362457 46.90601852 -38.16619263 48.00953156 -38.1688385 49.14648438 C-38.17378596 52.83881372 -38.15726331 56.5307307 -38.14086914 60.22302246 C-38.13994976 62.91743832 -38.14021819 65.61182996 -38.14196491 68.30624294 C-38.14355584 74.78338692 -38.1297435 81.26040548 -38.11046093 87.73751729 C-38.08881362 95.23420342 -38.0864741 102.73081482 -38.08410645 110.22753906 C-38.06837204 130.00852403 -38.02648851 149.7894812 -37.98779297 169.57043457 C-37.92591797 213.76980957 -37.86404297 257.96918457 -37.80029297 303.50793457 C117.29970703 303.50793457 272.39970703 303.50793457 432.19970703 303.50793457 C432.26158203 259.30855957 432.32345703 215.10918457 432.38720703 169.57043457 C432.41451904 155.6086792 432.44183105 141.64692383 432.4699707 127.26208496 C432.48000332 114.75890461 432.48000332 114.75890461 432.48603821 102.25572205 C432.48883583 96.68191229 432.49984038 91.10819274 432.51643372 85.53440857 C432.53554844 79.10415691 432.54421049 72.67399177 432.54004188 66.2437115 C432.5382369 62.95528633 432.54275159 59.66709328 432.55735242 56.37869465 C432.57227934 52.85314097 432.56867514 49.32807033 432.56047058 45.80250549 C432.56920857 44.78235068 432.57794657 43.76219587 432.58694935 42.71112728 C432.53341444 34.14886485 431.11019452 26.42797548 425.0157299 20.06502473 C416.23874281 12.53948061 406.59523431 12.79599107 395.6640625 12.87301636 C393.88063704 12.8672499 392.09721752 12.85930527 390.31381035 12.84938014 C385.43006727 12.82855557 380.54681429 12.83880205 375.66306973 12.85431123 C370.38962462 12.86563876 365.11626293 12.84815505 359.84283447 12.83441162 C349.51890032 12.81218972 339.19514801 12.81697579 328.87120676 12.83147483 C320.4800203 12.84277116 312.08888476 12.84429625 303.69769287 12.83885574 C302.50297894 12.83808958 301.30826502 12.83732341 300.07734764 12.83653403 C297.65023627 12.83493539 295.22312493 12.83331432 292.79601359 12.83167107 C270.0421083 12.81741664 247.28830377 12.83380155 224.53441501 12.86067291 C205.0145921 12.88301137 185.49491788 12.87913116 165.97509766 12.8560791 C143.30208196 12.82931576 120.62915455 12.81878991 97.95612526 12.83414042 C95.53799058 12.83573315 93.11985589 12.837305 90.70172119 12.83885574 C88.91711324 12.84001281 88.91711324 12.84001281 87.09645259 12.84119325 C78.71627804 12.84550863 70.33615953 12.83822716 61.95599365 12.82645798 C51.74200408 12.81242855 41.52820662 12.81624241 31.31423903 12.8428617 C26.10383755 12.85599375 20.89375627 12.86116246 15.68335724 12.84461594 C10.9113851 12.82969101 6.14002922 12.83794671 1.3681128 12.8645037 C-0.35584015 12.87007785 -2.07984542 12.86727216 -3.80376458 12.85512476 C-14.76921331 12.78379942 -24.20916343 13.37561101 -32.23779297 21.75793457 Z M-37.80029297 315.50793457 C-42.00580288 350.76060443 -42.00580288 350.76060443 -29.76513672 383.78137207 C-23.19655564 389.55336578 -16.11816007 390.63106307 -7.59122181 390.63936234 C-6.51325626 390.64244129 -6.51325626 390.64244129 -5.41351363 390.64558244 C-2.9988692 390.65124914 -0.58428187 390.64979559 1.83036804 390.64837646 C3.57647241 390.65096029 5.32257619 390.6539735 7.06867915 390.65737987 C11.87234653 390.66545108 16.67599896 390.66723951 21.47967231 390.66797733 C26.65842393 390.66982767 31.83716778 390.6773749 37.01591492 390.68411255 C48.34237427 390.69769718 59.66883009 390.70372077 70.99529624 390.70812321 C78.06682456 390.71088536 85.13835152 390.71512267 92.20987892 390.71962738 C111.78673434 390.73182013 131.36358867 390.74211949 150.94044781 390.74550247 C152.82006173 390.74583182 152.82006173 390.74583182 154.73764764 390.74616782 C155.9937305 390.7463861 157.24981335 390.74660438 158.54395932 390.74682927 C161.08928343 390.74727274 163.63460753 390.7477193 166.17993164 390.74816895 C168.07378672 390.74850109 168.07378672 390.74850109 170.00590149 390.74883994 C190.46540065 390.75278821 210.9248642 390.77024307 231.38434961 390.79352847 C252.38696808 390.81723919 273.38956869 390.82970419 294.39220077 390.83087039 C306.18554073 390.8317873 317.9788343 390.83754362 329.77216148 390.85569 C339.81420829 390.87108718 349.85619436 390.87621368 359.89825072 390.8679519 C365.02146923 390.86404409 370.14456539 390.8649815 375.26776886 390.87900925 C379.96021989 390.89174003 384.65245656 390.89055781 389.34490726 390.87841853 C391.04008133 390.87646013 392.73527055 390.87954663 394.43042334 390.8882629 C406.04895326 390.94420904 416.66318824 390.91081209 425.50830078 382.47668457 C440.28445476 365.27765084 432.19970703 331.34902698 432.19970703 315.50793457 C277.09970703 315.50793457 121.99970703 315.50793457 -37.80029297 315.50793457 Z M122.19970703 402.50793457 C122.19970703 425.27793457 122.19970703 448.04793457 122.19970703 471.50793457 C171.36970703 471.50793457 220.53970703 471.50793457 271.19970703 471.50793457 C271.19970703 448.73793457 271.19970703 425.96793457 271.19970703 402.50793457 C222.02970703 402.50793457 172.85970703 402.50793457 122.19970703 402.50793457 Z " fill="#000000" transform="translate(58.80029296875,13.4920654296875)"/>
<path d="M0 0 C3.44565855 2.8930076 6.74919093 5.89077669 10 9 C10.71929687 9.65613281 11.43859375 10.31226563 12.1796875 10.98828125 C19.04588441 17.45287042 24.29481757 24.56846212 25.203125 34.140625 C25.37997363 42.0988134 23.19137544 48.28440686 19 55 C19.44730469 55.54785156 19.89460937 56.09570312 20.35546875 56.66015625 C29.6166794 68.8043877 33.35144455 83.82778248 32 99 C30.125 102.0625 30.125 102.0625 28 105 C27.59416447 107.15426393 27.26919274 109.32443322 27 111.5 C26.15807599 118.09256565 24.69308474 121.30691526 20 126 C19.65425114 128.78076645 19.39794402 131.52155731 19.1875 134.3125 C17.82212147 148.76995745 12.82962178 160.1777849 2 170 C1.39929688 170.55558594 0.79859375 171.11117187 0.1796875 171.68359375 C-13.76751089 183.64936358 -29.75371828 182.73234238 -47.1015625 182.62890625 C-49.63113507 182.62973639 -52.16070758 182.63220121 -54.6902771 182.63621521 C-59.97041224 182.63906145 -65.2502252 182.62502547 -70.53027344 182.59692383 C-76.60284369 182.56484994 -82.6747715 182.56490883 -88.74738753 182.5821386 C-94.63356665 182.59809227 -100.51951212 182.59111308 -106.40568161 182.57420158 C-108.89098973 182.56904676 -111.37631632 182.56946849 -113.86162186 182.57574654 C-117.3425506 182.58124133 -120.82241542 182.56068722 -124.30322266 182.53344727 C-125.81851814 182.54323608 -125.81851814 182.54323608 -127.36442566 182.55322266 C-140.55260144 182.37912383 -152.64484278 177.27302648 -162.25 168.25 C-171.92253871 157.97292762 -176.24886791 145.79215338 -177.14160156 131.92553711 C-177.53930686 127.02637597 -178.66749812 124.56781213 -182 121 C-185.16741551 115.23077888 -185.35401208 110.51644451 -185 104 C-185.66 104 -186.32 104 -187 104 C-192.3562619 93.73383136 -189.8781683 83.60183144 -186.66357422 72.95556641 C-184.67386414 67.09185128 -181.78574193 61.48550804 -178.17578125 56.4609375 C-176.68195584 54.06374321 -176.68195584 54.06374321 -177.765625 51.67578125 C-178.25546875 50.89589844 -178.7453125 50.11601562 -179.25 49.3125 C-182.76071653 42.97815088 -183.81207383 37.01851262 -182.375 29.875 C-176.69976986 11.32849628 -156.22748306 -3.20063693 -139.92285156 -12.13867188 C-95.19753326 -35.4465247 -39.70591132 -31.90563723 0 0 Z M-165 24 C-168.05440882 27.80683635 -170.27314044 31.1529946 -170.5 36.125 C-169.81625138 41.42405178 -168.51675195 44.5630771 -164.625 48.25 C-159.88374544 51.41083637 -156.16390443 52.25050684 -150.47877502 52.26069641 C-149.15955048 52.26778122 -147.84032593 52.27486603 -146.48112488 52.28216553 C-145.02590908 52.27987188 -143.57069361 52.2773622 -142.11547852 52.2746582 C-140.57769524 52.27900704 -139.03991413 52.28419076 -137.50213623 52.29014587 C-133.33065043 52.30352841 -129.15925528 52.3041154 -124.9877522 52.30158257 C-121.50362925 52.3005124 -118.0195246 52.30539739 -114.53540558 52.310188 C-106.31517506 52.32128051 -98.09499024 52.32172196 -89.87475586 52.31567383 C-81.39788656 52.30963273 -72.92118319 52.32194905 -64.4443422 52.3432439 C-57.16266846 52.36086292 -49.88104752 52.3668608 -42.59935325 52.36360615 C-38.25196091 52.3617937 -33.90468694 52.36442569 -29.55731392 52.37832069 C-25.46885703 52.39089941 -21.38065875 52.38895461 -17.29220581 52.37590981 C-15.79343007 52.3735446 -14.29463613 52.37627675 -12.79588127 52.38453293 C-10.74635791 52.39500735 -8.6977012 52.38689538 -6.64820862 52.3742218 C-5.50246148 52.37438954 -4.35671434 52.37455729 -3.1762476 52.37473011 C3.04408013 51.64086286 7.00837661 48.63621772 10.796875 43.890625 C12.71924319 40.8697607 13.06347924 38.5548373 13 35 C11.17181563 28.71561624 7.45799648 24.67567209 3 20 C2.34 19.27683594 1.68 18.55367187 1 17.80859375 C-18.94320743 -3.27108322 -47.18689492 -13.2989928 -75.58984375 -15.24609375 C-109.29356687 -15.95433021 -142.70951806 -1.36677017 -165 24 Z M-171.47271729 67.84657288 C-172.39824566 69.91624553 -172.39824566 69.91624553 -173 72 C-173.43828125 73.11503906 -173.8765625 74.23007813 -174.328125 75.37890625 C-175.92967975 80.90969912 -177.46566049 86.25585027 -178 92 C-177.030625 91.154375 -176.06125 90.30875 -175.0625 89.4375 C-160.20090372 76.72056497 -160.20090372 76.72056497 -153.125 76.6875 C-152.30257812 76.67074219 -151.48015625 76.65398437 -150.6328125 76.63671875 C-145.88295643 77.29211432 -142.85938827 78.9401396 -139.83984375 82.6640625 C-138.56848511 84.64289176 -137.29765426 86.62206023 -136.02734375 88.6015625 C-134.19850823 91.17036993 -134.19850823 91.17036993 -131.4296875 91.92578125 C-127.76376902 92.03776268 -125.65749816 90.30275016 -123 88 C-121.65486247 86.65755814 -120.3222126 85.3025271 -119 83.9375 C-114.15420378 79.03694902 -110.53434358 76.87594801 -103.5625 76.5625 C-98.5536322 76.74500935 -94.80341508 77.62956298 -91 81 C-88.65486199 83.56092328 -86.39852118 86.15850187 -84.2109375 88.85546875 C-81.72861625 91.26323265 -80.42351155 91.84233828 -77 92 C-73.50217603 89.88289602 -71.16088495 87.03271899 -68.5625 83.9375 C-65.03958317 79.87782975 -62.19012682 77.4249916 -56.68359375 76.69140625 C-50.5853641 76.3841672 -45.9185464 77.31573034 -41 81 C-38.40205189 83.54534168 -35.91497419 86.14274202 -33.4921875 88.85546875 C-30.56963648 91.37032848 -28.83343678 91.94223588 -25 92 C-23.01462627 90.01462627 -21.59206702 88.26470323 -20 86 C-18.9953232 84.73697774 -17.97425301 83.48682816 -16.9375 82.25 C-16.47214844 81.67765625 -16.00679687 81.1053125 -15.52734375 80.515625 C-12.44973223 77.46162687 -9.51552679 76.6929224 -5.25 76.625 C4.86806571 76.93518888 10.24398365 82.79111748 16.875 89.734375 C17.57625 90.48203125 18.2775 91.2296875 19 92 C20.26620657 88.20138028 19.39774179 85.60165269 18.375 81.875 C18.19477295 81.20645996 18.0145459 80.53791992 17.82885742 79.84912109 C16.2432303 74.27552392 14.18946086 68.18946086 10 64 C7.72075435 63.88529164 5.43789301 63.84246785 3.15582275 63.82591248 C2.06952438 63.81616405 2.06952438 63.81616405 0.96128058 63.80621868 C-1.48380956 63.78571633 -3.92888293 63.77257262 -6.37402344 63.75952148 C-8.11973303 63.74671669 -9.86544022 63.73358137 -11.61114502 63.72013855 C-27.55644686 63.60416815 -43.5023797 63.54760437 -59.44802475 63.50337124 C-71.24197162 63.47010976 -83.03515173 63.4105253 -94.82876945 63.31586021 C-103.11329012 63.25160092 -111.39760144 63.21784531 -119.68236184 63.20662171 C-124.63432058 63.19904906 -129.58535408 63.17776721 -134.53704071 63.12359428 C-139.19618916 63.07322494 -143.85392052 63.06053103 -148.51329803 63.07684517 C-150.22379716 63.07624046 -151.93435444 63.06191441 -153.64460754 63.03289795 C-163.83289031 62.33813473 -163.83289031 62.33813473 -171.47271729 67.84657288 Z M-167.4375 99 C-171.16508859 102.55116837 -172.73880094 104.79013767 -173 110 C-171.31217672 114.68839801 -169.10914015 117.2263304 -165 120 C-161.58834064 121.13721979 -158.97647773 121.13162056 -155.37760925 121.14044189 C-154.70140968 121.14341302 -154.02521011 121.14638414 -153.32851964 121.1494453 C-151.05778643 121.15813183 -148.78710594 121.1596405 -146.51635742 121.16113281 C-144.89020169 121.16576102 -143.26404705 121.17078568 -141.63789368 121.17617798 C-137.21632228 121.18930375 -132.79476608 121.19574728 -128.37317824 121.20018864 C-125.6110455 121.20311908 -122.84891692 121.20722384 -120.08678627 121.21169281 C-111.44556452 121.22536822 -102.80435227 121.23503466 -94.16312045 121.2388947 C-84.18651143 121.24337568 -74.21003941 121.2609252 -64.23347205 121.2898953 C-56.52297535 121.3115083 -48.8125172 121.32159878 -41.10199052 121.32293582 C-36.49634271 121.32398412 -31.89082368 121.32989732 -27.28520775 121.34775543 C-22.95220518 121.36422952 -18.61942828 121.36639487 -14.28640556 121.35761642 C-12.69732306 121.35684569 -11.10822845 121.36119355 -9.51917648 121.37107468 C-7.34696315 121.38378835 -5.17554975 121.37792125 -3.00334167 121.36749268 C-1.78862781 121.36895924 -0.57391394 121.3704258 0.67760944 121.3719368 C5.30681059 120.85370445 8.54633976 119.02149098 12.3125 116.375 C14.86137854 112.78768947 15.52041883 109.375226 15 105 C13.06501126 101.81911582 10.5192804 99.52268649 7.75 97.0625 C7.05519531 96.40443359 6.36039063 95.74636719 5.64453125 95.06835938 C0.80094552 89.9880235 0.80094552 89.9880235 -5.4765625 88.07421875 C-8.80392478 89.29493835 -9.56856598 90.80324529 -11.375 93.8125 C-14.56606481 98.60939097 -16.56935857 100.97501506 -22 103 C-27.75430031 103.88672824 -32.81586647 103.39754397 -37.9296875 100.55078125 C-41.54231271 97.84472048 -44.5087119 94.50254061 -47.5078125 91.14453125 C-50.42966787 88.63027013 -52.17313771 88.0942319 -56 88 C-58.96974984 90.39028645 -61.01874872 93.02482938 -63.3125 96.0625 C-67.03667523 100.13311014 -70.75938478 102.50358906 -76.26953125 103.34765625 C-81.91083497 103.56869541 -87.21878432 102.5232713 -91.51098633 98.62915039 C-93.42123264 96.52279387 -95.20635494 94.33102181 -96.9921875 92.11914062 C-99.73362692 88.8861903 -99.73362692 88.8861903 -103.6171875 87.46875 C-106.31699827 88.07067502 -107.49309089 88.80838935 -109.5 90.6875 C-110.09941406 91.23535156 -110.69882813 91.78320312 -111.31640625 92.34765625 C-112.72944065 93.73446263 -114.09029306 95.17416176 -115.4375 96.625 C-119.86316441 100.72683531 -124.39655134 103.19482757 -130.5 103.5 C-135.32743633 103.21798482 -139.2126337 102.06853964 -143 99 C-144.97413237 96.46585866 -146.70040889 93.89471051 -148.359375 91.14453125 C-149.81589892 88.90413781 -149.81589892 88.90413781 -151.9765625 88.0546875 C-157.78028885 87.89783003 -163.54726179 95.32124827 -167.4375 99 Z M-164 133 C-162.72791152 145.72088479 -159.29741062 153.25662503 -150 162 C-141.58692233 168.78801639 -131.84141089 170.45636499 -121.29296875 170.38818359 C-120.27369293 170.39344055 -119.25441711 170.39869751 -118.20425415 170.40411377 C-114.86517603 170.41722027 -111.52658221 170.40860875 -108.1875 170.3984375 C-105.84920155 170.40046092 -103.51090372 170.40337458 -101.17260742 170.40713501 C-96.28395551 170.41154572 -91.3954686 170.4051676 -86.50683594 170.39111328 C-80.25950483 170.37402239 -74.01256047 170.38387027 -67.76524353 170.40183067 C-62.94035968 170.41270231 -58.11556661 170.40920664 -53.29067993 170.4014473 C-50.98792474 170.39945464 -48.68516114 170.40187151 -46.38241577 170.40888596 C-43.1570674 170.41655607 -39.93233415 170.40481823 -36.70703125 170.38818359 C-35.76751617 170.39425629 -34.8280011 170.40032898 -33.86001587 170.40658569 C-21.54513244 170.28968942 -12.25875959 165.99992238 -3.25 157.75 C3.60360849 150.59355765 6 142.6626577 6 133 C-50.1 133 -106.2 133 -164 133 Z " fill="#000000" transform="translate(255,94)"/>
<path d="M0 0 C1.11181641 1.10794922 1.11181641 1.10794922 2.24609375 2.23828125 C2.81199219 2.78097656 3.37789063 3.32367188 3.9609375 3.8828125 C14.12428215 14.53140968 17.63164177 28.53829561 17.54492188 42.79907227 C17.15921587 57.94634553 11.16929024 71.05088493 0.69921875 82.01953125 C-11.77851939 93.3051288 -26.23703138 97.81860448 -42.80859375 97.55078125 C-58.62169115 96.29825868 -70.87641204 89.57281303 -81.75390625 78.23828125 C-93.52385544 63.92530289 -96.44348294 48.36128591 -94.75390625 30.23828125 C-93.18393496 21.32655333 -89.40790537 13.27885634 -83.75390625 6.23828125 C-83.191875 5.49191406 -82.62984375 4.74554688 -82.05078125 3.9765625 C-73.24965806 -6.91390296 -60.13631909 -13.49283895 -46.37890625 -15.57421875 C-28.69511042 -16.89007289 -12.8707863 -12.2684094 0 0 Z M-71.8203125 11.37109375 C-80.67742339 22.0455384 -83.809053 33.56659405 -82.75390625 47.23828125 C-80.26137722 60.25649008 -73.52529693 70.52479733 -62.75390625 78.23828125 C-51.31663032 84.81931996 -39.74995637 86.75438689 -26.8984375 83.51953125 C-14.41175523 79.43362111 -5.56873078 71.86603739 0.49609375 60.36328125 C6.24931995 48.2845184 6.28258781 37.90565285 2.24609375 25.23828125 C-2.41135378 12.43976689 -11.72660295 5.13473791 -23.65234375 -0.484375 C-40.60287072 -7.46525953 -59.45645148 -1.39009362 -71.8203125 11.37109375 Z " fill="#000000" transform="translate(422.75390625,86.76171875)"/>
<path d="M0 0 C2.12741756 -0.38031673 2.12741756 -0.38031673 4.81394958 -0.38768005 C6.33873932 -0.402537 6.33873932 -0.402537 7.89433289 -0.41769409 C9.01386856 -0.41319244 10.13340424 -0.4086908 11.28686523 -0.40405273 C13.05034805 -0.41434761 13.05034805 -0.41434761 14.84945679 -0.42485046 C18.07888881 -0.44004686 21.30796047 -0.44160381 24.53741336 -0.43590808 C27.23134678 -0.43282342 29.92522761 -0.43890064 32.61915356 -0.44494683 C38.97376708 -0.4590078 45.32824621 -0.45741805 51.68286133 -0.44604492 C58.24269157 -0.43456408 64.80211296 -0.44863479 71.3618893 -0.4754414 C76.98998475 -0.49758115 82.6179517 -0.50423966 88.24608761 -0.49836498 C91.60923583 -0.49498974 94.972122 -0.49744738 98.33523369 -0.51461601 C102.08504847 -0.52943278 105.83395461 -0.51891631 109.58374023 -0.50170898 C110.70125168 -0.51137695 111.81876312 -0.52104492 112.97013855 -0.53100586 C113.98948486 -0.52117172 115.00883118 -0.51133759 116.05906677 -0.50120544 C117.38946566 -0.50089152 117.38946566 -0.50089152 118.74674129 -0.50057125 C121 0 121 0 122.81662083 1.83601284 C124 4 124 4 123.875 7.125 C123 10 123 10 120 12 C117.79918003 12.25447559 117.79918003 12.25447559 115.18641663 12.26069641 C114.19520309 12.26778122 113.20398956 12.27486603 112.18273926 12.28216553 C111.09642212 12.27968811 110.01010498 12.27721069 108.89086914 12.2746582 C107.74593491 12.27976913 106.60100067 12.28488007 105.42137146 12.29014587 C101.62591364 12.30407841 97.83063665 12.30308235 94.03515625 12.30078125 C91.4034366 12.30466611 88.77171759 12.30900034 86.13999939 12.31376648 C80.61943959 12.32198238 75.09893095 12.32106946 69.57836914 12.31567383 C63.19753788 12.30963328 56.81692709 12.32194635 50.43613344 12.3432439 C44.29745427 12.36297985 38.15887824 12.36603415 32.02017021 12.36250877 C29.40822265 12.36302315 26.79627166 12.36828266 24.18434334 12.37832069 C20.53556332 12.39062197 16.88729685 12.38393092 13.23852539 12.37231445 C12.15423248 12.37995819 11.06993958 12.38760193 9.95278931 12.39547729 C8.95875595 12.38846298 7.9647226 12.38144867 6.94056702 12.3742218 C6.07797807 12.37438954 5.21538912 12.37455729 4.32666111 12.37473011 C1.45642113 11.91245164 0.07561933 11.01443857 -2 9 C-2.51020728 4.91834173 -2.31361802 3.47042703 0 0 Z " fill="#000000" transform="translate(323,255)"/>
<path d="M0 0 C1.009487 -0.00990463 2.018974 -0.01980927 3.05905151 -0.03001404 C4.16564117 -0.02551239 5.27223083 -0.02101074 6.41235352 -0.01637268 C8.16142502 -0.02666756 8.16142502 -0.02666756 9.9458313 -0.03717041 C13.81109699 -0.05551432 17.67595977 -0.05159024 21.54125977 -0.0459137 C23.54349681 -0.04932021 25.54573405 -0.05273365 27.54796886 -0.05726677 C33.84362875 -0.07131873 40.13915297 -0.06974485 46.43481445 -0.05836487 C52.93275087 -0.04687892 59.43027479 -0.06096535 65.92815685 -0.08776134 C71.50531773 -0.10990049 77.08234895 -0.11655992 82.65955067 -0.11068493 C85.99140175 -0.10731025 89.32292904 -0.11146322 92.65475464 -0.12693596 C96.36854074 -0.14175237 100.08140936 -0.13123695 103.79516602 -0.11402893 C104.90175568 -0.1236969 106.00834534 -0.13336487 107.14846802 -0.14332581 C108.66269852 -0.1285746 108.66269852 -0.1285746 110.20751953 -0.11352539 C111.08577896 -0.11331611 111.96403839 -0.11310682 112.86891174 -0.1128912 C115.10375977 0.38768005 115.10375977 0.38768005 116.91758728 2.22369289 C118.10375977 4.38768005 118.10375977 4.38768005 117.97875977 7.51268005 C117.10375977 10.38768005 117.10375977 10.38768005 114.10375977 12.38768005 C111.88452911 12.64215565 111.88452911 12.64215565 109.2454834 12.64837646 C108.24441055 12.65546127 107.24333771 12.66254608 106.21192932 12.66984558 C105.1146904 12.66736816 104.01745148 12.66489075 102.88696289 12.66233826 C101.15252174 12.67000465 101.15252174 12.67000465 99.38304138 12.67782593 C95.55031194 12.69175776 91.71776156 12.69076259 87.88500977 12.6884613 C85.89953403 12.69136464 83.91405822 12.69427225 81.92858362 12.69786805 C75.68568778 12.70896498 69.44285211 12.70939935 63.19995117 12.70335388 C56.75661682 12.69731036 50.31350062 12.70963408 43.8702035 12.73092395 C38.33976679 12.74852654 32.80939961 12.75454352 27.27893591 12.75128621 C23.97507724 12.74947133 20.67140931 12.75343724 17.36756897 12.76600075 C13.68505861 12.77828605 10.00305834 12.77162094 6.32055664 12.75999451 C5.22331772 12.76763824 4.1260788 12.77528198 2.99559021 12.78315735 C1.49398094 12.77263588 1.49398094 12.77263588 -0.03796387 12.76190186 C-1.3442915 12.76215347 -1.3442915 12.76215347 -2.67700958 12.76241016 C-5.39374713 12.3036731 -6.28102775 11.59124096 -7.89624023 9.38768005 C-8.53684001 4.26288188 -8.53684001 4.26288188 -6.67881775 1.72441006 C-4.33332631 -0.03444124 -2.91772448 0.00807252 0 0 Z " fill="#000000" transform="translate(328.896240234375,214.61231994628906)"/>
<path d="M0 0 C2 2 2 2 2.4375 4.8125 C1.85442774 9.06059786 0.10654197 10.11009275 -3 13 C-3.85078125 13.80179688 -4.7015625 14.60359375 -5.578125 15.4296875 C-9.9212745 19.40455824 -14.2872258 23.35776666 -18.8125 27.125 C-19.47894531 27.68445313 -20.14539063 28.24390625 -20.83203125 28.8203125 C-23.85424708 30.46483355 -25.6023702 30.55340182 -29 30 C-31.18541285 28.31140631 -32.84974843 26.81474961 -34.6875 24.8125 C-35.39616211 24.08836914 -35.39616211 24.08836914 -36.11914062 23.34960938 C-38.8854467 20.45914931 -41.19185786 17.57381114 -43 14 C-42.92307328 10.76907772 -42.45666636 9.48928539 -40.25 7.125 C-38 6 -38 6 -35.6875 5.875 C-31.57156237 7.59795064 -28.96064989 10.73219335 -26 14 C-21.63683898 11.5933033 -18.05073942 8.62637925 -14.3125 5.375 C-6.40750987 -1.46838768 -6.40750987 -1.46838768 0 0 Z " fill="#000000" transform="translate(404,113)"/>
<path d="M0 0 C0.69512695 -0.00287018 1.39025391 -0.00574036 2.10644531 -0.00869751 C3.57227394 -0.01073384 5.03813001 -0.00523406 6.50390625 0.00732422 C8.74280777 0.0233859 10.97990437 0.00746292 13.21875 -0.01171875 C14.6458373 -0.00973624 16.07292349 -0.0058924 17.5 0 C18.79421875 0.00338379 20.0884375 0.00676758 21.421875 0.01025391 C24.91453869 0.41762885 26.36985755 0.84376109 28.75 3.3984375 C29.25 6.8984375 29.25 6.8984375 28.75 10.3984375 C26.36985755 12.95311391 24.91453869 13.37924615 21.421875 13.78662109 C20.12765625 13.79000488 18.8334375 13.79338867 17.5 13.796875 C16.80487305 13.79974518 16.10974609 13.80261536 15.39355469 13.80557251 C13.92772606 13.80760884 12.46186999 13.80210906 10.99609375 13.78955078 C8.75719223 13.7734891 6.52009563 13.78941208 4.28125 13.80859375 C2.8541627 13.80661124 1.42707651 13.8027674 0 13.796875 C-1.29421875 13.79349121 -2.5884375 13.79010742 -3.921875 13.78662109 C-7.41453869 13.37924615 -8.86985755 12.95311391 -11.25 10.3984375 C-11.75 6.8984375 -11.75 6.8984375 -11.25 3.3984375 C-7.92573473 -0.16959351 -4.69423181 0.01227327 0 0 Z " fill="#000000" transform="translate(247.25,359.6015625)"/>
</svg>
