<?xml version="1.0" encoding="UTF-8"?>
<svg version="1.1" xmlns="http://www.w3.org/2000/svg" width="512" height="512">
<path d="M0 0 C2.21942387 2.49685185 2.00592303 3.89338555 1.8203125 7.234375 C0.8826268 11.5387989 -0.94877545 14.19595227 -3.625 17.5625 C-22.65575453 42.87551578 -23.1566069 70.33224197 -23.14538372 100.6801188 C-23.14517766 104.16359104 -23.15071783 107.64705528 -23.15544128 111.13052368 C-23.16370438 117.93859461 -23.16649415 124.74665687 -23.16705366 131.5547324 C-23.1675309 137.09579915 -23.16959593 142.63686307 -23.17275429 148.17792892 C-23.18154904 163.93111121 -23.18617552 179.68428671 -23.18542381 195.43747146 C-23.18538386 196.28455608 -23.1853439 197.13164069 -23.18530273 198.00439453 C-23.18526185 198.85252836 -23.18522097 199.70066218 -23.18517885 200.57449703 C-23.18477273 214.30794272 -23.19433699 228.04136095 -23.2084411 241.77479871 C-23.22285057 255.91857565 -23.22970878 270.06233925 -23.22884732 284.20612371 C-23.22851693 292.12972321 -23.23119449 300.05329392 -23.24202538 307.97688675 C-23.25119079 314.72462295 -23.25325658 321.47231731 -23.24651595 328.22005709 C-23.2432809 331.65346315 -23.24308282 335.08678923 -23.2518692 338.52018738 C-23.32641624 374.22800592 -20.12554664 405.15484653 5.76171875 431.84765625 C11.67080531 437.43642142 17.93165528 441.99197213 25 446 C25.92296875 446.52335937 26.8459375 447.04671875 27.796875 447.5859375 C38.25709842 453.1552997 49.24814518 456.87855033 61.046875 458.1015625 C61.84080154 458.18401215 62.63472809 458.26646179 63.45271301 458.35140991 C76.81491902 459.58561903 90.28078075 459.47364943 103.6875 459.625 C118.1971875 459.810625 118.1971875 459.810625 133 460 C133 422.05 133 384.1 133 345 C110.41313607 345.15799316 110.41313607 345.15799316 87.82666016 345.36035156 C83.4284668 345.37841797 83.4284668 345.37841797 81.36044312 345.3817749 C79.93583152 345.38786164 78.51123873 345.40181299 77.08676147 345.42230225 C63.80609673 345.60354726 54.96074924 343.70354598 45.19921875 334.37109375 C37.63019535 326.21053033 35.64992377 318.24718282 35.6875 307.3125 C35.67138672 306.36310547 35.65527344 305.41371094 35.63867188 304.43554688 C35.63802734 303.52482422 35.63738281 302.61410156 35.63671875 301.67578125 C35.63373779 300.84989502 35.63075684 300.02400879 35.62768555 299.1730957 C36.08622808 296.49671074 36.87763242 295.64301019 39 294 C42.04655567 292.95775727 43.58794654 292.8754257 46.6875 293.8125 C49 295 49 295 51 297 C51.46807076 300.69627304 51.78682163 304.36805042 52.03515625 308.08398438 C52.65464002 315.16129419 54.69455438 319.58732435 59.6875 324.8125 C66.54381439 329.34025479 74.3489423 329.28912674 82.34985352 329.23950195 C83.34293518 329.24151611 84.33601685 329.24353027 85.35919189 329.24560547 C87.50020126 329.24913168 89.64122109 329.24840787 91.78222847 329.24382973 C95.17516611 329.23820456 98.56776599 329.24744662 101.9606781 329.2610321 C111.6019755 329.29803424 121.24315493 329.31668659 130.88452148 329.30541992 C136.79543404 329.29956136 142.70586726 329.31786013 148.61668205 329.35130882 C150.86246336 329.35924672 153.10829712 329.35800781 155.35406685 329.34728432 C158.49642067 329.33291891 161.63726976 329.34926679 164.77954102 329.37231445 C165.69976547 329.36054672 166.61998993 329.34877899 167.56809998 329.33665466 C173.87756789 329.42711852 178.25559728 330.72883396 183 335 C188.50120362 340.90969221 188.72041235 346.93088389 188.64697266 354.70507812 C188.65573425 355.85407089 188.66449585 357.00306366 188.67352295 358.18687439 C188.69545237 361.96872193 188.68098545 365.74939145 188.6640625 369.53125 C188.66743244 372.16866276 188.67228655 374.80607399 188.67855835 377.44348145 C188.68763369 382.96456563 188.67572319 388.48531448 188.65185547 394.00634766 C188.62464767 400.37319008 188.63346338 406.73923174 188.6609875 413.10605478 C188.68648383 419.25175423 188.68369348 425.39710099 188.66907883 431.54283142 C188.66574922 434.1486777 188.66981614 436.7545445 188.68147659 439.36036682 C188.69421001 443.00576499 188.67476962 446.64963704 188.64697266 450.29492188 C188.65709381 451.36632919 188.66721497 452.43773651 188.67764282 453.54161072 C188.58334354 460.23473802 187.64192339 464.99855418 183 470 C177.13130196 475.41410182 171.29439272 475.71333337 163.58959961 475.61523438 C162.47135803 475.62078339 161.35311646 475.6263324 160.20098877 475.63204956 C156.51766591 475.64382326 152.83558002 475.6195807 149.15234375 475.59375 C146.57654374 475.59203739 144.00074199 475.5921061 141.42494202 475.59387207 C136.02733373 475.59221977 130.63017009 475.57413473 125.23266602 475.54199219 C119.03084475 475.50523452 112.82948512 475.49629976 106.62756914 475.5032897 C100.6239566 475.50964536 94.62053927 475.49852209 88.61694527 475.47932434 C86.08108847 475.47234054 83.545218 475.46916414 81.00935173 475.47001648 C68.01761833 475.46338446 55.60272584 475.42438867 43 472 C42.24597397 471.80815628 41.49194794 471.61631256 40.71507263 471.4186554 C12.97539904 463.90036883 -10.57134 443.94366075 -25.0859375 419.51171875 C-34.53152155 402.18196352 -39.14574961 384.9448808 -39.15390015 365.1890564 C-39.1582824 363.8952391 -39.16266465 362.60142181 -39.1671797 361.26839793 C-39.17909065 357.68765508 -39.1847809 354.10692566 -39.18936086 350.52616692 C-39.1953381 346.65944928 -39.20694281 342.79274753 -39.21765137 338.92604065 C-39.24213073 329.59099712 -39.25679793 320.25594836 -39.26971143 310.92088264 C-39.27342726 308.28071413 -39.27740019 305.64054613 -39.2814641 303.00037813 C-39.30670947 286.57886753 -39.32874628 270.15735602 -39.34119225 253.73583031 C-39.34412159 249.93521496 -39.3470833 246.13459965 -39.35009766 242.33398438 C-39.35084371 241.38944529 -39.35158976 240.44490621 -39.35235842 239.47174473 C-39.36499191 224.19621766 -39.39819025 208.92080751 -39.43989949 193.645335 C-39.48244301 177.93444884 -39.50590173 162.22362232 -39.51111281 146.51267874 C-39.51451336 137.70299722 -39.52610703 128.89349825 -39.55921555 120.08387375 C-39.58738873 112.57544978 -39.59814054 105.06724583 -39.58702008 97.55877315 C-39.58187673 93.73629399 -39.58443308 89.91427428 -39.60948563 86.09186363 C-39.81123403 53.51067904 -33.38953604 27.98997501 -13.73828125 1.70703125 C-9.32558324 -2.62633736 -5.49853828 -2.28241212 0 0 Z M148 345 C148 382.95 148 420.9 148 460 C165.76393202 461.49071198 165.76393202 461.49071198 172 458 C172.927389 455.21783299 173.12743225 453.5519593 173.13371277 450.6799469 C173.13797775 449.79811737 173.14224274 448.91628784 173.14663696 448.00773621 C173.14595718 446.5605999 173.14595718 446.5605999 173.14526367 445.08422852 C173.14862228 444.0660907 173.1519809 443.04795288 173.15544128 441.9989624 C173.16495824 438.62559802 173.16689472 435.25228323 173.16796875 431.87890625 C173.1711806 429.5386503 173.17454462 427.19839456 173.17805481 424.85813904 C173.18404779 419.94961074 173.18589451 415.04110006 173.18530273 410.13256836 C173.18520105 403.83632879 173.19885863 397.54020185 173.21607494 391.24398899 C173.22718112 386.40992207 173.22922237 381.5758825 173.22869301 376.74180412 C173.22987501 374.42013091 173.23430904 372.09845703 173.24202538 369.77679634 C173.25179811 366.53283876 173.24895798 363.28912738 173.24291992 360.04516602 C173.24853943 359.08243271 173.25415894 358.1196994 173.25994873 357.12779236 C173.25575424 356.24314301 173.25155975 355.35849365 173.24723816 354.44703674 C173.24778293 353.68031426 173.24832769 352.91359179 173.24888897 352.12363529 C172.95935496 349.65319782 172.36472208 348.07792642 171 346 C163.71989011 343.5732967 155.67390962 345 148 345 Z " fill="#000000" transform="translate(39,37)"/>
<path d="M0 0 C2.53966316 3.80949473 2.5872443 6.53507905 2 11 C0.48936902 13.60164224 -0.68790426 13.89853282 -3.53515625 14.82421875 C-8.53861183 15.0780581 -11.90312887 13.07501822 -16.3125 10.875 C-34.13207023 2.42837969 -51.48830817 -1.39724658 -71.25 -1.3125 C-71.93420013 -1.31034485 -72.61840027 -1.3081897 -73.32333374 -1.30596924 C-83.53053293 -1.25438836 -93.12600378 -0.82267501 -103 2 C-103.68707031 2.18804199 -104.37414062 2.37608398 -105.08203125 2.56982422 C-122.2769019 7.36865912 -138.33657036 15.468453 -152 27 C-152.98097656 27.81855469 -153.96195312 28.63710937 -154.97265625 29.48046875 C-178.97125119 50.13258434 -193.29500651 79.73250136 -197 111 C-198.57259746 133.87508535 -195.55463349 154.11885655 -186.90234375 175.265625 C-178.81212761 195.05884823 -178.9017539 213.79219945 -187.07226562 233.59545898 C-188.67650099 237.41394653 -190.32556074 241.21182672 -192 245 C-190.87722656 244.52949219 -189.75445312 244.05898438 -188.59765625 243.57421875 C-166.48377945 234.35434202 -146.9984179 229.92616885 -124 239 C-91.08128249 251.90642522 -56.18824804 255.39073921 -22.99609375 240.90673828 C-11.25318103 235.57244549 -0.85420898 229.31932564 9 221 C9.94359375 220.22011719 10.8871875 219.44023437 11.859375 218.63671875 C36.35681696 197.49556474 52.05034174 165.03167442 55 133 C56.99898934 97.78137191 45.44089586 66.23013206 22.265625 39.83984375 C20.7408768 38.15242337 19.20278872 36.47683846 17.64453125 34.8203125 C15.53928229 32.49003693 15.04363739 31.3272804 14.625 28.1875 C15 25 15 25 17.125 22.125 C20 20 20 20 22.8125 19.25 C34.41616815 21.98027486 43.62871417 37.83629485 49.73925781 47.51489258 C57.38390339 60.00103397 63.03272235 72.90870706 67 87 C67.31759277 88.08764648 67.31759277 88.08764648 67.64160156 89.19726562 C73.54059715 110.19432439 73.71124076 136.92116364 68 158 C67.82839355 158.64952637 67.65678711 159.29905273 67.47998047 159.96826172 C57.78228656 195.95979237 35.12085229 227.65833069 3 247 C-2.1935624 249.98164918 -7.53609513 252.55716523 -13 255 C-14.175625 255.54269531 -15.35125 256.08539063 -16.5625 256.64453125 C-49.82936317 271.05287659 -89.61342039 270.83131972 -123.37304688 258.10546875 C-127.11896022 256.61933496 -130.82726813 255.05843181 -134.5234375 253.453125 C-139.77896146 251.25643409 -144.32515328 250.76336693 -150 250.6875 C-150.69222656 250.65849609 -151.38445312 250.62949219 -152.09765625 250.59960938 C-164.42846483 250.45414612 -176.0856534 257.05792869 -187.01733398 262.09277344 C-194.20449162 265.38965239 -200.02587163 268.05887302 -208 267 C-210.75569447 264.81840855 -212.43588747 263.12822506 -214 260 C-214.36987757 254.16157724 -213.72897536 250.41285572 -211.26171875 245.0078125 C-210.98028519 244.37696747 -210.69885162 243.74612244 -210.40888977 243.09616089 C-209.51558982 241.09918399 -208.60298155 239.11189278 -207.6875 237.125 C-199.47220165 219.07566887 -194.31016723 204.21487384 -201.50390625 184.7734375 C-201.99969256 183.5144745 -202.49843131 182.2566705 -203 181 C-217.62836761 143.78633359 -219.0835455 105.1081987 -203.25390625 67.82421875 C-196.50990204 52.52058359 -187.23526934 39.32914542 -176 27 C-175.14921875 26.06542969 -174.2984375 25.13085938 -173.421875 24.16796875 C-129.46211804 -21.83183681 -54.93375845 -33.40945787 0 0 Z " fill="#000000" transform="translate(441,86)"/>
<path d="M0 0 C23.95707558 -0.42690806 50.86240359 3.74760423 69.1640625 20.49609375 C71.05714421 22.3255609 72.8565867 24.20284589 74.6640625 26.12109375 C75.41300781 26.91257813 76.16195312 27.7040625 76.93359375 28.51953125 C87.05050265 40.16461569 93.31438967 56.70571032 93.9765625 72.12109375 C94.31171221 76.7514516 96.89824442 79.05349354 100.0078125 82.296875 C103.91028076 86.59511245 104.16036397 91.88126535 104.05078125 97.453125 C103.36928324 102.15477291 101.36831637 106.24262439 98.6640625 110.12109375 C97.95765625 110.54132813 97.25125 110.9615625 96.5234375 111.39453125 C94.25759345 113.12789051 94.25759345 113.12789051 94.1953125 116.8515625 C94.1724401 118.33710003 94.16263362 119.82288084 94.1640625 121.30859375 C93.8761106 130.38430556 92.55304824 135.63303259 85.7890625 141.99609375 C80.94907732 146.20903631 75.90721762 147.36685092 69.58099365 147.39524841 C68.38397324 147.40522354 67.18695282 147.41519867 65.95365906 147.42547607 C64.65378555 147.42614075 63.35391205 147.42680542 62.01464844 147.42749023 C60.62113504 147.43511833 59.22762583 147.44354695 57.8341217 147.45271301 C54.05912435 147.47460249 50.28420796 147.48344956 46.50915432 147.48853946 C44.1468123 147.49219001 41.78449127 147.49843373 39.42215729 147.50554085 C31.16961237 147.53001735 22.91713013 147.54308307 14.66455078 147.54663086 C6.99026725 147.55026338 -0.6836157 147.58014278 -8.35777688 147.62203544 C-14.96098572 147.65680913 -21.56406226 147.67218053 -28.16736197 147.67287689 C-32.10474633 147.67366739 -36.04172237 147.68230026 -39.97901154 147.71087456 C-43.68597655 147.73717692 -47.39219829 147.73919376 -51.09921455 147.72321892 C-53.09399744 147.72055893 -55.08876665 147.74250551 -57.0834198 147.76541138 C-65.49870827 147.69741181 -72.44770001 146.39802187 -78.94441605 140.71376705 C-84.28331566 134.81787997 -85.63649476 128.86002442 -85.5859375 121.18359375 C-85.70916015 116.02887796 -86.09468029 112.42697762 -89.7734375 108.55859375 C-90.4025 107.97078125 -91.0315625 107.38296875 -91.6796875 106.77734375 C-95.05619694 103.40083431 -95.23529154 99.22819931 -95.6484375 94.68359375 C-95.12816095 88.75244113 -93.76576572 84.32329882 -89.3359375 80.24609375 C-85.91225396 76.56227739 -85.49040536 72.49408332 -84.8359375 67.68359375 C-82.18361007 48.50431939 -73.68258198 30.48008615 -58.3359375 18.12109375 C-41.04618771 6.47823373 -20.72763349 0.75240824 0 0 Z M-55.3359375 38.12109375 C-63.65786656 49.01525543 -67.08943333 59.64206871 -69.3359375 73.12109375 C-20.8259375 73.12109375 27.6840625 73.12109375 77.6640625 73.12109375 C75.92350302 57.45605844 70.25311151 42.3204407 57.6640625 32.12109375 C43.36264803 21.65001057 27.26538861 16.96050125 9.6640625 16.12109375 C8.83003906 16.07984375 7.99601562 16.03859375 7.13671875 15.99609375 C-15.49102489 15.45166684 -39.51996174 20.81189485 -55.3359375 38.12109375 Z M-78.23923492 90.99226284 C-79.53152765 93.10163785 -79.53152765 93.10163785 -79.3359375 95.68359375 C-77.98232676 98.98301994 -76.52175243 99.58384982 -73.3359375 101.12109375 C-70.23762538 101.57180675 -70.23762538 101.57180675 -66.84594727 101.5087738 C-65.53369171 101.51867844 -64.22143616 101.52858307 -62.86941528 101.53878784 C-61.42205717 101.53455006 -59.97469996 101.52999222 -58.52734375 101.52514648 C-56.99778749 101.53085087 -55.46823548 101.5378154 -53.93869019 101.54594421 C-49.7899611 101.56388192 -45.64144344 101.56270629 -41.49268723 101.55700183 C-38.02834456 101.55391129 -34.56404258 101.56000082 -31.0997057 101.56604058 C-22.92743863 101.58008578 -14.7552761 101.57852416 -6.58300781 101.56713867 C1.84735754 101.55565315 10.27740493 101.56974032 18.70772839 101.59653515 C25.94778528 101.61868507 33.18774232 101.62533126 40.4278307 101.61945873 C44.75118945 101.61608676 49.0743443 101.61852027 53.39767456 101.63570976 C57.46240175 101.65116598 61.52665735 101.64723843 65.59136581 101.62840462 C67.08249699 101.62471523 68.57366301 101.62783745 70.06476212 101.63829041 C72.10116312 101.65147559 74.13768575 101.63756002 76.17407227 101.62229919 C77.31336685 101.62208991 78.45266144 101.62188063 79.6264801 101.621665 C83.34277396 101.00924709 85.02472229 99.76441391 87.6640625 97.12109375 C88.33092188 94.57782267 88.33092188 94.57782267 87.6640625 92.12109375 C86.58209093 90.37014129 86.58209093 90.37014129 84.6640625 89.12109375 C81.68115003 88.66358063 81.68115003 88.66358063 78.21130371 88.7334137 C77.5534052 88.72802816 76.8955067 88.72264262 76.21767187 88.71709388 C74.00885768 88.70276387 71.80063853 88.70993 69.59179688 88.71704102 C68.01003028 88.71134009 66.4282678 88.70437692 64.84651184 88.69624329 C60.54697931 88.678267 56.24765036 88.67948847 51.94809151 88.68518567 C48.36188005 88.68827073 44.77570809 88.68219278 41.18950224 88.67614692 C32.73160756 88.66208896 24.27381385 88.66367386 15.81591797 88.67504883 C7.08222685 88.68653494 -1.65115738 88.67244906 -10.38480806 88.64565235 C-17.87701984 88.62352299 -25.36913509 88.61685161 -32.86137724 88.62272877 C-37.33895941 88.62610576 -41.81634476 88.62363414 -46.29389954 88.60647774 C-50.50304524 88.59105426 -54.71173482 88.59491249 -58.9208622 88.61378288 C-60.46765872 88.61748142 -62.0144887 88.61432362 -63.5612545 88.60389709 C-65.66909447 88.59077065 -67.77540567 88.60215722 -69.88317871 88.61988831 C-71.06378624 88.62009759 -72.24439377 88.62030687 -73.46077728 88.6205225 C-76.42733337 88.85639579 -76.42733337 88.85639579 -78.23923492 90.99226284 Z M-69.3359375 117.12109375 C-70.06590808 125.38725037 -70.06590808 125.38725037 -67.65246582 129.14315796 C-62.39821594 132.27672652 -57.27884451 131.81650528 -51.27148438 131.76806641 C-49.92911087 131.77484556 -48.58674667 131.78375037 -47.24440002 131.7946167 C-43.60581406 131.81738224 -39.96793811 131.80858576 -36.32933998 131.79272127 C-32.51865371 131.78004772 -28.70802756 131.79180641 -24.89733887 131.7996521 C-18.49834293 131.80874449 -12.09963568 131.79677178 -5.70068359 131.77294922 C1.69369724 131.74573841 9.08738874 131.75455288 16.48175287 131.78208125 C22.83438082 131.80478326 29.18680144 131.80796716 35.53945684 131.7948879 C39.33188518 131.78709927 43.12398967 131.78603523 46.91639709 131.80257034 C50.48225679 131.81703215 54.04722924 131.80696401 57.61299324 131.77809906 C59.54308483 131.76835186 61.4732516 131.78317406 63.40330505 131.79873657 C70.01793962 131.72849474 70.01793962 131.72849474 75.98059082 129.14315796 C78.39403308 125.38725037 78.39403308 125.38725037 77.6640625 117.12109375 C29.1540625 117.12109375 -19.3559375 117.12109375 -69.3359375 117.12109375 Z " fill="#000000" transform="translate(365.3359375,128.87890625)"/>
<path d="M0 0 C1.12992371 -0.00832352 2.25984741 -0.01664703 3.42401123 -0.02522278 C7.1242628 -0.04913663 10.82433779 -0.05806901 14.5246582 -0.06469727 C17.11294097 -0.0736728 19.70122324 -0.0827948 22.289505 -0.09205627 C27.69839081 -0.10849462 33.10720618 -0.11627043 38.51611328 -0.11914062 C44.75174149 -0.12278385 50.98688002 -0.15276078 57.22235841 -0.19454521 C63.24893275 -0.23349958 69.27523601 -0.24473446 75.30195045 -0.24586678 C77.85479212 -0.25006687 80.40763428 -0.26249254 82.96039391 -0.28338432 C86.5287185 -0.31028183 90.09568782 -0.30547832 93.6640625 -0.29296875 C94.71205521 -0.30780304 95.76004791 -0.32263733 96.83979797 -0.33792114 C103.48543425 -0.27168137 108.16809876 0.71390895 113.13793945 5.30639648 C118.63261113 11.2277838 118.85843418 17.22855959 118.78491211 25.01147461 C118.79367371 26.16046738 118.8024353 27.30946014 118.8114624 28.49327087 C118.83339183 32.27511841 118.8189249 36.05578794 118.80200195 39.83764648 C118.8053719 42.47505924 118.810226 45.11247048 118.8164978 47.74987793 C118.82557314 53.27096211 118.81366264 58.79171097 118.78979492 64.31274414 C118.76258713 70.67958657 118.77140284 77.04562823 118.79892695 83.41245127 C118.82442328 89.55815071 118.82163294 95.70349748 118.80701828 101.84922791 C118.80368867 104.45507419 118.80775559 107.06094098 118.81941605 109.66676331 C118.83214946 113.31216147 118.81270908 116.95603352 118.78491211 120.60131836 C118.79503326 121.67272568 118.80515442 122.744133 118.81558228 123.8480072 C118.72137575 130.53455102 117.78505035 135.31421715 113.13793945 140.30639648 C107.5294672 145.35544431 102.24963137 146.02784478 94.91748047 145.93408203 C93.43048645 145.94498871 93.43048645 145.94498871 91.91345215 145.95611572 C88.65588089 145.9746276 85.39941649 145.95867005 82.1418457 145.94311523 C79.86554489 145.95116101 77.58925161 145.96168237 75.31297302 145.9745636 C69.33066144 146.0030749 63.34869653 146.00369494 57.36633301 145.9967041 C47.79584556 145.9893743 38.22547 146.02083198 28.65507317 146.0591526 C25.32209608 146.06796908 21.98936369 146.06271472 18.65638733 146.05558777 C16.60018854 146.0589743 14.54399031 146.06272417 12.48779297 146.06689453 C11.11049263 146.05835197 11.11049263 146.05835197 9.70536804 146.04963684 C1.2989774 146.08779581 -6.16273411 146.69384442 -12.42456055 152.66577148 C-17.45743106 158.40980848 -17.98200534 165.05592131 -18.00009155 172.39860535 C-18.00554489 173.59732773 -18.01099823 174.79605011 -18.01661682 176.03109741 C-18.01818031 177.98337753 -18.01818031 177.98337753 -18.01977539 179.97509766 C-18.02444836 181.37011371 -18.02959272 182.76512826 -18.03517151 184.16014099 C-18.04641537 187.15572655 -18.05486704 190.15130238 -18.06129074 193.14690208 C-18.07199883 197.88233999 -18.09224805 202.61770721 -18.1144104 207.35310364 C-18.17625037 220.81561062 -18.23042239 234.27811173 -18.26342773 247.74072266 C-18.28175155 255.18237568 -18.31065114 262.6239086 -18.35143244 270.06547338 C-18.37252474 274.0019385 -18.38796299 277.93825222 -18.39023972 281.87477684 C-18.39238128 285.57259831 -18.40819958 289.27010353 -18.43462944 292.96782875 C-18.44528447 294.97461806 -18.44106077 296.98146896 -18.43644714 298.98828125 C-18.44754013 300.17854416 -18.45863312 301.36880707 -18.47006226 302.59513855 C-18.4733724 303.63173709 -18.47668255 304.66833563 -18.480093 305.73634624 C-18.86206055 308.30639648 -18.86206055 308.30639648 -20.20687294 310.10866261 C-22.73971018 311.94148503 -24.76244468 312.18241185 -27.86206055 312.30639648 C-30.18937611 311.16859776 -32.03046769 310.13798934 -33.86206055 308.30639648 C-33.96744464 306.38015084 -34.00173438 304.45000097 -34.00923157 302.52088928 C-34.01638687 301.26342896 -34.02354218 300.00596863 -34.03091431 298.71040344 C-34.03375497 297.30368067 -34.03646665 295.89695762 -34.0390625 294.49023438 C-34.04532457 293.01864459 -34.05197114 291.54705641 -34.05897522 290.07546997 C-34.07641829 286.0646606 -34.08694771 282.0538632 -34.09518075 278.04302526 C-34.1003279 275.53582187 -34.10640401 273.0286222 -34.11269188 270.52142143 C-34.13176013 262.67361634 -34.1459832 254.82582071 -34.15430385 246.97799689 C-34.16405877 237.92674505 -34.19032556 228.87573891 -34.23080474 219.82457358 C-34.26102343 212.8265761 -34.27577849 205.82864876 -34.27908486 198.83058733 C-34.28143041 194.65285289 -34.29032466 190.47538041 -34.31554604 186.29771614 C-34.33893019 182.36028312 -34.34301884 178.42328251 -34.33278465 174.48579788 C-34.33229155 173.04674397 -34.33854508 171.60766806 -34.3523407 170.16868019 C-34.46881775 157.2897914 -32.20359136 148.88848618 -23.2331543 139.50561523 C-16.31025758 133.08454299 -9.28079502 130.04495701 0.24487305 130.0793457 C0.93944925 130.07910463 1.63402546 130.07886356 2.34964943 130.07861519 C4.57869288 130.08009766 6.80739401 130.09528078 9.03637695 130.11108398 C10.42024576 130.11402774 11.8041168 130.11606613 13.18798828 130.1171875 C18.29633949 130.12763634 23.4046429 130.1555589 28.51293945 130.18139648 C39.93918945 130.22264648 51.36543945 130.26389648 63.13793945 130.30639648 C63.13793945 92.35639648 63.13793945 54.40639648 63.13793945 15.30639648 C48.62825195 15.49202148 48.62825195 15.49202148 33.82543945 15.68139648 C30.81378662 15.71539551 27.80213379 15.74939453 24.69921875 15.78442383 C7.91479949 15.99091825 7.91479949 15.99091825 -8.8190918 17.20483398 C-9.53341873 17.27882416 -10.24774567 17.35281433 -10.98371887 17.42904663 C-22.33896061 18.7911571 -32.80623161 22.90539243 -42.8972168 28.16967773 C-46.43743703 29.52699537 -49.09980487 29.65126992 -52.86206055 29.30639648 C-55.78570645 26.75757698 -56.71115231 25.11124043 -57.42456055 21.30639648 C-56.66566082 17.25893128 -54.91986348 16.0094267 -51.86206055 13.30639648 C-36.3636461 4.2128275 -17.7979958 0.01135389 0 0 Z M78.13793945 15.30639648 C78.13793945 53.25639648 78.13793945 91.20639648 78.13793945 130.30639648 C95.90187148 131.79710847 95.90187148 131.79710847 102.13793945 128.30639648 C103.06532846 125.52422947 103.26537171 123.85835579 103.27165222 120.98634338 C103.27591721 120.10451385 103.28018219 119.22268433 103.28457642 118.31413269 C103.28389664 116.86699638 103.28389664 116.86699638 103.28320312 115.390625 C103.28656174 114.37248718 103.28992035 113.35434937 103.29338074 112.30535889 C103.30289769 108.93199451 103.30483417 105.55867971 103.3059082 102.18530273 C103.30912005 99.84504679 103.31248407 97.50479104 103.31599426 95.16453552 C103.32198725 90.25600723 103.32383397 85.34749654 103.32324219 80.43896484 C103.32314051 74.14272528 103.33679809 67.84659833 103.3540144 61.55038548 C103.36512057 56.71631855 103.36716183 51.88227899 103.36663246 47.04820061 C103.36781446 44.72652739 103.37224849 42.40485352 103.37996483 40.08319283 C103.38973756 36.83923524 103.38689744 33.59552386 103.38085938 30.3515625 C103.38647888 29.38882919 103.39209839 28.42609589 103.39788818 27.43418884 C103.3936937 26.54953949 103.38949921 25.66489014 103.38517761 24.75343323 C103.38572238 23.98671075 103.38626715 23.21998827 103.38682842 22.43003178 C103.09729441 19.9595943 102.50266153 18.3843229 101.13793945 16.30639648 C93.85782956 13.87969319 85.81184908 15.30639648 78.13793945 15.30639648 Z " fill="#000000" transform="translate(108.862060546875,-0.306396484375)"/>
</svg>
